<?xml version="1.0" encoding="utf-8"?>
<!-- Generator: Adobe Illustrator 24.1.0, SVG Export Plug-In . SVG Version: 6.00 Build 0)  -->
<svg version="1.1" id="Layer_1" xmlns="http://www.w3.org/2000/svg" xmlns:xlink="http://www.w3.org/1999/xlink" x="0px" y="0px"
	 viewBox="0 0 410 100" style="enable-background:new 0 0 410 100;" xml:space="preserve">
<style type="text/css">
	.st0{fill:#656571;}
	.st1{fill:#57AFDA;}
	.st2{clip-path:url(#SVGID_2_);fill:#FFFFFF;}
	.st3{clip-path:url(#SVGID_2_);fill:#656571;}
	.st4{clip-path:url(#SVGID_4_);fill:#FFFFFF;}
	.st5{clip-path:url(#SVGID_4_);fill:#656571;}
	.st6{clip-path:url(#SVGID_6_);fill:#FFFFFF;}
	.st7{clip-path:url(#SVGID_6_);fill:#656571;}
	.st8{clip-path:url(#SVGID_8_);fill:#FFFFFF;}
	.st9{clip-path:url(#SVGID_8_);fill:#656571;}
	.st10{clip-path:url(#SVGID_10_);fill:#FFFFFF;}
	.st11{clip-path:url(#SVGID_10_);fill:#656571;}
	.st12{clip-path:url(#SVGID_12_);fill:#FFFFFF;}
	.st13{clip-path:url(#SVGID_12_);fill:#656571;}
	.st14{clip-path:url(#SVGID_14_);fill:#FFFFFF;}
	.st15{clip-path:url(#SVGID_14_);fill:#656571;}
	.st16{clip-path:url(#SVGID_16_);fill:#FFFFFF;}
	.st17{clip-path:url(#SVGID_16_);fill:#656571;}
	.st18{clip-path:url(#SVGID_18_);fill:#FFFFFF;}
	.st19{clip-path:url(#SVGID_18_);fill:#656571;}
	.st20{clip-path:url(#SVGID_20_);fill:#FFFFFF;}
	.st21{clip-path:url(#SVGID_20_);fill:#656571;}
	.st22{clip-path:url(#SVGID_22_);fill:#FFFFFF;}
	.st23{clip-path:url(#SVGID_22_);fill:#656571;}
	.st24{clip-path:url(#SVGID_24_);fill:#FFFFFF;}
	.st25{clip-path:url(#SVGID_24_);fill:#656571;}
</style>
<g>
	<path class="st0" d="M69.5,90.92c0,1.14-0.33,1.7-0.97,1.7c-1.62,0-3.71-0.12-6.27-0.37c-2.8-0.24-5.19-0.36-7.18-0.36
		c-1.99,0-4.48,0.12-7.48,0.36c-2.8,0.24-5.01,0.37-6.63,0.37c-0.65,0-0.97-0.57-0.97-1.7c0-1.01,0.32-1.56,0.97-1.64
		c1.05-0.12,1.81-0.32,2.25-0.61c0.45-0.28,0.67-0.83,0.67-1.64c0-1.22-1.95-3.89-5.84-8.03l-9.74-10.83
		c-0.81-0.81-1.91-1.22-3.29-1.22V79c0,3.57,0.44,6.11,1.31,7.61c0.87,1.5,2.5,2.39,4.9,2.68c0.65,0.08,0.97,0.63,0.97,1.64
		c0,1.14-0.33,1.7-0.97,1.7c-1.74,0-4.02-0.12-6.81-0.37c-2.66-0.24-4.76-0.36-6.29-0.36c-1.74,0-3.84,0.12-6.31,0.36
		c-2.35,0.24-4.3,0.37-5.84,0.37c-0.65,0-0.97-0.57-0.97-1.7c0-1.01,0.32-1.56,0.97-1.64c3.41-0.36,5.62-1.17,6.63-2.4
		c1.01-1.24,1.52-3.86,1.52-7.87V22.52c0-3.28-0.4-5.43-1.19-6.44c-0.79-1.01-2.63-1.68-5.51-2.01c-0.65-0.08-0.97-0.6-0.97-1.55
		c0-1.07,0.32-1.61,0.97-1.61c6.92-1.62,12.04-3.77,15.35-6.45c0.6-0.49,1.11-0.73,1.51-0.73c1.13,0,1.7,0.33,1.7,0.97
		c-0.65,6.66-0.97,13.73-0.97,21.2v37.7c1.46,0,2.62-0.39,3.47-1.16l9.07-8.6c0.28-0.28,0.75-0.71,1.4-1.28
		c3.37-3.07,5.05-5.35,5.05-6.82c0-1.07-1.62-1.8-4.87-2.21c-0.65-0.08-0.97-0.64-0.97-1.67c0-1.12,0.32-1.67,0.97-1.67
		c1.7,0,3.85,0.12,6.45,0.36c2.39,0.24,4.38,0.36,5.96,0.36c1.18,0,2.7-0.1,4.56-0.3c2.27-0.28,4.3-0.43,6.08-0.43
		c0.65,0,0.97,0.56,0.97,1.67c0,1.04-0.33,1.59-0.97,1.67c-2.96,0.33-5.55,1.02-7.76,2.09c-2.21,1.07-5.2,3.28-8.98,6.64L35,61.53
		L50.94,79c3.37,3.69,6.21,6.23,8.52,7.61c2.31,1.38,5.33,2.27,9.07,2.68C69.18,89.36,69.5,89.91,69.5,90.92z"/>
	<path class="st0" d="M112.32,93.97c-2.26,0-4.22-0.56-5.9-1.67c-1.67-1.12-2.81-2.63-3.42-4.53c-4.34,4.46-10.02,6.69-17.04,6.69
		c-3.65,0-6.63-1.13-8.94-3.38c-2.31-2.25-3.47-5.06-3.47-8.43c0-8.32,9.86-15.05,29.57-20.2l0.36-9.49v-0.3
		c0-2.92-0.72-5.24-2.16-6.97c-1.44-1.72-3.36-2.59-5.75-2.59c-2.39,0-4.42,0.58-6.08,1.73c-1.66,1.16-2.52,2.61-2.56,4.35
		c-0.04,2.6-0.72,4.62-2.04,6.08c-1.32,1.46-3.07,2.19-5.26,2.19c-1.3,0-2.35-0.39-3.16-1.16c-0.81-0.77-1.22-1.8-1.22-3.1
		c0-3.12,2.84-6.4,8.52-9.83c5.68-3.43,10.95-5.14,15.82-5.14c4.38,0,7.93,1.3,10.65,3.89c2.72,2.6,4.08,6.09,4.08,10.47v0.73
		l-0.91,27.5v0.43c0,4.26,1.38,6.39,4.14,6.39c1.34,0,2.9-0.81,4.69-2.43l0.43-0.12c0.32,0,0.63,0.21,0.91,0.64
		c0.28,0.43,0.43,0.88,0.43,1.37c0,1.18-1.23,2.62-3.68,4.32C117.86,93.11,115.2,93.97,112.32,93.97z M103,66.52
		c-11.8,2.69-17.71,7.12-17.71,13.3c0,5.78,2.22,8.66,6.67,8.66c2.14,0,4.25-0.54,6.34-1.62c2.08-1.08,3.49-2.41,4.21-4L103,66.52z"
		/>
	<path class="st0" d="M156.16,90.8c0,1.13-0.32,1.7-0.97,1.7c-1.66,0-3.79-0.1-6.39-0.3c-2.92-0.2-5.38-0.3-7.36-0.3
		c-1.95,0-4.36,0.1-7.24,0.3c-2.6,0.2-4.73,0.3-6.39,0.3c-0.65,0-0.97-0.57-0.97-1.7c0-1.01,0.32-1.56,0.97-1.64
		c3.45-0.41,5.69-1.23,6.72-2.46s1.55-3.84,1.55-7.81V22.4c0-3.28-0.41-5.43-1.22-6.44c-0.81-1.01-2.68-1.68-5.6-2.01
		c-0.65-0.08-0.97-0.6-0.97-1.55c0-0.99,0.32-1.49,0.97-1.49c4.26-1.1,7.75-2.26,10.47-3.5c2.72-1.24,4.42-2.28,5.11-3.13
		c0.41-0.45,0.85-0.67,1.34-0.67c1.14,0,1.7,0.33,1.7,0.97c-0.65,9.09-0.97,16.15-0.97,21.18v53.12c0,3.98,0.51,6.58,1.52,7.82
		c1.01,1.24,3.26,2.06,6.75,2.46C155.84,89.24,156.16,89.79,156.16,90.8z"/>
	<path class="st0" d="M205.94,58.07c0,1.14-0.73,1.7-2.19,1.7H170.4c-0.24,2.19-0.36,4.46-0.36,6.82c0,6.53,1.55,11.55,4.65,15.06
		c3.1,3.51,7.51,5.26,13.24,5.26c2.88,0,5.78-0.77,8.7-2.31c2.92-1.54,5.27-3.51,7.06-5.9l0.3-0.12c0.37,0,0.72,0.22,1.07,0.67
		c0.34,0.45,0.52,0.97,0.52,1.58c0,0.85-1.3,2.63-3.89,5.32c-2.6,2.7-5.42,4.76-8.46,6.18c-3.04,1.42-6.23,2.13-9.55,2.13
		c-7.3,0-13.45-2.68-18.44-8.03c-4.99-5.35-7.48-11.93-7.48-19.72c0-7.95,2.44-14.68,7.33-20.2c4.89-5.52,11.08-8.28,18.59-8.28
		c6.29,0,11.57,2.06,15.85,6.18C203.8,48.52,205.94,53.08,205.94,58.07z M194.86,52.71c0-3.04-1.04-5.57-3.13-7.58
		c-2.09-2.01-4.78-3.01-8.06-3.01c-3.12,0-5.83,1.31-8.12,3.93c-2.29,2.62-3.84,6.05-4.65,10.31l16.92-0.49
		c2.56-0.04,4.37-0.28,5.45-0.73C194.32,54.7,194.86,53.89,194.86,52.71z"/>
	<path class="st0" d="M239.17,90.92c0,1.14-0.33,1.7-0.97,1.7c-1.66,0-3.79-0.12-6.39-0.37c-2.91-0.24-5.36-0.36-7.33-0.36
		c-2.02,0-4.44,0.12-7.27,0.36c-2.56,0.24-4.67,0.37-6.33,0.37c-0.65,0-0.97-0.57-0.97-1.7c0-1.01,0.33-1.56,0.97-1.64
		c3.45-0.44,5.67-1.28,6.66-2.49c0.99-1.22,1.49-3.81,1.49-7.78V56.53c0-3.24-0.42-5.37-1.25-6.38c-0.83-1.01-2.65-1.68-5.45-2
		c-0.65,0-0.97-0.54-0.97-1.61c0-0.99,0.32-1.49,0.97-1.49c4.25-1.1,7.72-2.26,10.43-3.5c2.71-1.24,4.41-2.26,5.1-3.07
		c0.4-0.49,0.85-0.73,1.34-0.73c1.13,0,1.7,0.33,1.7,0.97c-0.65,9.09-0.97,16.15-0.97,21.18V79c0,3.98,0.5,6.57,1.49,7.79
		c0.99,1.22,3.26,2.05,6.79,2.49C238.85,89.36,239.17,89.91,239.17,90.92z M230.65,17.36c0,1.7-0.62,3.19-1.86,4.44
		c-1.24,1.26-2.73,1.89-4.47,1.89c-1.74,0-3.24-0.63-4.47-1.89c-1.24-1.26-1.86-2.74-1.86-4.44c0-1.78,0.61-3.29,1.83-4.5
		c1.22-1.22,2.72-1.83,4.5-1.83c1.74,0,3.24,0.61,4.47,1.83C230.03,14.07,230.65,15.57,230.65,17.36z"/>
	<path class="st0" d="M301.87,88.58c0,0.87-0.33,1.35-0.97,1.43c-2.31,0.28-5,0.85-8.05,1.7c-3.05,0.85-5.44,1.7-7.15,2.56
		c-0.9,0.45-1.55,0.67-1.96,0.67c-0.65,0-0.98-0.33-0.98-0.97l0.49-6.57c-4.3,4.71-9.78,7.06-16.43,7.06
		c-7.02,0-12.99-2.7-17.92-8.09c-4.93-5.39-7.39-11.87-7.39-19.41c0-8.56,2.73-15.49,8.18-20.78c5.46-5.29,12.3-7.94,20.54-7.94
		c4.71,0,9.05,1.46,13.02,4.38V22.39c0-3.28-0.41-5.42-1.22-6.44s-2.68-1.68-5.6-2c-0.65-0.08-0.97-0.6-0.97-1.55
		c0-1.08,0.33-1.61,0.98-1.61c3.82-0.89,7.14-1.97,9.95-3.23c2.81-1.26,4.7-2.37,5.68-3.35c0.41-0.41,0.83-0.61,1.28-0.61
		c1.14,0,1.71,0.32,1.71,0.97c-0.65,8.84-0.97,15.89-0.97,21.16v53.57c0,2.8,0.41,4.67,1.22,5.62c0.81,0.95,2.68,1.63,5.6,2.04
		C301.55,86.97,301.87,87.51,301.87,88.58z M283.25,82.09v-31.2c0-2.11-1.23-4.1-3.68-5.96c-2.45-1.87-5.12-2.8-8-2.8
		c-11.85,0-17.77,8.33-17.77,24.98c0,6.58,1.42,12.04,4.26,16.39c2.84,4.35,6.57,6.52,11.2,6.52c2.64,0,5.03-0.6,7.18-1.8
		C278.59,87.02,280.86,84.97,283.25,82.09z"/>
	<path class="st0" d="M405,76.93c0,4.95-1.94,9.11-5.83,12.47c-3.89,3.37-8.59,5.05-14.1,5.05c-1.94,0-4.94-0.43-8.99-1.28
		c-3.04-0.61-5.1-0.91-6.2-0.91c-0.32-2.84-1.07-7.16-2.25-12.96c0-0.61,0.59-0.91,1.77-0.91c0.97,0,1.56,0.33,1.76,0.97
		c0.93,3,2.78,5.62,5.54,7.85c2.76,2.23,5.6,3.35,8.52,3.35c3.04,0,5.41-0.83,7.09-2.5c1.68-1.66,2.53-3.99,2.53-7
		c0-1.91-0.7-3.59-2.1-5.05c-1.4-1.46-4.43-3.27-9.1-5.42c-6.13-2.8-10.17-5.44-12.14-7.91c-1.97-2.47-2.95-5.44-2.95-8.88
		c0-4.26,1.85-7.92,5.54-10.98c3.69-3.06,8.05-4.59,13.08-4.59c2.11,0,5.07,0.36,8.88,1.1c2.11,0.41,3.49,0.61,4.14,0.61
		c0.12,4.79,0.39,8.86,0.79,12.23c0,0.61-0.59,0.91-1.76,0.91c-1.01,0-1.58-0.32-1.7-0.97c-0.45-2.96-1.56-5.36-3.34-7.21
		c-1.78-1.85-3.9-2.77-6.37-2.77c-6.31,0-9.46,2.76-9.46,8.28c0,1.87,0.75,3.59,2.24,5.17c1.49,1.58,4.74,3.63,9.75,6.15
		c5.98,3,9.91,5.6,11.81,7.79S405,74.17,405,76.93z"/>
</g>
<g>
	<circle class="st1" cx="332.66" cy="66.58" r="28.36"/>
	<g>
		<defs>
			<path id="SVGID_1_" d="M332.66,66.58V38.23c-5.17,0-10,1.4-14.17,3.82L332.66,66.58z"/>
		</defs>
		<clipPath id="SVGID_2_">
			<use xlink:href="#SVGID_1_"  style="overflow:visible;"/>
		</clipPath>
		<polygon class="st2" points="332.66,66.58 332.66,52.88 330.73,55.83 		"/>
		<polygon class="st3" points="324.99,38.23 320.37,45.29 318.54,42.12 		"/>
		<polygon class="st3" points="332.4,60.44 324.79,56.8 327.69,54.56 		"/>
		<polygon class="st2" points="323.09,46.24 334.6,41 324.48,52.43 		"/>
		<polygon class="st3" points="328.85,42.79 327.34,51.27 332.66,54.13 332.66,50.56 		"/>
		<polygon class="st2" points="330.64,53.65 326.44,55.24 330.75,48.46 		"/>
		<polygon class="st2" points="326.22,39.65 329.8,42.36 321.76,42.31 		"/>
		<polygon class="st3" points="328.02,37.25 330.73,43.5 333.85,37.25 		"/>
		<polygon class="st3" points="326.45,42.79 323.13,44.91 326.45,47.35 		"/>
	</g>
	<g>
		<defs>
			<path id="SVGID_3_" d="M332.66,66.58V38.23c5.17,0,10,1.4,14.17,3.82L332.66,66.58z"/>
		</defs>
		<clipPath id="SVGID_4_">
			<use xlink:href="#SVGID_3_"  style="overflow:visible;"/>
		</clipPath>
		<polygon class="st4" points="332.66,66.58 332.66,52.88 334.6,55.83 		"/>
		<polygon class="st5" points="340.34,38.23 344.95,45.29 346.79,42.12 		"/>
		<polygon class="st5" points="332.93,60.44 340.53,56.8 337.63,54.56 		"/>
		<polygon class="st4" points="342.23,46.24 330.73,41 340.85,52.43 		"/>
		<polygon class="st5" points="336.47,42.79 337.99,51.27 332.66,54.13 332.66,50.56 		"/>
		<polygon class="st4" points="334.68,53.65 338.89,55.24 334.57,48.46 		"/>
		<polygon class="st4" points="339.1,39.65 335.52,42.36 343.56,42.31 		"/>
		<polygon class="st5" points="337.31,37.25 334.6,43.5 331.47,37.25 		"/>
		<polygon class="st5" points="338.87,42.79 342.19,44.91 338.87,47.35 		"/>
	</g>
	<g>
		<defs>
			<path id="SVGID_5_" d="M332.66,66.59v28.36c5.17,0,10-1.4,14.17-3.82L332.66,66.59z"/>
		</defs>
		<clipPath id="SVGID_6_">
			<use xlink:href="#SVGID_5_"  style="overflow:visible;"/>
		</clipPath>
		<polygon class="st6" points="332.66,66.59 332.66,80.29 334.6,77.35 		"/>
		<polygon class="st7" points="340.34,94.94 344.95,87.88 346.79,91.05 		"/>
		<polygon class="st7" points="332.93,72.73 340.53,76.38 337.63,78.61 		"/>
		<polygon class="st6" points="342.23,86.94 330.73,92.17 340.85,80.74 		"/>
		<polygon class="st7" points="336.47,90.38 337.99,81.9 332.66,79.04 332.66,82.61 		"/>
		<polygon class="st6" points="334.68,79.52 338.89,77.93 334.57,84.71 		"/>
		<polygon class="st6" points="339.1,93.53 335.52,90.81 343.56,90.86 		"/>
		<polygon class="st7" points="337.31,95.92 334.6,89.67 331.47,95.92 		"/>
		<polygon class="st7" points="338.87,90.38 342.19,88.26 338.87,85.82 		"/>
	</g>
	<g>
		<defs>
			<path id="SVGID_7_" d="M332.66,66.59v28.36c-5.17,0-10-1.4-14.17-3.82L332.66,66.59z"/>
		</defs>
		<clipPath id="SVGID_8_">
			<use xlink:href="#SVGID_7_"  style="overflow:visible;"/>
		</clipPath>
		<polygon class="st8" points="332.66,66.59 332.66,80.29 330.73,77.35 		"/>
		<polygon class="st9" points="324.99,94.94 320.37,87.88 318.54,91.05 		"/>
		<polygon class="st9" points="332.4,72.73 324.79,76.38 327.69,78.61 		"/>
		<polygon class="st8" points="323.09,86.94 334.6,92.17 324.48,80.74 		"/>
		<polygon class="st9" points="328.85,90.38 327.34,81.9 332.66,79.04 332.66,82.61 		"/>
		<polygon class="st8" points="330.64,79.52 326.44,77.93 330.75,84.71 		"/>
		<polygon class="st8" points="326.22,93.53 329.8,90.81 321.76,90.86 		"/>
		<polygon class="st9" points="328.02,95.92 330.73,89.67 333.85,95.92 		"/>
		<polygon class="st9" points="326.45,90.38 323.13,88.26 326.45,85.82 		"/>
	</g>
	<g>
		<defs>
			<path id="SVGID_9_" d="M332.66,66.59L308.1,52.41c-2.58,4.47-3.78,9.36-3.78,14.18L332.66,66.59z"/>
		</defs>
		<clipPath id="SVGID_10_">
			<use xlink:href="#SVGID_9_"  style="overflow:visible;"/>
		</clipPath>
		<polygon class="st10" points="332.66,66.59 320.79,59.73 322.38,62.88 		"/>
		<polygon class="st11" points="304.27,59.05 308.07,66.58 304.41,66.59 		"/>
		<polygon class="st11" points="327.21,63.74 320.25,68.51 319.76,64.88 		"/>
		<polygon class="st10" points="310.25,64.7 311.47,52.12 316.31,66.6 		"/>
		<polygon class="st11" points="310.15,57.99 316.74,63.54 321.87,60.36 318.78,58.57 		"/>
		<polygon class="st10" points="320.45,61.87 319.72,66.3 316.01,59.18 		"/>
		<polygon class="st10" points="306.11,58.69 310.25,56.95 306.19,63.89 		"/>
		<polygon class="st11" points="304.94,55.94 311.71,56.72 307.86,50.89 		"/>
		<polygon class="st11" points="308.95,60.07 309.12,64 312.9,62.35 		"/>
	</g>
	<g>
		<defs>
			<path id="SVGID_11_" d="M332.66,66.59L308.1,52.41c2.58-4.47,6.21-7.95,10.39-10.36L332.66,66.59z"/>
		</defs>
		<clipPath id="SVGID_12_">
			<use xlink:href="#SVGID_11_"  style="overflow:visible;"/>
		</clipPath>
		<polygon class="st12" points="332.66,66.59 320.79,59.73 324.31,59.53 		"/>
		<polygon class="st13" points="311.94,45.76 320.36,45.29 318.54,42.12 		"/>
		<polygon class="st13" points="327.48,63.29 328.12,54.87 324.74,56.27 		"/>
		<polygon class="st12" points="319.82,48.12 309.54,55.47 324.5,52.42 		"/>
		<polygon class="st13" points="313.96,51.39 322.06,54.32 321.87,60.36 318.78,58.57 		"/>
		<polygon class="st12" points="322.47,58.37 325.95,55.52 317.92,55.87 		"/>
		<polygon class="st12" points="312.55,47.54 313.11,52 317.09,45.01 		"/>
		<polygon class="st13" points="309.58,47.9 313.64,53.37 306.66,52.95 		"/>
		<polygon class="st13" points="315.16,49.31 318.66,47.49 319.11,51.59 		"/>
	</g>
	<g>
		<defs>
			<path id="SVGID_13_" d="M332.66,66.59l24.56,14.18c2.58-4.47,3.78-9.36,3.78-14.18L332.66,66.59z"/>
		</defs>
		<clipPath id="SVGID_14_">
			<use xlink:href="#SVGID_13_"  style="overflow:visible;"/>
		</clipPath>
		<polygon class="st14" points="332.66,66.59 344.53,73.44 342.95,70.29 		"/>
		<polygon class="st15" points="361.06,74.12 357.25,66.59 360.91,66.59 		"/>
		<polygon class="st15" points="338.11,69.43 345.08,64.66 345.56,68.29 		"/>
		<polygon class="st14" points="355.07,68.47 353.85,81.05 349.01,66.58 		"/>
		<polygon class="st15" points="355.17,75.19 348.59,69.63 343.45,72.81 346.54,74.6 		"/>
		<polygon class="st14" points="344.87,71.3 345.6,66.87 349.32,74 		"/>
		<polygon class="st14" points="359.21,74.48 355.07,76.22 359.13,69.28 		"/>
		<polygon class="st15" points="360.39,77.23 353.62,76.45 357.47,82.28 		"/>
		<polygon class="st15" points="356.38,73.11 356.2,69.17 352.42,70.82 		"/>
	</g>
	<g>
		<defs>
			<path id="SVGID_15_" d="M332.66,66.59l24.56,14.18c-2.58,4.47-6.21,7.95-10.39,10.36L332.66,66.59z"/>
		</defs>
		<clipPath id="SVGID_16_">
			<use xlink:href="#SVGID_15_"  style="overflow:visible;"/>
		</clipPath>
		<polygon class="st16" points="332.66,66.59 344.53,73.44 341.02,73.64 		"/>
		<polygon class="st17" points="353.38,87.41 344.96,87.88 346.79,91.05 		"/>
		<polygon class="st17" points="337.85,69.89 337.21,78.3 340.59,76.9 		"/>
		<polygon class="st16" points="345.5,85.05 355.78,77.7 340.83,80.75 		"/>
		<polygon class="st17" points="351.37,81.78 343.26,78.86 343.45,72.81 346.54,74.6 		"/>
		<polygon class="st16" points="342.85,74.8 339.37,77.65 347.41,77.3 		"/>
		<polygon class="st16" points="352.77,85.63 352.21,81.18 348.23,88.16 		"/>
		<polygon class="st17" points="355.74,85.27 351.69,79.8 358.66,80.22 		"/>
		<polygon class="st17" points="350.17,83.86 346.67,85.68 346.21,81.58 		"/>
	</g>
	<g>
		<defs>
			<path id="SVGID_17_" d="M332.66,66.59L308.1,80.76c2.58,4.47,6.21,7.95,10.39,10.36L332.66,66.59z"/>
		</defs>
		<clipPath id="SVGID_18_">
			<use xlink:href="#SVGID_17_"  style="overflow:visible;"/>
		</clipPath>
		<polygon class="st18" points="332.66,66.59 320.79,73.44 324.31,73.64 		"/>
		<polygon class="st19" points="311.94,87.41 320.36,87.88 318.54,91.05 		"/>
		<polygon class="st19" points="327.48,69.89 328.12,78.3 324.74,76.9 		"/>
		<polygon class="st18" points="319.82,85.05 309.54,77.7 324.5,80.75 		"/>
		<polygon class="st19" points="313.96,81.78 322.06,78.86 321.87,72.81 318.78,74.6 		"/>
		<polygon class="st18" points="322.47,74.8 325.95,77.65 317.92,77.3 		"/>
		<polygon class="st18" points="312.55,85.63 313.11,81.18 317.09,88.16 		"/>
		<polygon class="st19" points="309.58,85.27 313.64,79.8 306.66,80.22 		"/>
		<polygon class="st19" points="315.16,83.86 318.66,85.68 319.11,81.58 		"/>
	</g>
	<g>
		<defs>
			<path id="SVGID_19_" d="M332.66,66.59L308.1,80.76c-2.58-4.47-3.78-9.36-3.78-14.18L332.66,66.59z"/>
		</defs>
		<clipPath id="SVGID_20_">
			<use xlink:href="#SVGID_19_"  style="overflow:visible;"/>
		</clipPath>
		<polygon class="st20" points="332.66,66.59 320.79,73.44 322.38,70.29 		"/>
		<polygon class="st21" points="304.27,74.12 308.07,66.59 304.41,66.59 		"/>
		<polygon class="st21" points="327.21,69.43 320.25,64.66 319.76,68.29 		"/>
		<polygon class="st20" points="310.25,68.47 311.47,81.05 316.31,66.58 		"/>
		<polygon class="st21" points="310.15,75.19 316.74,69.63 321.87,72.81 318.78,74.6 		"/>
		<polygon class="st20" points="320.45,71.3 319.72,66.87 316.01,74 		"/>
		<polygon class="st20" points="306.11,74.48 310.25,76.22 306.19,69.28 		"/>
		<polygon class="st21" points="304.94,77.23 311.71,76.45 307.86,82.28 		"/>
		<polygon class="st21" points="308.95,73.11 309.12,69.17 312.9,70.82 		"/>
	</g>
	<g>
		<defs>
			<path id="SVGID_21_" d="M332.66,66.59l24.56-14.18c-2.58-4.47-6.21-7.95-10.39-10.36L332.66,66.59z"/>
		</defs>
		<clipPath id="SVGID_22_">
			<use xlink:href="#SVGID_21_"  style="overflow:visible;"/>
		</clipPath>
		<polygon class="st22" points="332.66,66.59 344.53,59.73 341.02,59.53 		"/>
		<polygon class="st23" points="353.38,45.76 344.96,45.29 346.79,42.12 		"/>
		<polygon class="st23" points="337.85,63.29 337.21,54.87 340.59,56.27 		"/>
		<polygon class="st22" points="345.5,48.12 355.78,55.47 340.83,52.42 		"/>
		<polygon class="st23" points="351.37,51.39 343.26,54.32 343.45,60.36 346.54,58.57 		"/>
		<polygon class="st22" points="342.85,58.37 339.37,55.52 347.41,55.87 		"/>
		<polygon class="st22" points="352.77,47.54 352.21,52 348.23,45.01 		"/>
		<polygon class="st23" points="355.74,47.9 351.69,53.37 358.66,52.95 		"/>
		<polygon class="st23" points="350.17,49.31 346.67,47.49 346.21,51.59 		"/>
	</g>
	<g>
		<defs>
			<path id="SVGID_23_" d="M332.66,66.59l24.56-14.18c2.58,4.47,3.78,9.36,3.78,14.18L332.66,66.59z"/>
		</defs>
		<clipPath id="SVGID_24_">
			<use xlink:href="#SVGID_23_"  style="overflow:visible;"/>
		</clipPath>
		<polygon class="st24" points="332.66,66.59 344.53,59.73 342.95,62.88 		"/>
		<polygon class="st25" points="361.06,59.05 357.25,66.58 360.91,66.59 		"/>
		<polygon class="st25" points="338.11,63.74 345.08,68.51 345.56,64.88 		"/>
		<polygon class="st24" points="355.07,64.7 353.85,52.12 349.01,66.6 		"/>
		<polygon class="st25" points="355.17,57.99 348.59,63.54 343.45,60.36 346.54,58.57 		"/>
		<polygon class="st24" points="344.87,61.87 345.6,66.3 349.32,59.18 		"/>
		<polygon class="st24" points="359.21,58.69 355.07,56.95 359.13,63.89 		"/>
		<polygon class="st25" points="360.39,55.94 353.62,56.72 357.47,50.89 		"/>
		<polygon class="st25" points="356.38,60.07 356.2,64 352.42,62.35 		"/>
	</g>
</g>
</svg>
