<?xml version="1.0" encoding="utf-8"?>
<!-- Generator: Adobe Illustrator 24.1.0, SVG Export Plug-In . SVG Version: 6.00 Build 0)  -->
<svg version="1.1" id="Layer_1" xmlns="http://www.w3.org/2000/svg" xmlns:xlink="http://www.w3.org/1999/xlink" x="0px" y="0px"
	 viewBox="0 0 410 140" style="enable-background:new 0 0 410 140;" xml:space="preserve">
<style type="text/css">
	.st0{fill:#656571;}
	.st1{fill:#57AFDA;}
	.st2{clip-path:url(#SVGID_2_);fill:#FFFFFF;}
	.st3{clip-path:url(#SVGID_2_);fill:#656571;}
	.st4{clip-path:url(#SVGID_4_);fill:#FFFFFF;}
	.st5{clip-path:url(#SVGID_4_);fill:#656571;}
	.st6{clip-path:url(#SVGID_6_);fill:#FFFFFF;}
	.st7{clip-path:url(#SVGID_6_);fill:#656571;}
	.st8{clip-path:url(#SVGID_8_);fill:#FFFFFF;}
	.st9{clip-path:url(#SVGID_8_);fill:#656571;}
	.st10{clip-path:url(#SVGID_10_);fill:#FFFFFF;}
	.st11{clip-path:url(#SVGID_10_);fill:#656571;}
	.st12{clip-path:url(#SVGID_12_);fill:#FFFFFF;}
	.st13{clip-path:url(#SVGID_12_);fill:#656571;}
	.st14{clip-path:url(#SVGID_14_);fill:#FFFFFF;}
	.st15{clip-path:url(#SVGID_14_);fill:#656571;}
	.st16{clip-path:url(#SVGID_16_);fill:#FFFFFF;}
	.st17{clip-path:url(#SVGID_16_);fill:#656571;}
	.st18{clip-path:url(#SVGID_18_);fill:#FFFFFF;}
	.st19{clip-path:url(#SVGID_18_);fill:#656571;}
	.st20{clip-path:url(#SVGID_20_);fill:#FFFFFF;}
	.st21{clip-path:url(#SVGID_20_);fill:#656571;}
	.st22{clip-path:url(#SVGID_22_);fill:#FFFFFF;}
	.st23{clip-path:url(#SVGID_22_);fill:#656571;}
	.st24{clip-path:url(#SVGID_24_);fill:#FFFFFF;}
	.st25{clip-path:url(#SVGID_24_);fill:#656571;}
</style>
<g>
	<path class="st0" d="M69.5,92.23c0,1.14-0.33,1.7-0.97,1.7c-1.62,0-3.71-0.12-6.27-0.37c-2.8-0.24-5.19-0.36-7.18-0.36
		c-1.99,0-4.48,0.12-7.48,0.36c-2.8,0.24-5.01,0.37-6.63,0.37c-0.65,0-0.97-0.57-0.97-1.7c0-1.01,0.32-1.56,0.97-1.64
		c1.05-0.12,1.81-0.32,2.25-0.61c0.45-0.28,0.67-0.83,0.67-1.64c0-1.22-1.95-3.89-5.84-8.03l-9.74-10.83
		c-0.81-0.81-1.91-1.22-3.29-1.22V80.3c0,3.57,0.44,6.11,1.31,7.61c0.87,1.5,2.5,2.39,4.9,2.68c0.65,0.08,0.97,0.63,0.97,1.64
		c0,1.14-0.33,1.7-0.97,1.7c-1.74,0-4.02-0.12-6.81-0.37c-2.66-0.24-4.76-0.36-6.29-0.36c-1.74,0-3.84,0.12-6.31,0.36
		c-2.35,0.24-4.3,0.37-5.84,0.37c-0.65,0-0.97-0.57-0.97-1.7c0-1.01,0.32-1.56,0.97-1.64c3.41-0.36,5.62-1.17,6.63-2.4
		c1.01-1.24,1.52-3.86,1.52-7.87V23.83c0-3.28-0.4-5.43-1.19-6.44c-0.79-1.01-2.63-1.68-5.51-2.01c-0.65-0.08-0.97-0.6-0.97-1.55
		c0-1.07,0.32-1.61,0.97-1.61c6.92-1.62,12.04-3.77,15.35-6.45c0.6-0.49,1.11-0.73,1.51-0.73c1.13,0,1.7,0.33,1.7,0.97
		c-0.65,6.66-0.97,13.73-0.97,21.2v37.7c1.46,0,2.62-0.39,3.47-1.16l9.07-8.6c0.28-0.28,0.75-0.71,1.4-1.28
		c3.37-3.07,5.05-5.35,5.05-6.82c0-1.07-1.62-1.8-4.87-2.21c-0.65-0.08-0.97-0.64-0.97-1.67c0-1.12,0.32-1.67,0.97-1.67
		c1.7,0,3.85,0.12,6.45,0.36c2.39,0.24,4.38,0.36,5.96,0.36c1.18,0,2.7-0.1,4.56-0.3c2.27-0.28,4.3-0.43,6.08-0.43
		c0.65,0,0.97,0.56,0.97,1.67c0,1.04-0.33,1.59-0.97,1.67c-2.96,0.33-5.55,1.02-7.76,2.09c-2.21,1.07-5.2,3.28-8.98,6.64L35,62.83
		L50.94,80.3c3.37,3.69,6.21,6.23,8.52,7.61c2.31,1.38,5.33,2.27,9.07,2.68C69.18,90.67,69.5,91.22,69.5,92.23z"/>
	<path class="st0" d="M112.32,95.27c-2.26,0-4.22-0.56-5.9-1.67c-1.67-1.12-2.81-2.63-3.42-4.53c-4.34,4.46-10.02,6.69-17.04,6.69
		c-3.65,0-6.63-1.13-8.94-3.38c-2.31-2.25-3.47-5.06-3.47-8.43c0-8.32,9.86-15.05,29.57-20.2l0.36-9.49v-0.3
		c0-2.92-0.72-5.24-2.16-6.97c-1.44-1.72-3.36-2.59-5.75-2.59c-2.39,0-4.42,0.58-6.08,1.73c-1.66,1.16-2.52,2.61-2.56,4.35
		c-0.04,2.6-0.72,4.62-2.04,6.08c-1.32,1.46-3.07,2.19-5.26,2.19c-1.3,0-2.35-0.39-3.16-1.16c-0.81-0.77-1.22-1.8-1.22-3.1
		c0-3.12,2.84-6.4,8.52-9.83c5.68-3.43,10.95-5.14,15.82-5.14c4.38,0,7.93,1.3,10.65,3.89c2.72,2.6,4.08,6.09,4.08,10.47v0.73
		l-0.91,27.5v0.43c0,4.26,1.38,6.39,4.14,6.39c1.34,0,2.9-0.81,4.69-2.43l0.43-0.12c0.32,0,0.63,0.21,0.91,0.64
		c0.28,0.43,0.43,0.88,0.43,1.37c0,1.18-1.23,2.62-3.68,4.32C117.86,94.42,115.2,95.27,112.32,95.27z M103,67.83
		c-11.8,2.69-17.71,7.12-17.71,13.3c0,5.78,2.22,8.66,6.67,8.66c2.14,0,4.25-0.54,6.34-1.62c2.08-1.08,3.49-2.41,4.21-4L103,67.83z"
		/>
	<path class="st0" d="M156.16,92.11c0,1.13-0.32,1.7-0.97,1.7c-1.66,0-3.79-0.1-6.39-0.3c-2.92-0.2-5.38-0.3-7.36-0.3
		c-1.95,0-4.36,0.1-7.24,0.3c-2.6,0.2-4.73,0.3-6.39,0.3c-0.65,0-0.97-0.57-0.97-1.7c0-1.01,0.32-1.56,0.97-1.64
		c3.45-0.41,5.69-1.23,6.72-2.46s1.55-3.84,1.55-7.81V23.71c0-3.28-0.41-5.43-1.22-6.44c-0.81-1.01-2.68-1.68-5.6-2.01
		c-0.65-0.08-0.97-0.6-0.97-1.55c0-0.99,0.32-1.49,0.97-1.49c4.26-1.1,7.75-2.26,10.47-3.5c2.72-1.24,4.42-2.28,5.11-3.13
		c0.41-0.45,0.85-0.67,1.34-0.67c1.14,0,1.7,0.33,1.7,0.97c-0.65,9.09-0.97,16.15-0.97,21.18v53.12c0,3.98,0.51,6.58,1.52,7.82
		c1.01,1.24,3.26,2.06,6.75,2.46C155.84,90.55,156.16,91.1,156.16,92.11z"/>
	<path class="st0" d="M205.94,59.37c0,1.14-0.73,1.7-2.19,1.7H170.4c-0.24,2.19-0.36,4.46-0.36,6.82c0,6.53,1.55,11.55,4.65,15.06
		c3.1,3.51,7.51,5.26,13.24,5.26c2.88,0,5.78-0.77,8.7-2.31c2.92-1.54,5.27-3.51,7.06-5.9l0.3-0.12c0.37,0,0.72,0.22,1.07,0.67
		c0.34,0.45,0.52,0.97,0.52,1.58c0,0.85-1.3,2.63-3.89,5.32c-2.6,2.7-5.42,4.76-8.46,6.18c-3.04,1.42-6.23,2.13-9.55,2.13
		c-7.3,0-13.45-2.68-18.44-8.03c-4.99-5.35-7.48-11.93-7.48-19.72c0-7.95,2.44-14.68,7.33-20.2c4.89-5.52,11.08-8.28,18.59-8.28
		c6.29,0,11.57,2.06,15.85,6.18C203.8,49.83,205.94,54.38,205.94,59.37z M194.86,54.02c0-3.04-1.04-5.57-3.13-7.58
		s-4.78-3.01-8.06-3.01c-3.12,0-5.83,1.31-8.12,3.93c-2.29,2.62-3.84,6.05-4.65,10.31l16.92-0.49c2.56-0.04,4.37-0.28,5.45-0.73
		C194.32,56,194.86,55.19,194.86,54.02z"/>
	<path class="st0" d="M239.17,92.23c0,1.14-0.33,1.7-0.97,1.7c-1.66,0-3.79-0.12-6.39-0.37c-2.91-0.24-5.36-0.36-7.33-0.36
		c-2.02,0-4.44,0.12-7.27,0.36c-2.56,0.24-4.67,0.37-6.33,0.37c-0.65,0-0.97-0.57-0.97-1.7c0-1.01,0.33-1.56,0.97-1.64
		c3.45-0.44,5.67-1.28,6.66-2.49c0.99-1.22,1.49-3.81,1.49-7.78V57.84c0-3.24-0.42-5.37-1.25-6.38c-0.83-1.01-2.65-1.68-5.45-2
		c-0.65,0-0.97-0.54-0.97-1.61c0-0.99,0.32-1.49,0.97-1.49c4.25-1.1,7.72-2.26,10.43-3.5c2.71-1.24,4.41-2.26,5.1-3.07
		c0.4-0.49,0.85-0.73,1.34-0.73c1.13,0,1.7,0.33,1.7,0.97c-0.65,9.09-0.97,16.15-0.97,21.18V80.3c0,3.98,0.5,6.57,1.49,7.79
		c0.99,1.22,3.26,2.05,6.79,2.49C238.85,90.67,239.17,91.22,239.17,92.23z M230.65,18.66c0,1.7-0.62,3.19-1.86,4.44
		c-1.24,1.26-2.73,1.89-4.47,1.89c-1.74,0-3.24-0.63-4.47-1.89c-1.24-1.26-1.86-2.74-1.86-4.44c0-1.78,0.61-3.29,1.83-4.5
		c1.22-1.22,2.72-1.83,4.5-1.83c1.74,0,3.24,0.61,4.47,1.83C230.03,15.38,230.65,16.88,230.65,18.66z"/>
	<path class="st0" d="M301.87,89.89c0,0.87-0.33,1.35-0.97,1.43c-2.31,0.28-5,0.85-8.05,1.7c-3.05,0.85-5.44,1.7-7.15,2.56
		c-0.9,0.45-1.55,0.67-1.96,0.67c-0.65,0-0.98-0.33-0.98-0.97l0.49-6.57c-4.3,4.71-9.78,7.06-16.43,7.06
		c-7.02,0-12.99-2.7-17.92-8.09c-4.93-5.39-7.39-11.87-7.39-19.41c0-8.56,2.73-15.49,8.18-20.78c5.46-5.29,12.3-7.94,20.54-7.94
		c4.71,0,9.05,1.46,13.02,4.38V23.69c0-3.28-0.41-5.42-1.22-6.44s-2.68-1.68-5.6-2c-0.65-0.08-0.97-0.6-0.97-1.55
		c0-1.08,0.33-1.61,0.98-1.61c3.82-0.89,7.14-1.97,9.95-3.23c2.81-1.26,4.7-2.37,5.68-3.35c0.41-0.41,0.83-0.61,1.28-0.61
		c1.14,0,1.71,0.32,1.71,0.97c-0.65,8.84-0.97,15.89-0.97,21.16v53.57c0,2.8,0.41,4.67,1.22,5.62c0.81,0.95,2.68,1.63,5.6,2.04
		C301.55,88.27,301.87,88.81,301.87,89.89z M283.25,83.39v-31.2c0-2.11-1.23-4.1-3.68-5.96c-2.45-1.87-5.12-2.8-8-2.8
		c-11.85,0-17.77,8.33-17.77,24.98c0,6.58,1.42,12.04,4.26,16.39c2.84,4.35,6.57,6.52,11.2,6.52c2.64,0,5.03-0.6,7.18-1.8
		C278.59,88.32,280.86,86.28,283.25,83.39z"/>
	<path class="st0" d="M405,78.23c0,4.95-1.94,9.11-5.83,12.47c-3.89,3.37-8.59,5.05-14.1,5.05c-1.94,0-4.94-0.43-8.99-1.28
		c-3.04-0.61-5.1-0.91-6.2-0.91c-0.32-2.84-1.07-7.16-2.25-12.96c0-0.61,0.59-0.91,1.77-0.91c0.97,0,1.56,0.33,1.76,0.97
		c0.93,3,2.78,5.62,5.54,7.85c2.76,2.23,5.6,3.35,8.52,3.35c3.04,0,5.41-0.83,7.09-2.5c1.68-1.66,2.53-3.99,2.53-7
		c0-1.91-0.7-3.59-2.1-5.05c-1.4-1.46-4.43-3.27-9.1-5.42c-6.13-2.8-10.17-5.44-12.14-7.91c-1.97-2.47-2.95-5.44-2.95-8.88
		c0-4.26,1.85-7.92,5.54-10.98c3.69-3.06,8.05-4.59,13.08-4.59c2.11,0,5.07,0.36,8.88,1.1c2.11,0.41,3.49,0.61,4.14,0.61
		c0.12,4.79,0.39,8.86,0.79,12.23c0,0.61-0.59,0.91-1.76,0.91c-1.01,0-1.58-0.32-1.7-0.97c-0.45-2.96-1.56-5.36-3.34-7.21
		c-1.78-1.85-3.9-2.77-6.37-2.77c-6.31,0-9.46,2.76-9.46,8.28c0,1.87,0.75,3.59,2.24,5.17c1.49,1.58,4.74,3.63,9.75,6.15
		c5.98,3,9.91,5.6,11.81,7.79C404.05,73,405,75.48,405,78.23z"/>
</g>
<g>
	<g>
		<path class="st1" d="M16.36,127.5c-0.52,0-0.98-0.13-1.37-0.39c-0.39-0.26-0.65-0.61-0.79-1.05c-1.01,1.03-2.32,1.55-3.95,1.55
			c-0.85,0-1.54-0.26-2.07-0.78c-0.54-0.52-0.8-1.17-0.8-1.95c0-1.93,2.28-3.49,6.85-4.68l0.08-2.2v-0.07c0-0.68-0.17-1.21-0.5-1.61
			s-0.78-0.6-1.33-0.6c-0.55,0-1.02,0.13-1.41,0.4c-0.39,0.27-0.58,0.6-0.59,1.01c-0.01,0.6-0.17,1.07-0.47,1.41
			c-0.31,0.34-0.71,0.51-1.22,0.51c-0.3,0-0.54-0.09-0.73-0.27c-0.19-0.18-0.28-0.42-0.28-0.72c0-0.72,0.66-1.48,1.97-2.28
			s2.54-1.19,3.66-1.19c1.02,0,1.84,0.3,2.47,0.9c0.63,0.6,0.94,1.41,0.94,2.42v0.17l-0.21,6.37v0.1c0,0.99,0.32,1.48,0.96,1.48
			c0.31,0,0.67-0.19,1.08-0.56l0.1-0.03c0.08,0,0.15,0.05,0.21,0.15c0.07,0.1,0.1,0.21,0.1,0.32c0,0.27-0.28,0.61-0.85,1
			C17.64,127.3,17.03,127.5,16.36,127.5z M14.2,121.14c-2.73,0.62-4.1,1.65-4.1,3.08c0,1.34,0.51,2.01,1.54,2.01
			c0.5,0,0.99-0.12,1.47-0.37c0.48-0.25,0.81-0.56,0.98-0.93L14.2,121.14z"/>
		<path class="st1" d="M34.73,126.79c0,0.26-0.08,0.39-0.23,0.39c-0.38,0-0.84-0.03-1.38-0.08c-0.6-0.06-1.13-0.08-1.59-0.08
			c-0.47,0-1.01,0.03-1.62,0.08c-0.55,0.06-1.02,0.08-1.39,0.08c-0.15,0-0.23-0.13-0.23-0.39c0-0.23,0.08-0.36,0.23-0.38
			c0.65-0.07,1.07-0.26,1.28-0.55s0.3-0.9,0.3-1.83v-4.71c0-1.05-0.21-1.82-0.62-2.31c-0.41-0.49-1.05-0.73-1.92-0.73
			c-0.55,0-1.03,0.1-1.44,0.31c-0.42,0.21-0.87,0.57-1.35,1.1v6.34c0,0.93,0.1,1.54,0.3,1.83s0.63,0.47,1.28,0.55
			c0.15,0.02,0.23,0.15,0.23,0.38c0,0.26-0.08,0.39-0.23,0.39c-0.39,0-0.85-0.03-1.41-0.08c-0.61-0.06-1.15-0.08-1.61-0.08
			c-0.45,0-0.98,0.03-1.58,0.08c-0.55,0.06-1.02,0.08-1.41,0.08c-0.15,0-0.23-0.13-0.23-0.39c0-0.23,0.08-0.36,0.23-0.38
			c0.81-0.1,1.33-0.3,1.56-0.58c0.23-0.29,0.35-0.88,0.35-1.79v-5.21c0-0.75-0.1-1.24-0.29-1.48c-0.19-0.23-0.62-0.39-1.29-0.46
			c-0.15,0-0.23-0.12-0.23-0.37c0-0.23,0.08-0.34,0.23-0.34c0.93-0.23,1.71-0.5,2.33-0.8s1.01-0.54,1.17-0.73
			c0.09-0.11,0.2-0.17,0.31-0.17c0.26,0,0.39,0.08,0.39,0.23l-0.11,1.78c1.35-1.26,2.61-1.89,3.77-1.89c1.28,0,2.27,0.37,2.99,1.1
			c0.72,0.73,1.08,1.72,1.08,2.96v5.38c0,0.92,0.11,1.52,0.35,1.8c0.23,0.28,0.74,0.47,1.54,0.58
			C34.66,126.43,34.73,126.56,34.73,126.79z"/>
		<path class="st1" d="M52,127.5c-0.52,0-0.98-0.13-1.37-0.39c-0.39-0.26-0.65-0.61-0.79-1.05c-1.01,1.03-2.32,1.55-3.95,1.55
			c-0.85,0-1.54-0.26-2.07-0.78c-0.54-0.52-0.8-1.17-0.8-1.95c0-1.93,2.28-3.49,6.85-4.68l0.08-2.2v-0.07c0-0.68-0.17-1.21-0.5-1.61
			s-0.78-0.6-1.33-0.6c-0.55,0-1.02,0.13-1.41,0.4c-0.39,0.27-0.58,0.6-0.59,1.01c-0.01,0.6-0.17,1.07-0.47,1.41
			c-0.31,0.34-0.71,0.51-1.22,0.51c-0.3,0-0.54-0.09-0.73-0.27s-0.28-0.42-0.28-0.72c0-0.72,0.66-1.48,1.97-2.28
			s2.54-1.19,3.66-1.19c1.02,0,1.84,0.3,2.47,0.9c0.63,0.6,0.94,1.41,0.94,2.42v0.17l-0.21,6.37v0.1c0,0.99,0.32,1.48,0.96,1.48
			c0.31,0,0.67-0.19,1.08-0.56l0.1-0.03c0.08,0,0.15,0.05,0.21,0.15c0.07,0.1,0.1,0.21,0.1,0.32c0,0.27-0.28,0.61-0.85,1
			C53.28,127.3,52.66,127.5,52,127.5z M49.84,121.14c-2.73,0.62-4.1,1.65-4.1,3.08c0,1.34,0.51,2.01,1.54,2.01
			c0.5,0,0.99-0.12,1.47-0.37c0.48-0.25,0.81-0.56,0.98-0.93L49.84,121.14z"/>
		<path class="st1" d="M68.63,121.18c0,1.85-0.62,3.38-1.87,4.6s-2.85,1.83-4.79,1.83c-1.12,0-2.08-0.22-2.88-0.65v4.35
			c0,0.91,0.12,1.52,0.35,1.81s0.76,0.49,1.56,0.59c0.15,0,0.23,0.13,0.23,0.39c0,0.26-0.08,0.39-0.23,0.39
			c-0.39,0-0.88-0.03-1.49-0.08c-0.66-0.06-1.21-0.08-1.66-0.08c-0.47,0-1.04,0.03-1.71,0.08c-0.6,0.06-1.09,0.08-1.48,0.08
			c-0.15,0-0.23-0.13-0.23-0.39c0-0.26,0.08-0.39,0.23-0.39c0.8-0.1,1.32-0.3,1.56-0.59c0.24-0.29,0.36-0.89,0.36-1.8v-12.49
			c0-0.75-0.1-1.25-0.29-1.48c-0.19-0.23-0.62-0.39-1.29-0.46c-0.15,0-0.23-0.12-0.23-0.37c0-0.23,0.07-0.34,0.23-0.34
			c0.91-0.23,1.67-0.48,2.29-0.78c0.62-0.29,1.02-0.54,1.22-0.75c0.1-0.11,0.2-0.17,0.3-0.17c0.26,0,0.39,0.08,0.39,0.23l-0.11,1.78
			c0.52-0.54,1.11-0.98,1.79-1.35c0.68-0.36,1.25-0.54,1.73-0.54c1.85,0,3.32,0.6,4.4,1.81C68.09,117.61,68.63,119.2,68.63,121.18z
			 M65.78,121.15c0-1.57-0.34-2.79-1.02-3.67c-0.68-0.88-1.63-1.32-2.86-1.32c-0.52,0-0.98,0.11-1.4,0.32
			c-0.42,0.22-0.89,0.62-1.41,1.2v6.91c0,0.6,0.27,1.1,0.8,1.51c0.53,0.4,1.19,0.61,1.96,0.61c1.27,0,2.25-0.48,2.92-1.45
			C65.44,124.3,65.78,122.93,65.78,121.15z"/>
		<path class="st1" d="M83.69,121.18c0,1.85-0.62,3.38-1.87,4.6s-2.85,1.83-4.79,1.83c-1.12,0-2.08-0.22-2.88-0.65v4.35
			c0,0.91,0.12,1.52,0.35,1.81s0.76,0.49,1.56,0.59c0.15,0,0.23,0.13,0.23,0.39c0,0.26-0.08,0.39-0.23,0.39
			c-0.39,0-0.88-0.03-1.49-0.08c-0.66-0.06-1.21-0.08-1.66-0.08c-0.47,0-1.04,0.03-1.71,0.08c-0.6,0.06-1.09,0.08-1.48,0.08
			c-0.15,0-0.23-0.13-0.23-0.39c0-0.26,0.08-0.39,0.23-0.39c0.8-0.1,1.32-0.3,1.56-0.59c0.24-0.29,0.36-0.89,0.36-1.8v-12.49
			c0-0.75-0.1-1.25-0.29-1.48c-0.19-0.23-0.62-0.39-1.29-0.46c-0.15,0-0.23-0.12-0.23-0.37c0-0.23,0.07-0.34,0.23-0.34
			c0.91-0.23,1.67-0.48,2.29-0.78c0.62-0.29,1.02-0.54,1.22-0.75c0.1-0.11,0.2-0.17,0.3-0.17c0.26,0,0.39,0.08,0.39,0.23l-0.11,1.78
			c0.52-0.54,1.11-0.98,1.79-1.35c0.68-0.36,1.25-0.54,1.73-0.54c1.85,0,3.32,0.6,4.4,1.81C83.15,117.61,83.69,119.2,83.69,121.18z
			 M80.85,121.15c0-1.57-0.34-2.79-1.02-3.67c-0.68-0.88-1.63-1.32-2.86-1.32c-0.52,0-0.98,0.11-1.4,0.32
			c-0.42,0.22-0.89,0.62-1.41,1.2v6.91c0,0.6,0.27,1.1,0.8,1.51c0.53,0.4,1.19,0.61,1.96,0.61c1.27,0,2.25-0.48,2.92-1.45
			C80.51,124.3,80.85,122.93,80.85,121.15z"/>
		<path class="st1" d="M101.93,127.5c-0.52,0-0.98-0.13-1.37-0.39c-0.39-0.26-0.65-0.61-0.79-1.05c-1.01,1.03-2.32,1.55-3.95,1.55
			c-0.85,0-1.54-0.26-2.07-0.78c-0.54-0.52-0.8-1.17-0.8-1.95c0-1.93,2.28-3.49,6.85-4.68l0.08-2.2v-0.07c0-0.68-0.17-1.21-0.5-1.61
			s-0.78-0.6-1.33-0.6c-0.55,0-1.02,0.13-1.41,0.4c-0.39,0.27-0.58,0.6-0.59,1.01c-0.01,0.6-0.17,1.07-0.47,1.41
			c-0.31,0.34-0.71,0.51-1.22,0.51c-0.3,0-0.54-0.09-0.73-0.27s-0.28-0.42-0.28-0.72c0-0.72,0.66-1.48,1.97-2.28
			s2.54-1.19,3.66-1.19c1.02,0,1.84,0.3,2.47,0.9c0.63,0.6,0.94,1.41,0.94,2.42v0.17l-0.21,6.37v0.1c0,0.99,0.32,1.48,0.96,1.48
			c0.31,0,0.67-0.19,1.08-0.56l0.1-0.03c0.08,0,0.15,0.05,0.21,0.15c0.07,0.1,0.1,0.21,0.1,0.32c0,0.27-0.28,0.61-0.85,1
			C103.22,127.3,102.6,127.5,101.93,127.5z M99.77,121.14c-2.73,0.62-4.1,1.65-4.1,3.08c0,1.34,0.51,2.01,1.54,2.01
			c0.5,0,0.99-0.12,1.47-0.37c0.48-0.25,0.81-0.56,0.98-0.93L99.77,121.14z"/>
		<path class="st1" d="M114.54,123.55c0,1.15-0.45,2.11-1.35,2.89c-0.9,0.78-1.99,1.17-3.26,1.17c-0.45,0-1.14-0.1-2.08-0.3
			c-0.7-0.14-1.18-0.21-1.44-0.21c-0.08-0.66-0.25-1.66-0.52-3c0-0.14,0.14-0.21,0.41-0.21c0.23,0,0.36,0.08,0.41,0.23
			c0.22,0.7,0.64,1.3,1.28,1.82c0.64,0.52,1.3,0.78,1.97,0.78c0.7,0,1.25-0.19,1.64-0.58c0.39-0.39,0.58-0.93,0.58-1.62
			c0-0.44-0.16-0.83-0.49-1.17c-0.32-0.34-1.03-0.76-2.11-1.25c-1.42-0.65-2.36-1.26-2.81-1.83c-0.46-0.57-0.68-1.26-0.68-2.06
			c0-0.99,0.43-1.83,1.28-2.54c0.85-0.71,1.86-1.06,3.03-1.06c0.49,0,1.17,0.08,2.06,0.25c0.49,0.09,0.81,0.14,0.96,0.14
			c0.03,1.11,0.09,2.05,0.18,2.83c0,0.14-0.14,0.21-0.41,0.21c-0.24,0-0.37-0.08-0.4-0.23c-0.1-0.69-0.36-1.24-0.77-1.67
			s-0.9-0.64-1.48-0.64c-1.46,0-2.19,0.64-2.19,1.92c0,0.43,0.17,0.83,0.52,1.2c0.35,0.37,1.1,0.84,2.26,1.42
			c1.38,0.7,2.3,1.3,2.74,1.8C114.32,122.34,114.54,122.91,114.54,123.55z"/>
		<path class="st1" d="M137.6,126.25c0,0.2-0.08,0.31-0.23,0.33c-0.54,0.07-1.16,0.2-1.86,0.39s-1.26,0.39-1.66,0.59
			c-0.21,0.1-0.36,0.16-0.45,0.16c-0.15,0-0.23-0.08-0.23-0.23l0.11-1.52c-1,1.09-2.26,1.63-3.8,1.63c-1.63,0-3.01-0.62-4.15-1.87
			c-1.14-1.25-1.71-2.75-1.71-4.5c0-1.98,0.63-3.59,1.9-4.81c1.26-1.23,2.85-1.84,4.76-1.84c1.09,0,2.09,0.34,3.02,1.01v-4.68
			c0-0.76-0.09-1.26-0.28-1.49s-0.62-0.39-1.3-0.46c-0.15-0.02-0.23-0.14-0.23-0.36c0-0.25,0.08-0.37,0.23-0.37
			c0.89-0.21,1.65-0.46,2.3-0.75s1.09-0.55,1.31-0.78c0.09-0.09,0.19-0.14,0.3-0.14c0.26,0,0.4,0.08,0.4,0.22
			c-0.15,2.05-0.23,3.68-0.23,4.9v12.41c0,0.65,0.09,1.08,0.28,1.3s0.62,0.38,1.3,0.47C137.52,125.88,137.6,126,137.6,126.25z
			 M133.29,124.75v-7.23c0-0.49-0.28-0.95-0.85-1.38c-0.57-0.43-1.19-0.65-1.85-0.65c-2.74,0-4.12,1.93-4.12,5.79
			c0,1.52,0.33,2.79,0.99,3.8c0.66,1.01,1.52,1.51,2.59,1.51c0.61,0,1.17-0.14,1.66-0.42C132.21,125.89,132.73,125.41,133.29,124.75
			z"/>
		<path class="st1" d="M145.68,126.79c0,0.26-0.08,0.39-0.23,0.39c-0.39,0-0.88-0.03-1.48-0.08c-0.67-0.06-1.24-0.08-1.7-0.08
			c-0.47,0-1.03,0.03-1.68,0.08c-0.59,0.06-1.08,0.08-1.47,0.08c-0.15,0-0.23-0.13-0.23-0.39c0-0.23,0.08-0.36,0.23-0.38
			c0.8-0.1,1.31-0.29,1.54-0.58c0.23-0.28,0.35-0.88,0.35-1.8v-5.21c0-0.75-0.1-1.24-0.29-1.48c-0.19-0.23-0.61-0.39-1.26-0.46
			c-0.15,0-0.23-0.12-0.23-0.37c0-0.23,0.07-0.34,0.22-0.34c0.98-0.25,1.79-0.52,2.42-0.81c0.63-0.29,1.02-0.52,1.18-0.71
			c0.09-0.11,0.2-0.17,0.31-0.17c0.26,0,0.39,0.08,0.39,0.23c-0.15,2.1-0.23,3.74-0.23,4.9v4.43c0,0.92,0.11,1.52,0.35,1.8
			c0.23,0.28,0.75,0.47,1.57,0.58C145.6,126.43,145.68,126.56,145.68,126.79z M143.7,109.75c0,0.39-0.14,0.74-0.43,1.03
			c-0.29,0.29-0.63,0.44-1.04,0.44s-0.75-0.15-1.04-0.44c-0.29-0.29-0.43-0.63-0.43-1.03c0-0.41,0.14-0.76,0.42-1.04
			c0.28-0.28,0.63-0.42,1.04-0.42c0.4,0,0.75,0.14,1.04,0.42C143.56,108.99,143.7,109.34,143.7,109.75z"/>
		<path class="st1" d="M159.48,115.43c0,0.24-0.08,0.37-0.23,0.39c-0.79,0.08-1.32,0.27-1.59,0.57c-0.27,0.29-0.6,0.9-1.01,1.81
			l-4.04,9.22c-0.07,0.15-0.18,0.23-0.34,0.23c-0.17,0-0.29-0.08-0.35-0.23l-3.79-9.22c-0.35-0.86-0.7-1.46-1.06-1.78
			s-0.84-0.52-1.45-0.61c-0.15-0.02-0.23-0.15-0.23-0.38c0-0.26,0.07-0.39,0.22-0.39c0.37,0,0.84,0.03,1.39,0.08
			c0.6,0.06,1.12,0.08,1.56,0.08c0.45,0,0.99-0.03,1.63-0.08c0.57-0.06,1.05-0.08,1.44-0.08c0.15,0,0.23,0.13,0.23,0.39
			c0,0.23-0.08,0.36-0.23,0.38c-0.56,0.08-0.95,0.18-1.16,0.3s-0.32,0.31-0.32,0.56c0,0.29,0.14,0.79,0.41,1.51l2.28,5.55l2.34-5.53
			c0.29-0.7,0.44-1.21,0.44-1.52c0-0.24-0.11-0.43-0.33-0.56c-0.22-0.13-0.59-0.23-1.13-0.3c-0.15-0.02-0.23-0.15-0.23-0.38
			c0-0.26,0.08-0.39,0.23-0.39c0.39,0,0.84,0.03,1.34,0.08c0.48,0.06,0.91,0.08,1.3,0.08c0.2,0,0.52-0.02,0.96-0.07
			c0.61-0.07,1.1-0.1,1.48-0.1C159.4,115.04,159.48,115.17,159.48,115.43z"/>
		<path class="st1" d="M170.73,119.18c0,0.26-0.17,0.39-0.51,0.39h-7.72c-0.06,0.51-0.08,1.03-0.08,1.58c0,1.51,0.36,2.67,1.08,3.49
			c0.72,0.81,1.74,1.22,3.07,1.22c0.67,0,1.34-0.18,2.02-0.54c0.68-0.36,1.22-0.81,1.63-1.37l0.07-0.03c0.08,0,0.17,0.05,0.25,0.15
			c0.08,0.1,0.12,0.23,0.12,0.37c0,0.2-0.3,0.61-0.9,1.23c-0.6,0.62-1.25,1.1-1.96,1.43s-1.44,0.49-2.21,0.49
			c-1.69,0-3.11-0.62-4.27-1.86c-1.16-1.24-1.73-2.76-1.73-4.57c0-1.84,0.57-3.4,1.7-4.68c1.13-1.28,2.57-1.92,4.31-1.92
			c1.46,0,2.68,0.48,3.67,1.43C170.23,116.97,170.73,118.03,170.73,119.18z M168.16,117.94c0-0.7-0.24-1.29-0.73-1.75
			s-1.11-0.7-1.87-0.7c-0.72,0-1.35,0.3-1.88,0.91c-0.53,0.61-0.89,1.4-1.08,2.39l3.92-0.11c0.59-0.01,1.01-0.07,1.26-0.17
			S168.16,118.21,168.16,117.94z"/>
		<path class="st1" d="M181.79,116c0,0.38-0.12,0.7-0.35,0.96c-0.23,0.26-0.51,0.39-0.84,0.39c-0.41,0-0.82-0.14-1.23-0.41
			c-0.32-0.22-0.6-0.32-0.83-0.32c-0.61,0-1.24,0.36-1.89,1.07v6.34c0,0.82,0.14,1.39,0.42,1.71c0.28,0.32,0.88,0.55,1.8,0.67
			c0.15,0.02,0.23,0.15,0.23,0.38c0,0.26-0.08,0.39-0.23,0.39c-0.39,0-0.93-0.03-1.63-0.08c-0.78-0.06-1.4-0.08-1.85-0.08
			c-0.47,0-1.03,0.03-1.7,0.08c-0.6,0.06-1.09,0.08-1.48,0.08c-0.15,0-0.23-0.13-0.23-0.39c0-0.23,0.08-0.36,0.23-0.38
			c0.82-0.1,1.34-0.29,1.57-0.58c0.23-0.28,0.35-0.88,0.35-1.8v-5.21c0-0.75-0.1-1.24-0.29-1.48c-0.19-0.23-0.62-0.39-1.29-0.46
			c-0.15,0-0.23-0.12-0.23-0.37c0-0.23,0.08-0.34,0.23-0.34c0.93-0.23,1.7-0.5,2.3-0.78c0.6-0.29,1-0.53,1.19-0.74
			c0.11-0.11,0.22-0.17,0.34-0.17c0.26,0,0.39,0.08,0.39,0.23l-0.11,1.78c0.75-0.7,1.4-1.18,1.94-1.47
			c0.54-0.28,1.08-0.42,1.61-0.42c0.43,0,0.8,0.14,1.11,0.42C181.63,115.29,181.79,115.62,181.79,116z"/>
		<path class="st1" d="M191.65,123.55c0,1.15-0.45,2.11-1.35,2.89c-0.9,0.78-1.99,1.17-3.26,1.17c-0.45,0-1.14-0.1-2.08-0.3
			c-0.7-0.14-1.18-0.21-1.44-0.21c-0.08-0.66-0.25-1.66-0.52-3c0-0.14,0.14-0.21,0.41-0.21c0.23,0,0.36,0.08,0.41,0.23
			c0.22,0.7,0.64,1.3,1.28,1.82c0.64,0.52,1.3,0.78,1.97,0.78c0.7,0,1.25-0.19,1.64-0.58c0.39-0.39,0.58-0.93,0.58-1.62
			c0-0.44-0.16-0.83-0.49-1.17c-0.32-0.34-1.03-0.76-2.11-1.25c-1.42-0.65-2.36-1.26-2.81-1.83c-0.46-0.57-0.68-1.26-0.68-2.06
			c0-0.99,0.43-1.83,1.28-2.54c0.85-0.71,1.86-1.06,3.03-1.06c0.49,0,1.17,0.08,2.06,0.25c0.49,0.09,0.81,0.14,0.96,0.14
			c0.03,1.11,0.09,2.05,0.18,2.83c0,0.14-0.14,0.21-0.41,0.21c-0.24,0-0.37-0.08-0.4-0.23c-0.1-0.69-0.36-1.24-0.77-1.67
			s-0.9-0.64-1.48-0.64c-1.46,0-2.19,0.64-2.19,1.92c0,0.43,0.17,0.83,0.52,1.2c0.35,0.37,1.1,0.84,2.26,1.42
			c1.38,0.7,2.3,1.3,2.74,1.8C191.43,122.34,191.65,122.91,191.65,123.55z"/>
		<path class="st1" d="M204.51,119.18c0,0.26-0.17,0.39-0.51,0.39h-7.72c-0.06,0.51-0.08,1.03-0.08,1.58c0,1.51,0.36,2.67,1.08,3.49
			c0.72,0.81,1.74,1.22,3.07,1.22c0.67,0,1.34-0.18,2.02-0.54c0.68-0.36,1.22-0.81,1.63-1.37l0.07-0.03c0.08,0,0.17,0.05,0.25,0.15
			c0.08,0.1,0.12,0.23,0.12,0.37c0,0.2-0.3,0.61-0.9,1.23c-0.6,0.62-1.25,1.1-1.96,1.43s-1.44,0.49-2.21,0.49
			c-1.69,0-3.11-0.62-4.27-1.86c-1.16-1.24-1.73-2.76-1.73-4.57c0-1.84,0.57-3.4,1.7-4.68c1.13-1.28,2.57-1.92,4.31-1.92
			c1.46,0,2.68,0.48,3.67,1.43C204.02,116.97,204.51,118.03,204.51,119.18z M201.95,117.94c0-0.7-0.24-1.29-0.73-1.75
			s-1.11-0.7-1.87-0.7c-0.72,0-1.35,0.3-1.88,0.91c-0.53,0.61-0.89,1.4-1.08,2.39l3.92-0.11c0.59-0.01,1.01-0.07,1.26-0.17
			S201.95,118.21,201.95,117.94z"/>
		<path class="st1" d="M222.65,127.5c-0.52,0-0.98-0.13-1.37-0.39c-0.39-0.26-0.65-0.61-0.79-1.05c-1,1.03-2.32,1.55-3.95,1.55
			c-0.85,0-1.54-0.26-2.07-0.78c-0.54-0.52-0.8-1.17-0.8-1.95c0-1.93,2.28-3.49,6.85-4.68l0.08-2.2v-0.07c0-0.68-0.17-1.21-0.5-1.61
			c-0.33-0.4-0.78-0.6-1.33-0.6c-0.55,0-1.02,0.13-1.41,0.4c-0.39,0.27-0.58,0.6-0.59,1.01c-0.01,0.6-0.17,1.07-0.47,1.41
			c-0.31,0.34-0.71,0.51-1.22,0.51c-0.3,0-0.54-0.09-0.73-0.27c-0.19-0.18-0.28-0.42-0.28-0.72c0-0.72,0.66-1.48,1.97-2.28
			s2.54-1.19,3.66-1.19c1.01,0,1.84,0.3,2.47,0.9c0.63,0.6,0.94,1.41,0.94,2.42v0.17l-0.21,6.37v0.1c0,0.99,0.32,1.48,0.96,1.48
			c0.31,0,0.67-0.19,1.09-0.56l0.1-0.03c0.07,0,0.15,0.05,0.21,0.15s0.1,0.21,0.1,0.32c0,0.27-0.28,0.61-0.85,1
			C223.94,127.3,223.32,127.5,222.65,127.5z M220.5,121.14c-2.73,0.62-4.1,1.65-4.1,3.08c0,1.34,0.51,2.01,1.54,2.01
			c0.5,0,0.99-0.12,1.47-0.37c0.48-0.25,0.81-0.56,0.98-0.93L220.5,121.14z"/>
		<path class="st1" d="M235.27,123.55c0,1.15-0.45,2.11-1.35,2.89c-0.9,0.78-1.99,1.17-3.26,1.17c-0.45,0-1.14-0.1-2.08-0.3
			c-0.7-0.14-1.18-0.21-1.44-0.21c-0.08-0.66-0.25-1.66-0.52-3c0-0.14,0.14-0.21,0.41-0.21c0.22,0,0.36,0.08,0.41,0.23
			c0.22,0.7,0.64,1.3,1.28,1.82s1.3,0.78,1.97,0.78c0.7,0,1.25-0.19,1.64-0.58c0.39-0.39,0.58-0.93,0.58-1.62
			c0-0.44-0.16-0.83-0.49-1.17c-0.32-0.34-1.03-0.76-2.11-1.25c-1.42-0.65-2.36-1.26-2.81-1.83c-0.46-0.57-0.68-1.26-0.68-2.06
			c0-0.99,0.43-1.83,1.28-2.54c0.85-0.71,1.86-1.06,3.03-1.06c0.49,0,1.17,0.08,2.06,0.25c0.49,0.09,0.81,0.14,0.96,0.14
			c0.03,1.11,0.09,2.05,0.18,2.83c0,0.14-0.14,0.21-0.41,0.21c-0.24,0-0.37-0.08-0.39-0.23c-0.1-0.69-0.36-1.24-0.77-1.67
			s-0.9-0.64-1.47-0.64c-1.46,0-2.19,0.64-2.19,1.92c0,0.43,0.17,0.83,0.52,1.2c0.35,0.37,1.1,0.84,2.26,1.42
			c1.38,0.7,2.3,1.3,2.74,1.8C235.05,122.34,235.27,122.91,235.27,123.55z"/>
		<path class="st1" d="M256.97,115.43c0,0.24-0.08,0.37-0.23,0.39c-0.64,0.07-1.13,0.25-1.47,0.56c-0.34,0.31-0.72,0.91-1.13,1.82
			l-6.65,14.37c-0.74,1.54-1.61,2.31-2.59,2.31c-0.48,0-0.86-0.13-1.15-0.39c-0.29-0.26-0.43-0.59-0.43-0.99
			c0-0.42,0.13-0.77,0.39-1.04c0.26-0.27,0.6-0.4,1.03-0.4c0.2,0,0.43,0.07,0.7,0.21c0.17,0.08,0.29,0.13,0.37,0.13
			c0.31,0,0.68-0.53,1.1-1.58l1.76-3.8l-3.29-8.82c-0.35-0.86-0.7-1.45-1.05-1.78c-0.35-0.33-0.83-0.53-1.43-0.6
			c-0.15-0.02-0.23-0.15-0.23-0.39c0-0.26,0.07-0.39,0.21-0.39c0.36,0,0.81,0.03,1.33,0.08c0.59,0.06,1.1,0.08,1.55,0.08
			c0.44,0,0.98-0.03,1.63-0.08c0.6-0.06,1.09-0.08,1.47-0.08c0.15,0,0.23,0.13,0.23,0.39c0,0.24-0.08,0.37-0.23,0.39
			c-0.98,0.12-1.47,0.41-1.47,0.85c0,0.31,0.13,0.82,0.39,1.53l2.27,5.82l2.69-5.82c0.23-0.54,0.35-0.98,0.35-1.32
			c0-0.59-0.45-0.94-1.36-1.06c-0.15-0.02-0.23-0.15-0.23-0.38c0-0.26,0.08-0.39,0.23-0.39c0.39,0,0.83,0.03,1.32,0.08
			c0.48,0.06,0.91,0.08,1.29,0.08c0.19,0,0.51-0.02,0.95-0.07c0.6-0.07,1.08-0.1,1.45-0.1
			C256.89,115.04,256.97,115.17,256.97,115.43z"/>
		<path class="st1" d="M269.97,121.18c0,1.87-0.61,3.41-1.83,4.62s-2.8,1.81-4.73,1.81s-3.52-0.61-4.74-1.82
			c-1.22-1.21-1.83-2.75-1.83-4.61c0-1.89,0.62-3.46,1.85-4.71c1.23-1.25,2.81-1.88,4.73-1.88c1.93,0,3.5,0.62,4.73,1.87
			C269.36,117.71,269.97,119.28,269.97,121.18z M267.13,121.15c0-1.72-0.33-3.09-0.99-4.12c-0.66-1.03-1.57-1.54-2.73-1.54
			c-1.15,0-2.05,0.52-2.72,1.55s-1,2.41-1,4.12c0,1.7,0.33,3.05,0.99,4.05c0.66,1,1.57,1.5,2.73,1.5s2.08-0.5,2.73-1.49
			C266.8,124.23,267.13,122.87,267.13,121.15z"/>
		<path class="st1" d="M284.96,126.26c0,0.2-0.08,0.31-0.23,0.33c-1.71,0.19-2.88,0.51-3.51,0.97c-0.13,0.1-0.26,0.15-0.39,0.15
			c-0.19,0-0.28-0.08-0.28-0.23l0.11-1.78c-1.39,1.26-2.65,1.89-3.78,1.89c-1.29,0-2.29-0.36-3.01-1.09
			c-0.72-0.73-1.08-1.72-1.08-2.97v-5.28c0-0.84-0.11-1.39-0.32-1.67c-0.22-0.27-0.64-0.41-1.28-0.41c-0.12,0-0.26,0-0.41,0.01
			c-0.14,0-0.21-0.12-0.21-0.36c0-0.3,0.08-0.44,0.23-0.44c1.09,0,2.51-0.21,4.27-0.63c0.17,0,0.25,0.12,0.25,0.35v7.75
			c0,1.06,0.2,1.83,0.61,2.32c0.41,0.48,1.04,0.73,1.91,0.73c0.56,0,1.05-0.1,1.47-0.31s0.88-0.57,1.36-1.1v-6.24
			c0-0.83-0.11-1.38-0.33-1.66s-0.66-0.42-1.32-0.42c-0.11,0-0.24,0-0.39,0.01c-0.14,0-0.21-0.12-0.21-0.36
			c0-0.3,0.08-0.44,0.23-0.44c1.09,0,2.52-0.21,4.28-0.63c0.17,0,0.25,0.12,0.25,0.35v8.99c0,0.65,0.09,1.08,0.27,1.3
			s0.61,0.38,1.29,0.47C284.89,125.89,284.96,126.01,284.96,126.26z"/>
		<path class="st1" d="M296.11,116c0,0.38-0.12,0.7-0.35,0.96c-0.23,0.26-0.51,0.39-0.84,0.39c-0.41,0-0.82-0.14-1.23-0.41
			c-0.32-0.22-0.6-0.32-0.83-0.32c-0.61,0-1.24,0.36-1.89,1.07v6.34c0,0.82,0.14,1.39,0.42,1.71c0.28,0.32,0.88,0.55,1.8,0.67
			c0.15,0.02,0.23,0.15,0.23,0.38c0,0.26-0.08,0.39-0.23,0.39c-0.39,0-0.93-0.03-1.63-0.08c-0.78-0.06-1.4-0.08-1.85-0.08
			c-0.47,0-1.03,0.03-1.7,0.08c-0.6,0.06-1.09,0.08-1.48,0.08c-0.15,0-0.23-0.13-0.23-0.39c0-0.23,0.08-0.36,0.23-0.38
			c0.82-0.1,1.34-0.29,1.57-0.58s0.35-0.88,0.35-1.8v-5.21c0-0.75-0.1-1.24-0.29-1.48c-0.19-0.23-0.62-0.39-1.29-0.46
			c-0.15,0-0.23-0.12-0.23-0.37c0-0.23,0.08-0.34,0.23-0.34c0.93-0.23,1.7-0.5,2.3-0.78c0.6-0.29,1-0.53,1.19-0.74
			c0.11-0.11,0.22-0.17,0.34-0.17c0.26,0,0.39,0.08,0.39,0.23l-0.11,1.78c0.75-0.7,1.4-1.18,1.94-1.47
			c0.54-0.28,1.08-0.42,1.61-0.42c0.43,0,0.8,0.14,1.11,0.42C295.96,115.29,296.11,115.62,296.11,116z"/>
		<path class="st1" d="M310.66,126.79c0,0.26-0.08,0.39-0.23,0.39c-0.38,0-0.88-0.03-1.48-0.08c-0.67-0.06-1.24-0.08-1.7-0.08
			c-0.47,0-1.03,0.03-1.68,0.08c-0.59,0.06-1.08,0.08-1.47,0.08c-0.15,0-0.23-0.13-0.23-0.39c0-0.23,0.08-0.36,0.23-0.38
			c0.8-0.1,1.31-0.29,1.54-0.58s0.35-0.88,0.35-1.8v-5.21c0-0.75-0.1-1.24-0.29-1.48c-0.19-0.23-0.61-0.39-1.26-0.46
			c-0.15,0-0.23-0.12-0.23-0.37c0-0.23,0.08-0.34,0.23-0.34c0.98-0.25,1.79-0.52,2.42-0.81c0.63-0.29,1.02-0.52,1.18-0.71
			c0.09-0.11,0.2-0.17,0.31-0.17c0.26,0,0.39,0.08,0.39,0.23c-0.15,2.1-0.23,3.74-0.23,4.9v4.43c0,0.92,0.11,1.52,0.34,1.8
			c0.23,0.28,0.75,0.47,1.57,0.58C310.58,126.43,310.66,126.56,310.66,126.79z M308.68,109.75c0,0.39-0.14,0.74-0.43,1.03
			c-0.29,0.29-0.63,0.44-1.04,0.44s-0.75-0.15-1.04-0.44c-0.29-0.29-0.43-0.63-0.43-1.03c0-0.41,0.14-0.76,0.42-1.04
			c0.28-0.28,0.63-0.42,1.04-0.42c0.4,0,0.75,0.14,1.04,0.42C308.54,108.99,308.68,109.34,308.68,109.75z"/>
		<path class="st1" d="M326.64,126.79c0,0.26-0.08,0.39-0.23,0.39c-0.38,0-0.84-0.03-1.38-0.08c-0.6-0.06-1.13-0.08-1.59-0.08
			c-0.47,0-1.01,0.03-1.62,0.08c-0.55,0.06-1.02,0.08-1.39,0.08c-0.15,0-0.22-0.13-0.22-0.39c0-0.23,0.08-0.36,0.23-0.38
			c0.65-0.07,1.07-0.26,1.28-0.55c0.2-0.29,0.3-0.9,0.3-1.83v-4.71c0-1.05-0.21-1.82-0.62-2.31c-0.41-0.49-1.05-0.73-1.92-0.73
			c-0.54,0-1.03,0.1-1.44,0.31c-0.42,0.21-0.87,0.57-1.35,1.1v6.34c0,0.93,0.1,1.54,0.3,1.83s0.63,0.47,1.28,0.55
			c0.15,0.02,0.23,0.15,0.23,0.38c0,0.26-0.08,0.39-0.23,0.39c-0.38,0-0.85-0.03-1.41-0.08c-0.61-0.06-1.15-0.08-1.61-0.08
			c-0.45,0-0.98,0.03-1.58,0.08c-0.55,0.06-1.02,0.08-1.41,0.08c-0.15,0-0.23-0.13-0.23-0.39c0-0.23,0.08-0.36,0.23-0.38
			c0.81-0.1,1.33-0.3,1.56-0.58c0.24-0.29,0.35-0.88,0.35-1.79v-5.21c0-0.75-0.1-1.24-0.29-1.48s-0.62-0.39-1.29-0.46
			c-0.15,0-0.23-0.12-0.23-0.37c0-0.23,0.08-0.34,0.23-0.34c0.93-0.23,1.71-0.5,2.33-0.8s1.01-0.54,1.17-0.73
			c0.09-0.11,0.2-0.17,0.31-0.17c0.26,0,0.39,0.08,0.39,0.23l-0.11,1.78c1.35-1.26,2.61-1.89,3.77-1.89c1.28,0,2.27,0.37,2.99,1.1
			c0.72,0.73,1.08,1.72,1.08,2.96v5.38c0,0.92,0.11,1.52,0.34,1.8c0.23,0.28,0.74,0.47,1.54,0.58
			C326.57,126.43,326.64,126.56,326.64,126.79z"/>
		<path class="st1" d="M335.8,115.97c0,0.51-0.12,0.76-0.37,0.76l-4.2-0.11v6.76c0,1.77,0.63,2.65,1.89,2.65
			c0.78,0,1.49-0.18,2.13-0.55c0.07,0,0.14,0.05,0.2,0.15c0.06,0.1,0.09,0.2,0.09,0.32c0,0.24-0.35,0.55-1.05,0.95
			c-0.7,0.4-1.48,0.6-2.36,0.6c-1.07,0-1.92-0.33-2.56-0.98c-0.64-0.65-0.96-1.52-0.96-2.59v-0.13l0.06-6.85
			c0-0.26-0.11-0.39-0.34-0.39h-1.07c-0.21,0-0.31-0.12-0.31-0.36c0-0.18,0.08-0.32,0.25-0.42c1.3-0.77,2.43-1.86,3.4-3.27
			c0.1-0.15,0.23-0.23,0.39-0.23c0.26,0,0.39,0.08,0.39,0.23l-0.11,2.69h4.14C335.68,115.21,335.8,115.46,335.8,115.97z"/>
		<path class="st1" d="M347.97,119.18c0,0.26-0.17,0.39-0.51,0.39h-7.72c-0.06,0.51-0.08,1.03-0.08,1.58c0,1.51,0.36,2.67,1.08,3.49
			c0.72,0.81,1.74,1.22,3.07,1.22c0.67,0,1.34-0.18,2.02-0.54c0.68-0.36,1.22-0.81,1.63-1.37l0.07-0.03c0.08,0,0.17,0.05,0.25,0.15
			c0.08,0.1,0.12,0.23,0.12,0.37c0,0.2-0.3,0.61-0.9,1.23c-0.6,0.62-1.25,1.1-1.96,1.43c-0.7,0.33-1.44,0.49-2.21,0.49
			c-1.69,0-3.11-0.62-4.27-1.86c-1.16-1.24-1.73-2.76-1.73-4.57c0-1.84,0.57-3.4,1.7-4.68c1.13-1.28,2.57-1.92,4.31-1.92
			c1.46,0,2.68,0.48,3.67,1.43C347.47,116.97,347.97,118.03,347.97,119.18z M345.4,117.94c0-0.7-0.24-1.29-0.73-1.75
			c-0.48-0.46-1.11-0.7-1.87-0.7c-0.72,0-1.35,0.3-1.88,0.91c-0.53,0.61-0.89,1.4-1.08,2.39l3.92-0.11
			c0.59-0.01,1.01-0.07,1.26-0.17C345.28,118.4,345.4,118.21,345.4,117.94z"/>
		<path class="st1" d="M359.03,116c0,0.38-0.12,0.7-0.35,0.96c-0.23,0.26-0.51,0.39-0.84,0.39c-0.41,0-0.82-0.14-1.23-0.41
			c-0.32-0.22-0.6-0.32-0.83-0.32c-0.61,0-1.24,0.36-1.89,1.07v6.34c0,0.82,0.14,1.39,0.42,1.71c0.28,0.32,0.88,0.55,1.8,0.67
			c0.15,0.02,0.23,0.15,0.23,0.38c0,0.26-0.08,0.39-0.23,0.39c-0.39,0-0.93-0.03-1.63-0.08c-0.78-0.06-1.4-0.08-1.85-0.08
			c-0.47,0-1.03,0.03-1.7,0.08c-0.6,0.06-1.09,0.08-1.48,0.08c-0.15,0-0.23-0.13-0.23-0.39c0-0.23,0.08-0.36,0.23-0.38
			c0.82-0.1,1.34-0.29,1.57-0.58s0.35-0.88,0.35-1.8v-5.21c0-0.75-0.1-1.24-0.29-1.48c-0.19-0.23-0.62-0.39-1.29-0.46
			c-0.15,0-0.23-0.12-0.23-0.37c0-0.23,0.08-0.34,0.23-0.34c0.93-0.23,1.7-0.5,2.3-0.78c0.6-0.29,1-0.53,1.19-0.74
			c0.11-0.11,0.22-0.17,0.34-0.17c0.26,0,0.39,0.08,0.39,0.23l-0.11,1.78c0.75-0.7,1.4-1.18,1.94-1.47
			c0.54-0.28,1.08-0.42,1.61-0.42c0.43,0,0.8,0.14,1.11,0.42C358.87,115.29,359.03,115.62,359.03,116z"/>
		<path class="st1" d="M370.89,119.18c0,0.26-0.17,0.39-0.51,0.39h-7.72c-0.06,0.51-0.08,1.03-0.08,1.58c0,1.51,0.36,2.67,1.08,3.49
			c0.72,0.81,1.74,1.22,3.07,1.22c0.67,0,1.34-0.18,2.02-0.54c0.68-0.36,1.22-0.81,1.63-1.37l0.07-0.03c0.08,0,0.17,0.05,0.25,0.15
			c0.08,0.1,0.12,0.23,0.12,0.37c0,0.2-0.3,0.61-0.9,1.23c-0.6,0.62-1.25,1.1-1.96,1.43c-0.7,0.33-1.44,0.49-2.21,0.49
			c-1.69,0-3.11-0.62-4.27-1.86c-1.16-1.24-1.73-2.76-1.73-4.57c0-1.84,0.57-3.4,1.7-4.68c1.13-1.28,2.57-1.92,4.31-1.92
			c1.46,0,2.68,0.48,3.67,1.43C370.4,116.97,370.89,118.03,370.89,119.18z M368.33,117.94c0-0.7-0.24-1.29-0.73-1.75
			c-0.48-0.46-1.11-0.7-1.87-0.7c-0.72,0-1.35,0.3-1.88,0.91c-0.53,0.61-0.89,1.4-1.08,2.39l3.92-0.11
			c0.59-0.01,1.01-0.07,1.26-0.17C368.2,118.4,368.33,118.21,368.33,117.94z"/>
		<path class="st1" d="M381.58,123.55c0,1.15-0.45,2.11-1.35,2.89c-0.9,0.78-1.99,1.17-3.26,1.17c-0.45,0-1.14-0.1-2.08-0.3
			c-0.7-0.14-1.18-0.21-1.44-0.21c-0.08-0.66-0.25-1.66-0.52-3c0-0.14,0.14-0.21,0.41-0.21c0.22,0,0.36,0.08,0.41,0.23
			c0.22,0.7,0.64,1.3,1.28,1.82s1.3,0.78,1.97,0.78c0.7,0,1.25-0.19,1.64-0.58c0.39-0.39,0.58-0.93,0.58-1.62
			c0-0.44-0.16-0.83-0.49-1.17c-0.32-0.34-1.03-0.76-2.11-1.25c-1.42-0.65-2.36-1.26-2.81-1.83c-0.46-0.57-0.68-1.26-0.68-2.06
			c0-0.99,0.43-1.83,1.28-2.54c0.85-0.71,1.86-1.06,3.03-1.06c0.49,0,1.17,0.08,2.06,0.25c0.49,0.09,0.81,0.14,0.96,0.14
			c0.03,1.11,0.09,2.05,0.18,2.83c0,0.14-0.14,0.21-0.41,0.21c-0.24,0-0.37-0.08-0.39-0.23c-0.1-0.69-0.36-1.24-0.77-1.67
			s-0.9-0.64-1.47-0.64c-1.46,0-2.19,0.64-2.19,1.92c0,0.43,0.17,0.83,0.52,1.2c0.35,0.37,1.1,0.84,2.26,1.42
			c1.38,0.7,2.3,1.3,2.74,1.8C381.36,122.34,381.58,122.91,381.58,123.55z"/>
		<path class="st1" d="M391.65,115.97c0,0.51-0.12,0.76-0.37,0.76l-4.2-0.11v6.76c0,1.77,0.63,2.65,1.89,2.65
			c0.78,0,1.49-0.18,2.13-0.55c0.07,0,0.14,0.05,0.2,0.15c0.06,0.1,0.09,0.2,0.09,0.32c0,0.24-0.35,0.55-1.05,0.95
			c-0.7,0.4-1.48,0.6-2.36,0.6c-1.07,0-1.92-0.33-2.56-0.98c-0.64-0.65-0.96-1.52-0.96-2.59v-0.13l0.06-6.85
			c0-0.26-0.11-0.39-0.34-0.39h-1.07c-0.21,0-0.31-0.12-0.31-0.36c0-0.18,0.08-0.32,0.25-0.42c1.3-0.77,2.43-1.86,3.4-3.27
			c0.1-0.15,0.23-0.23,0.39-0.23c0.26,0,0.39,0.08,0.39,0.23l-0.11,2.69h4.14C391.53,115.21,391.65,115.46,391.65,115.97z"/>
		<path class="st1" d="M401.84,123.55c0,1.15-0.45,2.11-1.35,2.89c-0.9,0.78-1.99,1.17-3.26,1.17c-0.45,0-1.14-0.1-2.08-0.3
			c-0.7-0.14-1.18-0.21-1.44-0.21c-0.08-0.66-0.25-1.66-0.52-3c0-0.14,0.14-0.21,0.41-0.21c0.22,0,0.36,0.08,0.41,0.23
			c0.22,0.7,0.64,1.3,1.28,1.82s1.3,0.78,1.97,0.78c0.7,0,1.25-0.19,1.64-0.58c0.39-0.39,0.58-0.93,0.58-1.62
			c0-0.44-0.16-0.83-0.49-1.17c-0.32-0.34-1.03-0.76-2.11-1.25c-1.42-0.65-2.36-1.26-2.81-1.83c-0.46-0.57-0.68-1.26-0.68-2.06
			c0-0.99,0.43-1.83,1.28-2.54c0.85-0.71,1.86-1.06,3.03-1.06c0.49,0,1.17,0.08,2.06,0.25c0.49,0.09,0.81,0.14,0.96,0.14
			c0.03,1.11,0.09,2.05,0.18,2.83c0,0.14-0.14,0.21-0.41,0.21c-0.24,0-0.37-0.08-0.39-0.23c-0.1-0.69-0.36-1.24-0.77-1.67
			s-0.9-0.64-1.47-0.64c-1.46,0-2.19,0.64-2.19,1.92c0,0.43,0.17,0.83,0.52,1.2c0.35,0.37,1.1,0.84,2.26,1.42
			c1.38,0.7,2.3,1.3,2.74,1.8C401.62,122.34,401.84,122.91,401.84,123.55z"/>
	</g>
</g>
<g>
	<circle class="st1" cx="332.66" cy="67.89" r="28.36"/>
	<g>
		<defs>
			<path id="SVGID_1_" d="M332.66,67.89V39.53c-5.17,0-10,1.4-14.17,3.82L332.66,67.89z"/>
		</defs>
		<clipPath id="SVGID_2_">
			<use xlink:href="#SVGID_1_"  style="overflow:visible;"/>
		</clipPath>
		<polygon class="st2" points="332.66,67.89 332.66,54.18 330.73,57.13 		"/>
		<polygon class="st3" points="324.99,39.53 320.37,46.6 318.54,43.43 		"/>
		<polygon class="st3" points="332.4,61.75 324.79,58.1 327.69,55.87 		"/>
		<polygon class="st2" points="323.09,47.54 334.6,42.31 324.48,53.74 		"/>
		<polygon class="st3" points="328.85,44.1 327.34,52.58 332.66,55.43 332.66,51.86 		"/>
		<polygon class="st2" points="330.64,54.96 326.44,56.55 330.75,49.77 		"/>
		<polygon class="st2" points="326.22,40.95 329.8,43.67 321.76,43.62 		"/>
		<polygon class="st3" points="328.02,38.56 330.73,44.81 333.85,38.56 		"/>
		<polygon class="st3" points="326.45,44.1 323.13,46.22 326.45,48.66 		"/>
	</g>
	<g>
		<defs>
			<path id="SVGID_3_" d="M332.66,67.89V39.53c5.17,0,10,1.4,14.17,3.82L332.66,67.89z"/>
		</defs>
		<clipPath id="SVGID_4_">
			<use xlink:href="#SVGID_3_"  style="overflow:visible;"/>
		</clipPath>
		<polygon class="st4" points="332.66,67.89 332.66,54.18 334.6,57.13 		"/>
		<polygon class="st5" points="340.34,39.53 344.95,46.6 346.79,43.43 		"/>
		<polygon class="st5" points="332.93,61.75 340.53,58.1 337.63,55.87 		"/>
		<polygon class="st4" points="342.23,47.54 330.73,42.31 340.85,53.74 		"/>
		<polygon class="st5" points="336.47,44.1 337.99,52.58 332.66,55.43 332.66,51.86 		"/>
		<polygon class="st4" points="334.68,54.96 338.89,56.55 334.57,49.77 		"/>
		<polygon class="st4" points="339.1,40.95 335.52,43.67 343.56,43.62 		"/>
		<polygon class="st5" points="337.31,38.56 334.6,44.81 331.47,38.56 		"/>
		<polygon class="st5" points="338.87,44.1 342.19,46.22 338.87,48.66 		"/>
	</g>
	<g>
		<defs>
			<path id="SVGID_5_" d="M332.66,67.89v28.36c5.17,0,10-1.4,14.17-3.82L332.66,67.89z"/>
		</defs>
		<clipPath id="SVGID_6_">
			<use xlink:href="#SVGID_5_"  style="overflow:visible;"/>
		</clipPath>
		<polygon class="st6" points="332.66,67.89 332.66,81.6 334.6,78.65 		"/>
		<polygon class="st7" points="340.34,96.25 344.95,89.19 346.79,92.36 		"/>
		<polygon class="st7" points="332.93,74.03 340.53,77.68 337.63,79.92 		"/>
		<polygon class="st6" points="342.23,88.24 330.73,93.47 340.85,82.05 		"/>
		<polygon class="st7" points="336.47,91.69 337.99,83.21 332.66,80.35 332.66,83.92 		"/>
		<polygon class="st6" points="334.68,80.82 338.89,79.24 334.57,86.02 		"/>
		<polygon class="st6" points="339.1,94.83 335.52,92.12 343.56,92.16 		"/>
		<polygon class="st7" points="337.31,97.22 334.6,90.97 331.47,97.22 		"/>
		<polygon class="st7" points="338.87,91.69 342.19,89.57 338.87,87.12 		"/>
	</g>
	<g>
		<defs>
			<path id="SVGID_7_" d="M332.66,67.89v28.36c-5.17,0-10-1.4-14.17-3.82L332.66,67.89z"/>
		</defs>
		<clipPath id="SVGID_8_">
			<use xlink:href="#SVGID_7_"  style="overflow:visible;"/>
		</clipPath>
		<polygon class="st8" points="332.66,67.89 332.66,81.6 330.73,78.65 		"/>
		<polygon class="st9" points="324.99,96.25 320.37,89.19 318.54,92.36 		"/>
		<polygon class="st9" points="332.4,74.03 324.79,77.68 327.69,79.92 		"/>
		<polygon class="st8" points="323.09,88.24 334.6,93.47 324.48,82.05 		"/>
		<polygon class="st9" points="328.85,91.69 327.34,83.21 332.66,80.35 332.66,83.92 		"/>
		<polygon class="st8" points="330.64,80.82 326.44,79.24 330.75,86.02 		"/>
		<polygon class="st8" points="326.22,94.83 329.8,92.12 321.76,92.16 		"/>
		<polygon class="st9" points="328.02,97.22 330.73,90.97 333.85,97.22 		"/>
		<polygon class="st9" points="326.45,91.69 323.13,89.57 326.45,87.12 		"/>
	</g>
	<g>
		<defs>
			<path id="SVGID_9_" d="M332.66,67.89L308.1,53.71c-2.58,4.47-3.78,9.36-3.78,14.18L332.66,67.89z"/>
		</defs>
		<clipPath id="SVGID_10_">
			<use xlink:href="#SVGID_9_"  style="overflow:visible;"/>
		</clipPath>
		<polygon class="st10" points="332.66,67.89 320.79,61.04 322.38,64.19 		"/>
		<polygon class="st11" points="304.27,60.36 308.07,67.89 304.41,67.89 		"/>
		<polygon class="st11" points="327.21,65.05 320.25,69.81 319.76,66.19 		"/>
		<polygon class="st10" points="310.25,66 311.47,53.43 316.31,67.9 		"/>
		<polygon class="st11" points="310.15,59.29 316.74,64.85 321.87,61.66 318.78,59.88 		"/>
		<polygon class="st10" points="320.45,63.18 319.72,67.61 316.01,60.48 		"/>
		<polygon class="st10" points="306.11,60 310.25,58.26 306.19,65.19 		"/>
		<polygon class="st11" points="304.94,57.25 311.71,58.02 307.86,52.19 		"/>
		<polygon class="st11" points="308.95,61.37 309.12,65.31 312.9,63.65 		"/>
	</g>
	<g>
		<defs>
			<path id="SVGID_11_" d="M332.66,67.89L308.1,53.71c2.58-4.47,6.21-7.95,10.39-10.36L332.66,67.89z"/>
		</defs>
		<clipPath id="SVGID_12_">
			<use xlink:href="#SVGID_11_"  style="overflow:visible;"/>
		</clipPath>
		<polygon class="st12" points="332.66,67.89 320.79,61.04 324.31,60.84 		"/>
		<polygon class="st13" points="311.94,47.07 320.36,46.6 318.54,43.43 		"/>
		<polygon class="st13" points="327.48,64.59 328.12,56.18 324.74,57.57 		"/>
		<polygon class="st12" points="319.82,49.43 309.54,56.77 324.5,53.73 		"/>
		<polygon class="st13" points="313.96,52.7 322.06,55.62 321.87,61.66 318.78,59.88 		"/>
		<polygon class="st12" points="322.47,59.68 325.95,56.83 317.92,57.17 		"/>
		<polygon class="st12" points="312.55,48.84 313.11,53.3 317.09,46.32 		"/>
		<polygon class="st13" points="309.58,49.2 313.64,54.68 306.66,54.26 		"/>
		<polygon class="st13" points="315.16,50.62 318.66,48.8 319.11,52.9 		"/>
	</g>
	<g>
		<defs>
			<path id="SVGID_13_" d="M332.66,67.89l24.56,14.18c2.58-4.47,3.78-9.36,3.78-14.18L332.66,67.89z"/>
		</defs>
		<clipPath id="SVGID_14_">
			<use xlink:href="#SVGID_13_"  style="overflow:visible;"/>
		</clipPath>
		<polygon class="st14" points="332.66,67.89 344.53,74.75 342.95,71.6 		"/>
		<polygon class="st15" points="361.06,75.42 357.25,67.9 360.91,67.89 		"/>
		<polygon class="st15" points="338.11,70.73 345.08,65.97 345.56,69.6 		"/>
		<polygon class="st14" points="355.07,69.78 353.85,82.36 349.01,67.88 		"/>
		<polygon class="st15" points="355.17,76.49 348.59,70.94 343.45,74.12 346.54,75.91 		"/>
		<polygon class="st14" points="344.87,72.61 345.6,68.17 349.32,75.3 		"/>
		<polygon class="st14" points="359.21,75.78 355.07,77.53 359.13,70.59 		"/>
		<polygon class="st15" points="360.39,78.54 353.62,77.76 357.47,83.59 		"/>
		<polygon class="st15" points="356.38,74.41 356.2,70.48 352.42,72.13 		"/>
	</g>
	<g>
		<defs>
			<path id="SVGID_15_" d="M332.66,67.89l24.56,14.18c-2.58,4.47-6.21,7.95-10.39,10.36L332.66,67.89z"/>
		</defs>
		<clipPath id="SVGID_16_">
			<use xlink:href="#SVGID_15_"  style="overflow:visible;"/>
		</clipPath>
		<polygon class="st16" points="332.66,67.89 344.53,74.75 341.02,74.95 		"/>
		<polygon class="st17" points="353.38,88.72 344.96,89.18 346.79,92.36 		"/>
		<polygon class="st17" points="337.85,71.19 337.21,79.6 340.59,78.21 		"/>
		<polygon class="st16" points="345.5,86.35 355.78,79.01 340.83,82.06 		"/>
		<polygon class="st17" points="351.37,83.09 343.26,80.16 343.45,74.12 346.54,75.91 		"/>
		<polygon class="st16" points="342.85,76.11 339.37,78.96 347.41,78.61 		"/>
		<polygon class="st16" points="352.77,86.94 352.21,82.48 348.23,89.47 		"/>
		<polygon class="st17" points="355.74,86.58 351.69,81.11 358.66,81.53 		"/>
		<polygon class="st17" points="350.17,85.17 346.67,86.98 346.21,82.89 		"/>
	</g>
	<g>
		<defs>
			<path id="SVGID_17_" d="M332.66,67.89L308.1,82.07c2.58,4.47,6.21,7.95,10.39,10.36L332.66,67.89z"/>
		</defs>
		<clipPath id="SVGID_18_">
			<use xlink:href="#SVGID_17_"  style="overflow:visible;"/>
		</clipPath>
		<polygon class="st18" points="332.66,67.89 320.79,74.75 324.31,74.95 		"/>
		<polygon class="st19" points="311.94,88.72 320.36,89.18 318.54,92.36 		"/>
		<polygon class="st19" points="327.48,71.19 328.12,79.6 324.74,78.21 		"/>
		<polygon class="st18" points="319.82,86.35 309.54,79.01 324.5,82.06 		"/>
		<polygon class="st19" points="313.96,83.09 322.06,80.16 321.87,74.12 318.78,75.91 		"/>
		<polygon class="st18" points="322.47,76.11 325.95,78.96 317.92,78.61 		"/>
		<polygon class="st18" points="312.55,86.94 313.11,82.48 317.09,89.47 		"/>
		<polygon class="st19" points="309.58,86.58 313.64,81.11 306.66,81.53 		"/>
		<polygon class="st19" points="315.16,85.17 318.66,86.98 319.11,82.89 		"/>
	</g>
	<g>
		<defs>
			<path id="SVGID_19_" d="M332.66,67.89L308.1,82.07c-2.58-4.47-3.78-9.36-3.78-14.18L332.66,67.89z"/>
		</defs>
		<clipPath id="SVGID_20_">
			<use xlink:href="#SVGID_19_"  style="overflow:visible;"/>
		</clipPath>
		<polygon class="st20" points="332.66,67.89 320.79,74.75 322.38,71.6 		"/>
		<polygon class="st21" points="304.27,75.42 308.07,67.9 304.41,67.89 		"/>
		<polygon class="st21" points="327.21,70.73 320.25,65.97 319.76,69.6 		"/>
		<polygon class="st20" points="310.25,69.78 311.47,82.36 316.31,67.88 		"/>
		<polygon class="st21" points="310.15,76.49 316.74,70.94 321.87,74.12 318.78,75.91 		"/>
		<polygon class="st20" points="320.45,72.61 319.72,68.17 316.01,75.3 		"/>
		<polygon class="st20" points="306.11,75.78 310.25,77.53 306.19,70.59 		"/>
		<polygon class="st21" points="304.94,78.54 311.71,77.76 307.86,83.59 		"/>
		<polygon class="st21" points="308.95,74.41 309.12,70.48 312.9,72.13 		"/>
	</g>
	<g>
		<defs>
			<path id="SVGID_21_" d="M332.66,67.89l24.56-14.18c-2.58-4.47-6.21-7.95-10.39-10.36L332.66,67.89z"/>
		</defs>
		<clipPath id="SVGID_22_">
			<use xlink:href="#SVGID_21_"  style="overflow:visible;"/>
		</clipPath>
		<polygon class="st22" points="332.66,67.89 344.53,61.04 341.02,60.84 		"/>
		<polygon class="st23" points="353.38,47.07 344.96,46.6 346.79,43.43 		"/>
		<polygon class="st23" points="337.85,64.59 337.21,56.18 340.59,57.57 		"/>
		<polygon class="st22" points="345.5,49.43 355.78,56.77 340.83,53.73 		"/>
		<polygon class="st23" points="351.37,52.7 343.26,55.62 343.45,61.66 346.54,59.88 		"/>
		<polygon class="st22" points="342.85,59.68 339.37,56.83 347.41,57.17 		"/>
		<polygon class="st22" points="352.77,48.84 352.21,53.3 348.23,46.32 		"/>
		<polygon class="st23" points="355.74,49.2 351.69,54.68 358.66,54.26 		"/>
		<polygon class="st23" points="350.17,50.62 346.67,48.8 346.21,52.9 		"/>
	</g>
	<g>
		<defs>
			<path id="SVGID_23_" d="M332.66,67.89l24.56-14.18c2.58,4.47,3.78,9.36,3.78,14.18L332.66,67.89z"/>
		</defs>
		<clipPath id="SVGID_24_">
			<use xlink:href="#SVGID_23_"  style="overflow:visible;"/>
		</clipPath>
		<polygon class="st24" points="332.66,67.89 344.53,61.04 342.95,64.19 		"/>
		<polygon class="st25" points="361.06,60.36 357.25,67.89 360.91,67.89 		"/>
		<polygon class="st25" points="338.11,65.05 345.08,69.81 345.56,66.19 		"/>
		<polygon class="st24" points="355.07,66 353.85,53.43 349.01,67.9 		"/>
		<polygon class="st25" points="355.17,59.29 348.59,64.85 343.45,61.66 346.54,59.88 		"/>
		<polygon class="st24" points="344.87,63.18 345.6,67.61 349.32,60.48 		"/>
		<polygon class="st24" points="359.21,60 355.07,58.26 359.13,65.19 		"/>
		<polygon class="st25" points="360.39,57.25 353.62,58.02 357.47,52.19 		"/>
		<polygon class="st25" points="356.38,61.37 356.2,65.31 352.42,63.65 		"/>
	</g>
</g>
</svg>
