<?xml version="1.0" encoding="utf-8"?>
<!-- Generator: Adobe Illustrator 24.1.0, SVG Export Plug-In . SVG Version: 6.00 Build 0)  -->
<svg version="1.1" id="Layer_1" xmlns="http://www.w3.org/2000/svg" xmlns:xlink="http://www.w3.org/1999/xlink" x="0px" y="0px"
	 viewBox="0 0 410 110" style="enable-background:new 0 0 410 110;" xml:space="preserve">
<style type="text/css">
	.st0{fill:#656571;}
	.st1{fill:#57AFDA;}
</style>
<g>
	<g>
		<path class="st0" d="M107.27,20.85c0,2.24-0.41,3.36-1.22,3.36l-14.02-0.5v29.91c0,7.81,2.1,11.71,6.3,11.71
			c2.6,0,4.97-0.81,7.1-2.43c0.25,0,0.48,0.22,0.68,0.65c0.2,0.44,0.31,0.9,0.31,1.4c0,1.04-1.17,2.44-3.5,4.21
			c-2.33,1.76-4.95,2.65-7.86,2.65c-3.57,0-6.42-1.44-8.54-4.33c-2.13-2.89-3.19-6.7-3.19-11.43v-0.56l0.19-30.28
			c0-1.16-0.38-1.74-1.13-1.74h-3.58c-0.69,0-1.03-0.53-1.03-1.59c0-0.82,0.28-1.43,0.84-1.84c4.35-3.42,8.13-8.24,11.35-14.45
			c0.34-0.67,0.78-1,1.31-1c0.87,0,1.31,0.33,1.31,1l-0.38,11.9h13.83C106.86,17.49,107.27,18.61,107.27,20.85z"/>
		<path class="st0" d="M143.43,32.91c0,1.25-0.38,2.32-1.15,3.2c-0.77,0.88-1.7,1.32-2.8,1.32c-1.38,0-2.75-0.45-4.09-1.36
			c-1.07-0.72-1.99-1.08-2.78-1.08c-2.04,0-4.14,1.19-6.3,3.58v21.17c0,2.73,0.47,4.63,1.41,5.72c0.94,1.08,2.95,1.83,6.02,2.23
			c0.5,0.06,0.75,0.49,0.75,1.27c0,0.88-0.25,1.32-0.75,1.32c-1.29,0-3.1-0.09-5.46-0.28c-2.6-0.19-4.66-0.28-6.19-0.28
			c-1.56,0-3.45,0.09-5.67,0.28c-2.01,0.19-3.65,0.28-4.94,0.28c-0.5,0-0.75-0.44-0.75-1.32c0-0.78,0.25-1.21,0.75-1.27
			c2.73-0.34,4.48-0.99,5.25-1.93c0.77-0.94,1.15-2.94,1.15-6.01V42.36c0-2.51-0.32-4.15-0.96-4.93c-0.64-0.78-2.08-1.3-4.3-1.55
			c-0.5,0-0.75-0.42-0.75-1.25c0-0.77,0.25-1.15,0.75-1.15c3.11-0.78,5.66-1.65,7.68-2.61c2.01-0.96,3.33-1.78,3.96-2.47
			c0.37-0.38,0.75-0.56,1.12-0.56c0.87,0,1.31,0.25,1.31,0.75l-0.38,5.93c2.51-2.32,4.66-3.95,6.47-4.89
			c1.8-0.94,3.6-1.41,5.39-1.41c1.44,0,2.68,0.47,3.72,1.41C142.91,30.56,143.43,31.66,143.43,32.91z"/>
		<path class="st0" d="M181.89,43.54c0,0.88-0.56,1.32-1.69,1.32h-25.78c-0.19,1.69-0.28,3.45-0.28,5.27c0,5.05,1.2,8.93,3.6,11.64
			c2.4,2.71,5.81,4.07,10.23,4.07c2.23,0,4.47-0.6,6.73-1.79c2.26-1.19,4.08-2.71,5.46-4.56l0.24-0.09c0.28,0,0.56,0.17,0.82,0.52
			c0.27,0.35,0.4,0.75,0.4,1.22c0,0.66-1,2.03-3.01,4.12c-2.01,2.09-4.19,3.68-6.54,4.77c-2.35,1.1-4.81,1.65-7.39,1.65
			c-5.65,0-10.4-2.07-14.25-6.21c-3.86-4.14-5.79-9.22-5.79-15.24c0-6.15,1.89-11.35,5.67-15.62c3.78-4.26,8.57-6.4,14.37-6.4
			c4.86,0,8.95,1.59,12.25,4.77C180.24,36.16,181.89,39.68,181.89,43.54z M173.33,39.4c0-2.35-0.81-4.3-2.42-5.86
			c-1.62-1.55-3.69-2.33-6.23-2.33c-2.42,0-4.51,1.01-6.28,3.03c-1.77,2.02-2.97,4.68-3.6,7.97l13.08-0.38
			c1.98-0.03,3.38-0.22,4.21-0.56C172.91,40.94,173.33,40.31,173.33,39.4z"/>
		<path class="st0" d="M233.6,68.95c0,0.88-0.25,1.32-0.75,1.32c-1.26,0-2.79-0.09-4.61-0.28c-2-0.19-3.77-0.28-5.3-0.28
			c-1.56,0-3.36,0.09-5.39,0.28c-1.84,0.19-3.39,0.28-4.64,0.28c-0.5,0-0.75-0.44-0.75-1.32c0-0.78,0.25-1.21,0.75-1.27
			c2.16-0.25,3.58-0.86,4.26-1.83c0.67-0.97,1.01-3.01,1.01-6.12V44.01c0-3.51-0.69-6.08-2.07-7.72c-1.38-1.63-3.51-2.45-6.4-2.45
			c-1.82,0-3.43,0.35-4.82,1.03c-1.4,0.69-2.89,1.91-4.49,3.67v21.17c0,3.1,0.34,5.14,1.01,6.12c0.67,0.97,2.09,1.58,4.26,1.83
			c0.5,0.06,0.75,0.49,0.75,1.27c0,0.88-0.25,1.32-0.75,1.32c-1.29,0-2.85-0.09-4.7-0.28c-2.04-0.19-3.83-0.28-5.36-0.28
			c-1.51,0-3.26,0.09-5.27,0.28c-1.85,0.19-3.42,0.28-4.7,0.28c-0.5,0-0.75-0.44-0.75-1.32c0-0.78,0.25-1.21,0.75-1.27
			c2.7-0.34,4.44-0.99,5.22-1.95c0.78-0.95,1.18-2.95,1.18-5.99V42.36c0-2.51-0.32-4.15-0.96-4.93c-0.64-0.78-2.08-1.3-4.3-1.55
			c-0.5,0-0.75-0.42-0.75-1.25c0-0.77,0.25-1.15,0.75-1.15c3.11-0.78,5.69-1.67,7.76-2.66c2.07-0.99,3.37-1.79,3.9-2.42
			c0.31-0.38,0.66-0.56,1.03-0.56c0.88,0,1.32,0.25,1.32,0.75l-0.38,5.93c4.51-4.2,8.7-6.3,12.59-6.3c4.26,0,7.58,1.22,9.98,3.67
			c2.39,2.45,3.59,5.74,3.59,9.88v17.97c0,3.07,0.38,5.08,1.15,6.02c0.77,0.94,2.49,1.58,5.15,1.93
			C233.35,67.74,233.6,68.16,233.6,68.95z"/>
		<path class="st0" d="M281.46,67.14c0,0.67-0.25,1.04-0.75,1.1c-1.79,0.22-3.86,0.66-6.22,1.32c-2.36,0.66-4.2,1.32-5.53,1.98
			c-0.69,0.34-1.2,0.52-1.51,0.52c-0.51,0-0.76-0.25-0.76-0.75l0.38-5.08c-3.32,3.64-7.56,5.46-12.7,5.46
			c-5.43,0-10.04-2.09-13.85-6.26c-3.81-4.17-5.72-9.17-5.72-15.01c0-6.62,2.11-11.97,6.33-16.07c4.22-4.09,9.51-6.14,15.88-6.14
			c3.64,0,6.99,1.13,10.07,3.39V15.96c0-2.53-0.31-4.19-0.94-4.98c-0.63-0.78-2.07-1.3-4.33-1.55c-0.5-0.06-0.75-0.46-0.75-1.2
			c0-0.83,0.25-1.25,0.76-1.25c2.96-0.69,5.52-1.52,7.69-2.49c2.17-0.97,3.63-1.83,4.39-2.59c0.31-0.31,0.64-0.47,0.99-0.47
			c0.88,0,1.32,0.25,1.32,0.75c-0.5,6.83-0.75,12.29-0.75,16.36v41.42c0,2.16,0.31,3.61,0.94,4.35c0.63,0.74,2.07,1.26,4.33,1.57
			C281.21,65.89,281.46,66.3,281.46,67.14z M267.07,62.11V37.99c0-1.63-0.95-3.17-2.85-4.61c-1.9-1.44-3.96-2.16-6.19-2.16
			c-9.16,0-13.74,6.44-13.74,19.31c0,5.09,1.1,9.31,3.29,12.67c2.19,3.36,5.08,5.04,8.66,5.04c2.04,0,3.89-0.46,5.55-1.39
			C263.46,65.92,265.22,64.34,267.07,62.11z"/>
		<path class="st0" d="M307.45,68.95c0,0.88-0.25,1.32-0.75,1.32c-1.29,0-2.93-0.09-4.94-0.28c-2.25-0.19-4.14-0.28-5.67-0.28
			c-1.56,0-3.43,0.09-5.62,0.28c-1.98,0.19-3.61,0.28-4.89,0.28c-0.5,0-0.75-0.44-0.75-1.32c0-0.78,0.25-1.21,0.75-1.27
			c2.67-0.34,4.38-0.99,5.15-1.93c0.77-0.94,1.15-2.94,1.15-6.01V42.36c0-2.51-0.32-4.15-0.96-4.93c-0.64-0.78-2.05-1.3-4.21-1.55
			c-0.5,0-0.75-0.42-0.75-1.25c0-0.77,0.25-1.15,0.75-1.15c3.28-0.85,5.97-1.75,8.07-2.7c2.09-0.96,3.41-1.75,3.94-2.38
			c0.31-0.38,0.66-0.56,1.03-0.56c0.87,0,1.31,0.25,1.31,0.75c-0.5,7.03-0.75,12.48-0.75,16.37v14.77c0,3.07,0.38,5.08,1.15,6.02
			c0.77,0.94,2.52,1.58,5.25,1.93C307.2,67.74,307.45,68.16,307.45,68.95z M300.86,12.07c0,1.32-0.48,2.46-1.43,3.43
			c-0.96,0.97-2.11,1.46-3.46,1.46c-1.35,0-2.5-0.49-3.46-1.46c-0.96-0.97-1.44-2.12-1.44-3.43c0-1.38,0.47-2.54,1.41-3.48
			s2.1-1.41,3.48-1.41c1.35,0,2.5,0.47,3.46,1.41C300.38,9.53,300.86,10.69,300.86,12.07z"/>
		<path class="st0" d="M359.79,68.95c0,0.88-0.25,1.32-0.75,1.32c-1.26,0-2.79-0.09-4.61-0.28c-2.01-0.19-3.77-0.28-5.3-0.28
			c-1.56,0-3.36,0.09-5.39,0.28c-1.84,0.19-3.39,0.28-4.64,0.28c-0.5,0-0.75-0.44-0.75-1.32c0-0.78,0.25-1.21,0.75-1.27
			c2.16-0.25,3.58-0.86,4.26-1.83c0.67-0.97,1.01-3.01,1.01-6.12V44.01c0-3.51-0.69-6.08-2.07-7.72c-1.38-1.63-3.51-2.45-6.4-2.45
			c-1.82,0-3.43,0.35-4.82,1.03c-1.4,0.69-2.89,1.91-4.49,3.67v21.17c0,3.1,0.34,5.14,1.01,6.12c0.67,0.97,2.09,1.58,4.26,1.83
			c0.5,0.06,0.75,0.49,0.75,1.27c0,0.88-0.25,1.32-0.75,1.32c-1.29,0-2.85-0.09-4.7-0.28c-2.04-0.19-3.83-0.28-5.36-0.28
			c-1.51,0-3.26,0.09-5.27,0.28c-1.85,0.19-3.42,0.28-4.7,0.28c-0.5,0-0.75-0.44-0.75-1.32c0-0.78,0.25-1.21,0.75-1.27
			c2.7-0.34,4.44-0.99,5.22-1.95c0.78-0.95,1.18-2.95,1.18-5.99V42.36c0-2.51-0.32-4.15-0.96-4.93c-0.64-0.78-2.08-1.3-4.31-1.55
			c-0.5,0-0.75-0.42-0.75-1.25c0-0.77,0.25-1.15,0.75-1.15c3.11-0.78,5.69-1.67,7.76-2.66c2.07-0.99,3.37-1.79,3.9-2.42
			c0.31-0.38,0.66-0.56,1.04-0.56c0.88,0,1.32,0.25,1.32,0.75l-0.38,5.93c4.51-4.2,8.7-6.3,12.59-6.3c4.26,0,7.58,1.22,9.98,3.67
			c2.4,2.45,3.59,5.74,3.59,9.88v17.97c0,3.07,0.38,5.08,1.15,6.02c0.77,0.94,2.49,1.58,5.15,1.93
			C359.54,67.74,359.79,68.16,359.79,68.95z"/>
		<path class="st0" d="M404.74,35.17c0,1.69-0.41,2.54-1.22,2.54l-5.97-0.19c0.69,1.79,1.03,3.61,1.03,5.46
			c0,4.52-1.65,8.28-4.95,11.29c-3.3,3.01-7.34,4.52-12.12,4.52h-1.88c-2.5,0-4.49,0.33-5.95,0.99c-1.47,0.66-2.2,1.43-2.2,2.31
			c0,1.1,0.61,2,1.83,2.7c1.22,0.71,2.92,1.07,5.11,1.11l10.88,0.14c4.69,0.09,8.34,1.08,10.95,2.96c2.61,1.88,3.92,4.5,3.92,7.86
			c0,5.08-2.76,9.52-8.27,13.31c-5.51,3.79-12.05,5.69-19.6,5.69c-4.95,0-9.12-1.21-12.5-3.62c-3.38-2.41-5.08-5.34-5.08-8.78
			c0-2.32,1.07-4.58,3.22-6.79c2.15-2.21,4.68-3.83,7.6-4.86c-1.94-0.88-3.53-2.13-4.75-3.75c-1.22-1.62-1.83-3.23-1.83-4.83
			c0-1.13,1.15-2.34,3.46-3.63c2.31-1.29,4.7-2.15,7.17-2.59c-2.7-1.32-4.8-3.07-6.3-5.27c-1.51-2.19-2.26-4.64-2.26-7.34
			c0-4.33,1.67-8.11,5-11.34c3.34-3.23,7.31-4.85,11.91-4.85c2.44,0,4.85,0.42,7.21,1.27c2.36,0.85,4.31,1.99,5.85,3.43l8.5-0.28
			C404.34,32.63,404.74,33.47,404.74,35.17z M398.3,80.36c0-2.16-0.71-3.71-2.14-4.64c-1.43-0.94-3.82-1.44-7.17-1.5l-10.91-0.23
			c-2.16,0-4.08-0.32-5.74-0.95c-3.83,2.1-5.74,4.85-5.74,8.26c0,3.1,1.3,5.61,3.9,7.53c2.6,1.92,5.91,2.89,9.93,2.89
			c4.83,0,9.02-1.1,12.56-3.28C396.53,86.24,398.3,83.55,398.3,80.36z M389.78,42.88c0-4.01-0.62-6.96-1.85-8.84
			c-1.24-1.88-3.21-2.82-5.93-2.82c-5.19,0-7.79,4.39-7.79,13.17c0,3.98,0.6,6.88,1.81,8.68c1.2,1.8,3.2,2.7,5.98,2.7
			C387.19,55.77,389.78,51.48,389.78,42.88z"/>
	</g>
	<g>
		<g>
			<path class="st1" d="M91.65,90.01c0,0.49-0.12,0.73-0.35,0.73l-4.02-0.11v6.48c0,1.69,0.6,2.54,1.81,2.54
				c0.75,0,1.43-0.18,2.04-0.53c0.07,0,0.14,0.05,0.2,0.14c0.06,0.09,0.09,0.2,0.09,0.3c0,0.23-0.34,0.53-1,0.91
				c-0.67,0.38-1.42,0.57-2.26,0.57c-1.02,0-1.84-0.31-2.45-0.94c-0.61-0.63-0.92-1.45-0.92-2.48v-0.12l0.05-6.56
				c0-0.25-0.11-0.38-0.32-0.38h-1.03c-0.2,0-0.3-0.11-0.3-0.34c0-0.18,0.08-0.31,0.24-0.4c1.25-0.74,2.33-1.78,3.26-3.13
				c0.1-0.14,0.22-0.22,0.38-0.22c0.25,0,0.38,0.07,0.38,0.22l-0.11,2.58h3.97C91.54,89.28,91.65,89.53,91.65,90.01z"/>
			<path class="st1" d="M107.29,100.38c0,0.25-0.07,0.38-0.22,0.38c-0.36,0-0.81-0.03-1.34-0.08c-0.58-0.05-1.08-0.08-1.52-0.08
				c-0.45,0-0.97,0.03-1.56,0.08c-0.53,0.05-0.98,0.08-1.34,0.08c-0.14,0-0.22-0.13-0.22-0.38c0-0.23,0.07-0.35,0.22-0.36
				c0.62-0.07,1.03-0.25,1.22-0.53c0.19-0.28,0.29-0.86,0.29-1.75v-4.51c0-1.94-0.88-2.92-2.65-2.92c-1.12,0-2.08,0.45-2.9,1.35
				v6.08c0,0.81,0.12,1.37,0.35,1.69c0.23,0.32,0.69,0.51,1.38,0.59c0.14,0.02,0.22,0.14,0.22,0.36c0,0.25-0.07,0.38-0.22,0.38
				c-0.37,0-0.85-0.03-1.44-0.08c-0.67-0.05-1.22-0.08-1.66-0.08c-0.45,0-0.96,0.03-1.54,0.08c-0.51,0.05-0.95,0.08-1.32,0.08
				c-0.14,0-0.22-0.13-0.22-0.38c0-0.23,0.07-0.35,0.22-0.36c0.76-0.08,1.25-0.26,1.47-0.53c0.22-0.27,0.34-0.86,0.34-1.75V85.2
				c0-0.73-0.09-1.21-0.26-1.43c-0.18-0.23-0.58-0.37-1.22-0.45c-0.14-0.02-0.22-0.13-0.22-0.34c0-0.24,0.07-0.36,0.22-0.36
				c1.53-0.36,2.67-0.84,3.4-1.43c0.13-0.11,0.25-0.16,0.34-0.16c0.25,0,0.38,0.07,0.38,0.22c-0.14,1.48-0.22,3.04-0.22,4.7v4.58
				c1.29-1.22,2.56-1.84,3.82-1.84c1.28,0,2.29,0.35,3.03,1.05c0.74,0.7,1.1,1.65,1.1,2.83v5.16c0,0.88,0.11,1.46,0.34,1.73
				c0.23,0.27,0.73,0.46,1.49,0.55C107.22,100.03,107.29,100.15,107.29,100.38z"/>
			<path class="st1" d="M118.59,93.09c0,0.25-0.16,0.38-0.49,0.38h-7.4c-0.05,0.49-0.08,0.99-0.08,1.51c0,1.45,0.34,2.56,1.03,3.34
				c0.69,0.78,1.67,1.17,2.94,1.17c0.64,0,1.28-0.17,1.93-0.51c0.65-0.34,1.17-0.78,1.57-1.31l0.07-0.03c0.08,0,0.16,0.05,0.24,0.15
				c0.08,0.1,0.11,0.22,0.11,0.35c0,0.19-0.29,0.58-0.86,1.18c-0.58,0.6-1.2,1.06-1.88,1.37c-0.68,0.31-1.38,0.47-2.12,0.47
				c-1.62,0-2.98-0.59-4.09-1.78c-1.11-1.19-1.66-2.65-1.66-4.37c0-1.76,0.54-3.26,1.63-4.48c1.08-1.22,2.46-1.84,4.12-1.84
				c1.4,0,2.57,0.46,3.52,1.37C118.11,90.97,118.59,91.98,118.59,93.09z M116.13,91.9c0-0.68-0.23-1.24-0.7-1.68
				c-0.46-0.45-1.06-0.67-1.79-0.67c-0.69,0-1.29,0.29-1.8,0.87c-0.51,0.58-0.85,1.34-1.03,2.29l3.75-0.11
				c0.57-0.01,0.97-0.06,1.21-0.16C116.01,92.34,116.13,92.16,116.13,91.9z"/>
			<path class="st1" d="M140.04,95.01c0,1.77-0.6,3.24-1.8,4.41c-1.2,1.17-2.73,1.75-4.59,1.75c-1.07,0-1.99-0.21-2.75-0.62v4.17
				c0,0.87,0.11,1.45,0.34,1.73c0.23,0.28,0.72,0.47,1.5,0.57c0.14,0,0.22,0.12,0.22,0.37c0,0.25-0.07,0.37-0.22,0.37
				c-0.37,0-0.85-0.03-1.43-0.08c-0.63-0.05-1.16-0.08-1.59-0.08c-0.45,0-0.99,0.03-1.63,0.08c-0.58,0.05-1.05,0.08-1.42,0.08
				c-0.14,0-0.22-0.12-0.22-0.37c0-0.25,0.07-0.37,0.22-0.37c0.76-0.1,1.26-0.29,1.49-0.57c0.23-0.28,0.34-0.86,0.34-1.73V92.75
				c0-0.72-0.09-1.19-0.28-1.42c-0.18-0.23-0.6-0.37-1.24-0.45c-0.14,0-0.22-0.12-0.22-0.36c0-0.22,0.07-0.33,0.22-0.33
				c0.87-0.22,1.6-0.46,2.19-0.74c0.59-0.28,0.98-0.52,1.17-0.72c0.1-0.11,0.19-0.16,0.28-0.16c0.25,0,0.38,0.07,0.38,0.22
				l-0.11,1.7c0.49-0.51,1.07-0.94,1.71-1.29c0.65-0.35,1.2-0.52,1.66-0.52c1.77,0,3.18,0.58,4.21,1.73
				C139.52,91.58,140.04,93.11,140.04,95.01z M137.31,94.98c0-1.5-0.33-2.68-0.98-3.52c-0.65-0.84-1.56-1.26-2.74-1.26
				c-0.49,0-0.94,0.1-1.34,0.31c-0.4,0.21-0.85,0.59-1.35,1.15v6.61c0,0.58,0.26,1.06,0.77,1.44c0.51,0.39,1.14,0.58,1.87,0.58
				c1.22,0,2.16-0.46,2.8-1.38C136.99,97.99,137.31,96.68,137.31,94.98z"/>
			<path class="st1" d="M150.63,90.04c0,0.36-0.11,0.67-0.33,0.92c-0.22,0.25-0.49,0.38-0.8,0.38c-0.4,0-0.79-0.13-1.17-0.39
				c-0.31-0.21-0.57-0.31-0.8-0.31c-0.58,0-1.19,0.34-1.81,1.03v6.08c0,0.78,0.14,1.33,0.4,1.64c0.27,0.31,0.85,0.52,1.73,0.64
				c0.14,0.02,0.22,0.14,0.22,0.36c0,0.25-0.07,0.38-0.22,0.38c-0.37,0-0.89-0.03-1.57-0.08c-0.75-0.05-1.34-0.08-1.78-0.08
				c-0.45,0-0.99,0.03-1.63,0.08c-0.58,0.05-1.05,0.08-1.42,0.08c-0.14,0-0.22-0.13-0.22-0.38c0-0.23,0.07-0.35,0.22-0.36
				c0.78-0.1,1.28-0.28,1.51-0.55c0.22-0.27,0.33-0.84,0.33-1.73v-4.99c0-0.72-0.09-1.19-0.28-1.42c-0.18-0.22-0.6-0.37-1.24-0.44
				c-0.14,0-0.22-0.12-0.22-0.36c0-0.22,0.07-0.33,0.22-0.33c0.89-0.22,1.63-0.47,2.2-0.75c0.58-0.27,0.96-0.51,1.14-0.71
				c0.11-0.11,0.21-0.16,0.32-0.16c0.25,0,0.38,0.07,0.38,0.22l-0.11,1.7c0.72-0.67,1.34-1.13,1.86-1.4c0.52-0.27,1.03-0.4,1.55-0.4
				c0.41,0,0.77,0.14,1.07,0.4C150.48,89.36,150.63,89.68,150.63,90.04z"/>
			<path class="st1" d="M163.87,95.01c0,1.79-0.58,3.27-1.75,4.42c-1.17,1.16-2.68,1.74-4.53,1.74c-1.86,0-3.37-0.58-4.54-1.74
				c-1.17-1.16-1.76-2.63-1.76-4.41c0-1.81,0.59-3.31,1.77-4.52c1.18-1.2,2.69-1.8,4.53-1.8c1.85,0,3.36,0.6,4.53,1.8
				C163.29,91.68,163.87,93.19,163.87,95.01z M161.15,94.98c0-1.65-0.32-2.96-0.95-3.95c-0.63-0.99-1.51-1.48-2.61-1.48
				c-1.1,0-1.97,0.49-2.61,1.48c-0.64,0.99-0.96,2.3-0.96,3.94c0,1.63,0.31,2.92,0.94,3.88c0.63,0.96,1.5,1.44,2.62,1.44
				c1.12,0,1.99-0.47,2.62-1.42C160.83,97.92,161.15,96.63,161.15,94.98z"/>
			<path class="st1" d="M179.1,99.86c0,0.19-0.07,0.3-0.22,0.32c-0.51,0.06-1.11,0.19-1.79,0.38c-0.68,0.19-1.21,0.38-1.59,0.57
				c-0.2,0.1-0.34,0.15-0.43,0.15c-0.15,0-0.22-0.07-0.22-0.22l0.11-1.46c-0.95,1.04-2.17,1.57-3.65,1.57c-1.56,0-2.88-0.6-3.98-1.8
				c-1.09-1.2-1.64-2.63-1.64-4.31c0-1.9,0.61-3.44,1.82-4.61c1.21-1.17,2.73-1.76,4.56-1.76c1.04,0,2.01,0.32,2.89,0.97v-4.49
				c0-0.73-0.09-1.2-0.27-1.43c-0.18-0.22-0.59-0.37-1.24-0.44c-0.14-0.02-0.22-0.13-0.22-0.34c0-0.24,0.07-0.36,0.22-0.36
				c0.85-0.2,1.58-0.44,2.21-0.72c0.62-0.28,1.04-0.53,1.26-0.74c0.09-0.09,0.19-0.14,0.28-0.14c0.25,0,0.38,0.07,0.38,0.22
				c-0.14,1.96-0.22,3.53-0.22,4.69V97.8c0,0.62,0.09,1.04,0.27,1.25c0.18,0.21,0.59,0.36,1.24,0.45
				C179.03,99.5,179.1,99.62,179.1,99.86z M174.97,98.42V91.5c0-0.47-0.27-0.91-0.82-1.32c-0.54-0.41-1.14-0.62-1.78-0.62
				c-2.63,0-3.94,1.85-3.94,5.54c0,1.46,0.31,2.67,0.94,3.64c0.63,0.96,1.46,1.45,2.48,1.45c0.58,0,1.12-0.13,1.59-0.4
				C173.94,99.51,174.44,99.06,174.97,98.42z"/>
			<path class="st1" d="M192.96,99.87c0,0.19-0.07,0.3-0.22,0.32c-1.64,0.18-2.76,0.49-3.36,0.93c-0.13,0.1-0.25,0.15-0.38,0.15
				c-0.18,0-0.27-0.07-0.27-0.22l0.11-1.7c-1.33,1.21-2.54,1.81-3.62,1.81c-1.23,0-2.19-0.35-2.88-1.05
				c-0.69-0.7-1.03-1.65-1.03-2.85v-5.06c0-0.8-0.1-1.33-0.31-1.59c-0.21-0.26-0.62-0.39-1.23-0.39c-0.12,0-0.25,0-0.39,0.01
				c-0.14,0-0.2-0.11-0.2-0.34c0-0.28,0.07-0.42,0.22-0.42c1.04,0,2.4-0.2,4.09-0.61c0.16,0,0.24,0.11,0.24,0.34v7.43
				c0,1.02,0.19,1.76,0.58,2.22c0.39,0.46,1,0.7,1.83,0.7c0.53,0,1-0.1,1.41-0.3c0.41-0.2,0.84-0.55,1.3-1.05v-5.98
				c0-0.79-0.11-1.32-0.32-1.59c-0.21-0.27-0.63-0.4-1.26-0.4c-0.11,0-0.23,0-0.38,0.01c-0.14,0-0.2-0.11-0.2-0.34
				c0-0.28,0.07-0.42,0.22-0.42c1.04,0,2.41-0.2,4.1-0.61c0.16,0,0.24,0.11,0.24,0.34v8.61c0,0.62,0.09,1.04,0.26,1.25
				c0.18,0.21,0.59,0.36,1.24,0.45C192.88,99.52,192.96,99.64,192.96,99.87z"/>
			<path class="st1" d="M204.33,90.82c0,0.74-0.37,1.11-1.11,1.11c-0.32,0-0.57-0.07-0.78-0.2c-0.2-0.14-0.41-0.43-0.61-0.88
				c-0.24-0.53-0.5-0.88-0.78-1.05c-0.27-0.17-0.63-0.25-1.07-0.25c-1.09,0-1.92,0.45-2.49,1.36c-0.57,0.9-0.86,2.23-0.86,3.96
				c0,1.45,0.36,2.62,1.08,3.5s1.68,1.33,2.89,1.33c1.37,0,2.45-0.43,3.25-1.28l0.07-0.03c0.08,0,0.16,0.05,0.24,0.15
				c0.08,0.1,0.11,0.22,0.11,0.34c0,0.18-0.26,0.49-0.79,0.93c-0.53,0.44-1.1,0.77-1.73,1c-0.63,0.22-1.29,0.34-1.99,0.34
				c-1.61,0-2.99-0.59-4.14-1.78c-1.15-1.18-1.72-2.68-1.72-4.49c0-1.79,0.6-3.27,1.8-4.45c1.2-1.17,2.63-1.76,4.27-1.76
				c1.21,0,2.24,0.21,3.08,0.63C203.9,89.74,204.33,90.24,204.33,90.82z"/>
			<path class="st1" d="M214.6,90.01c0,0.49-0.12,0.73-0.35,0.73l-4.02-0.11v6.48c0,1.69,0.6,2.54,1.81,2.54
				c0.75,0,1.43-0.18,2.04-0.53c0.07,0,0.14,0.05,0.2,0.14c0.06,0.09,0.09,0.2,0.09,0.3c0,0.23-0.34,0.53-1,0.91
				c-0.67,0.38-1.42,0.57-2.26,0.57c-1.02,0-1.84-0.31-2.45-0.94c-0.61-0.63-0.92-1.45-0.92-2.48v-0.12l0.05-6.56
				c0-0.25-0.11-0.38-0.32-0.38h-1.03c-0.2,0-0.3-0.11-0.3-0.34c0-0.18,0.08-0.31,0.24-0.4c1.25-0.74,2.33-1.78,3.26-3.13
				c0.1-0.14,0.22-0.22,0.38-0.22c0.25,0,0.38,0.07,0.38,0.22l-0.11,2.58h3.97C214.48,89.28,214.6,89.53,214.6,90.01z"/>
			<path class="st1" d="M224.37,97.27c0,1.1-0.43,2.02-1.29,2.77c-0.86,0.75-1.91,1.12-3.13,1.12c-0.43,0-1.1-0.09-1.99-0.28
				c-0.67-0.14-1.13-0.2-1.37-0.2c-0.07-0.63-0.24-1.59-0.5-2.88c0-0.14,0.13-0.2,0.39-0.2c0.22,0,0.35,0.07,0.39,0.22
				c0.21,0.67,0.62,1.25,1.23,1.74c0.61,0.49,1.24,0.74,1.89,0.74c0.68,0,1.2-0.18,1.57-0.55c0.37-0.37,0.56-0.89,0.56-1.55
				c0-0.42-0.16-0.8-0.47-1.12c-0.31-0.32-0.98-0.72-2.02-1.2c-1.36-0.62-2.26-1.21-2.69-1.75c-0.44-0.55-0.65-1.21-0.65-1.97
				c0-0.94,0.41-1.76,1.23-2.44c0.82-0.68,1.79-1.02,2.9-1.02c0.47,0,1.12,0.08,1.97,0.24c0.47,0.09,0.77,0.14,0.92,0.14
				c0.03,1.06,0.09,1.97,0.18,2.71c0,0.14-0.13,0.2-0.39,0.2c-0.23,0-0.35-0.07-0.38-0.22c-0.1-0.66-0.35-1.19-0.74-1.6
				c-0.39-0.41-0.87-0.61-1.41-0.61c-1.4,0-2.1,0.61-2.1,1.84c0,0.41,0.17,0.8,0.5,1.15c0.33,0.35,1.05,0.81,2.16,1.36
				c1.33,0.67,2.2,1.24,2.62,1.73C224.16,96.11,224.37,96.66,224.37,97.27z"/>
			<path class="st1" d="M245.69,95.01c0,1.77-0.6,3.24-1.8,4.41c-1.2,1.17-2.73,1.75-4.59,1.75c-1.07,0-1.99-0.21-2.75-0.62v4.17
				c0,0.87,0.11,1.45,0.34,1.73c0.23,0.28,0.72,0.47,1.5,0.57c0.14,0,0.22,0.12,0.22,0.37c0,0.25-0.07,0.37-0.22,0.37
				c-0.37,0-0.85-0.03-1.43-0.08c-0.63-0.05-1.16-0.08-1.59-0.08c-0.45,0-0.99,0.03-1.63,0.08c-0.58,0.05-1.05,0.08-1.42,0.08
				c-0.14,0-0.22-0.12-0.22-0.37c0-0.25,0.07-0.37,0.22-0.37c0.76-0.1,1.26-0.29,1.49-0.57c0.23-0.28,0.34-0.86,0.34-1.73V92.75
				c0-0.72-0.09-1.19-0.28-1.42c-0.18-0.23-0.6-0.37-1.24-0.45c-0.14,0-0.22-0.12-0.22-0.36c0-0.22,0.07-0.33,0.22-0.33
				c0.87-0.22,1.6-0.46,2.19-0.74c0.59-0.28,0.98-0.52,1.17-0.72c0.1-0.11,0.19-0.16,0.28-0.16c0.25,0,0.38,0.07,0.38,0.22
				l-0.11,1.7c0.49-0.51,1.07-0.94,1.71-1.29c0.65-0.35,1.2-0.52,1.66-0.52c1.77,0,3.18,0.58,4.21,1.73
				C245.17,91.58,245.69,93.11,245.69,95.01z M242.96,94.98c0-1.5-0.33-2.68-0.98-3.52c-0.65-0.84-1.56-1.26-2.74-1.26
				c-0.49,0-0.94,0.1-1.34,0.31c-0.4,0.21-0.85,0.59-1.35,1.15v6.61c0,0.58,0.26,1.06,0.77,1.44c0.51,0.39,1.14,0.58,1.87,0.58
				c1.22,0,2.16-0.46,2.8-1.38C242.64,97.99,242.96,96.68,242.96,94.98z"/>
			<path class="st1" d="M258.28,93.09c0,0.25-0.16,0.38-0.49,0.38h-7.4c-0.05,0.49-0.08,0.99-0.08,1.51c0,1.45,0.34,2.56,1.03,3.34
				c0.69,0.78,1.67,1.17,2.94,1.17c0.64,0,1.28-0.17,1.93-0.51c0.65-0.34,1.17-0.78,1.57-1.31l0.07-0.03c0.08,0,0.16,0.05,0.24,0.15
				c0.08,0.1,0.11,0.22,0.11,0.35c0,0.19-0.29,0.58-0.86,1.18c-0.58,0.6-1.2,1.06-1.88,1.37c-0.68,0.31-1.38,0.47-2.12,0.47
				c-1.62,0-2.98-0.59-4.09-1.78c-1.11-1.19-1.66-2.65-1.66-4.37c0-1.76,0.54-3.26,1.63-4.48c1.08-1.22,2.46-1.84,4.12-1.84
				c1.4,0,2.57,0.46,3.52,1.37C257.8,90.97,258.28,91.98,258.28,93.09z M255.82,91.9c0-0.68-0.23-1.24-0.7-1.68
				c-0.46-0.45-1.06-0.67-1.79-0.67c-0.69,0-1.29,0.29-1.8,0.87c-0.51,0.58-0.85,1.34-1.03,2.29l3.75-0.11
				c0.57-0.01,0.97-0.06,1.21-0.16C255.7,92.34,255.82,92.16,255.82,91.9z"/>
			<path class="st1" d="M272.59,95.01c0,1.79-0.58,3.27-1.75,4.42c-1.17,1.16-2.68,1.74-4.53,1.74s-3.37-0.58-4.54-1.74
				c-1.17-1.16-1.76-2.63-1.76-4.41c0-1.81,0.59-3.31,1.77-4.52c1.18-1.2,2.69-1.8,4.53-1.8c1.85,0,3.36,0.6,4.53,1.8
				C272,91.68,272.59,93.19,272.59,95.01z M269.86,94.98c0-1.65-0.32-2.96-0.95-3.95c-0.63-0.99-1.51-1.48-2.61-1.48
				c-1.1,0-1.97,0.49-2.61,1.48c-0.64,0.99-0.96,2.3-0.96,3.94c0,1.63,0.31,2.92,0.94,3.88c0.63,0.96,1.5,1.44,2.62,1.44
				c1.12,0,1.99-0.47,2.62-1.42C269.54,97.92,269.86,96.63,269.86,94.98z"/>
			<path class="st1" d="M286.88,95.01c0,1.77-0.6,3.24-1.8,4.41c-1.2,1.17-2.73,1.75-4.59,1.75c-1.07,0-1.99-0.21-2.75-0.62v4.17
				c0,0.87,0.11,1.45,0.34,1.73c0.23,0.28,0.72,0.47,1.5,0.57c0.14,0,0.22,0.12,0.22,0.37c0,0.25-0.07,0.37-0.22,0.37
				c-0.37,0-0.85-0.03-1.43-0.08c-0.63-0.05-1.16-0.08-1.59-0.08c-0.45,0-0.99,0.03-1.63,0.08c-0.58,0.05-1.05,0.08-1.42,0.08
				c-0.14,0-0.22-0.12-0.22-0.37c0-0.25,0.07-0.37,0.22-0.37c0.76-0.1,1.26-0.29,1.49-0.57c0.23-0.28,0.34-0.86,0.34-1.73V92.75
				c0-0.72-0.09-1.19-0.28-1.42c-0.18-0.23-0.6-0.37-1.24-0.45c-0.14,0-0.22-0.12-0.22-0.36c0-0.22,0.07-0.33,0.22-0.33
				c0.87-0.22,1.6-0.46,2.19-0.74c0.59-0.28,0.98-0.52,1.17-0.72c0.1-0.11,0.19-0.16,0.28-0.16c0.25,0,0.38,0.07,0.38,0.22
				l-0.11,1.7c0.49-0.51,1.07-0.94,1.71-1.29c0.65-0.35,1.2-0.52,1.66-0.52c1.77,0,3.18,0.58,4.21,1.73
				C286.36,91.58,286.88,93.11,286.88,95.01z M284.16,94.98c0-1.5-0.33-2.68-0.98-3.52c-0.65-0.84-1.56-1.26-2.74-1.26
				c-0.49,0-0.94,0.1-1.34,0.31c-0.4,0.21-0.85,0.59-1.35,1.15v6.61c0,0.58,0.26,1.06,0.77,1.44c0.51,0.39,1.14,0.58,1.87,0.58
				c1.22,0,2.16-0.46,2.8-1.38C283.83,97.99,284.16,96.68,284.16,94.98z"/>
			<path class="st1" d="M294.29,100.35c0,0.25-0.07,0.38-0.22,0.38c-0.37,0-0.84-0.02-1.42-0.07c-0.65-0.05-1.19-0.07-1.63-0.07
				c-0.43,0-0.97,0.02-1.61,0.07c-0.58,0.05-1.05,0.07-1.42,0.07c-0.14,0-0.22-0.13-0.22-0.38c0-0.22,0.07-0.35,0.22-0.36
				c0.77-0.09,1.26-0.27,1.49-0.55c0.23-0.27,0.34-0.85,0.34-1.73V85.18c0-0.73-0.09-1.2-0.27-1.43c-0.18-0.22-0.59-0.37-1.24-0.44
				c-0.14-0.02-0.22-0.13-0.22-0.34c0-0.22,0.07-0.33,0.22-0.33c0.95-0.24,1.72-0.5,2.32-0.78c0.6-0.27,0.98-0.51,1.13-0.7
				c0.09-0.1,0.19-0.15,0.3-0.15c0.25,0,0.38,0.07,0.38,0.22c-0.14,2.02-0.22,3.58-0.22,4.7v11.78c0,0.88,0.11,1.46,0.34,1.74
				c0.22,0.27,0.72,0.46,1.5,0.55C294.22,100.01,294.29,100.13,294.29,100.35z"/>
			<path class="st1" d="M305.68,93.09c0,0.25-0.16,0.38-0.49,0.38h-7.4c-0.05,0.49-0.08,0.99-0.08,1.51c0,1.45,0.34,2.56,1.03,3.34
				c0.69,0.78,1.67,1.17,2.94,1.17c0.64,0,1.28-0.17,1.93-0.51s1.17-0.78,1.57-1.31l0.07-0.03c0.08,0,0.16,0.05,0.24,0.15
				s0.11,0.22,0.11,0.35c0,0.19-0.29,0.58-0.86,1.18c-0.58,0.6-1.2,1.06-1.88,1.37c-0.67,0.31-1.38,0.47-2.12,0.47
				c-1.62,0-2.98-0.59-4.09-1.78c-1.11-1.19-1.66-2.65-1.66-4.37c0-1.76,0.54-3.26,1.63-4.48c1.08-1.22,2.46-1.84,4.12-1.84
				c1.4,0,2.57,0.46,3.52,1.37C305.21,90.97,305.68,91.98,305.68,93.09z M303.22,91.9c0-0.68-0.23-1.24-0.7-1.68
				c-0.46-0.45-1.06-0.67-1.79-0.67c-0.69,0-1.29,0.29-1.8,0.87c-0.51,0.58-0.85,1.34-1.03,2.29l3.75-0.11
				c0.57-0.01,0.97-0.06,1.21-0.16C303.11,92.34,303.22,92.16,303.22,91.9z"/>
			<path class="st1" d="M327.25,99.87c0,0.19-0.07,0.3-0.22,0.32c-1.64,0.18-2.76,0.49-3.36,0.93c-0.13,0.1-0.25,0.15-0.38,0.15
				c-0.18,0-0.27-0.07-0.27-0.22l0.11-1.7c-1.33,1.21-2.54,1.81-3.62,1.81c-1.23,0-2.19-0.35-2.88-1.05
				c-0.69-0.7-1.03-1.65-1.03-2.85v-5.06c0-0.8-0.1-1.33-0.31-1.59s-0.62-0.39-1.23-0.39c-0.12,0-0.25,0-0.39,0.01
				c-0.13,0-0.2-0.11-0.2-0.34c0-0.28,0.07-0.42,0.21-0.42c1.04,0,2.41-0.2,4.09-0.61c0.16,0,0.24,0.11,0.24,0.34v7.43
				c0,1.02,0.19,1.76,0.58,2.22c0.39,0.46,1,0.7,1.83,0.7c0.53,0,1-0.1,1.41-0.3c0.41-0.2,0.84-0.55,1.3-1.05v-5.98
				c0-0.79-0.11-1.32-0.32-1.59c-0.21-0.27-0.63-0.4-1.26-0.4c-0.11,0-0.23,0-0.38,0.01c-0.14,0-0.2-0.11-0.2-0.34
				c0-0.28,0.07-0.42,0.22-0.42c1.04,0,2.41-0.2,4.1-0.61c0.16,0,0.24,0.11,0.24,0.34v8.61c0,0.62,0.09,1.04,0.26,1.25
				c0.18,0.21,0.59,0.36,1.24,0.45C327.18,99.52,327.25,99.64,327.25,99.87z"/>
			<path class="st1" d="M336.95,97.27c0,1.1-0.43,2.02-1.29,2.77c-0.86,0.75-1.91,1.12-3.13,1.12c-0.43,0-1.1-0.09-1.99-0.28
				c-0.67-0.14-1.13-0.2-1.37-0.2c-0.07-0.63-0.24-1.59-0.5-2.88c0-0.14,0.13-0.2,0.39-0.2c0.22,0,0.35,0.07,0.39,0.22
				c0.21,0.67,0.62,1.25,1.23,1.74c0.61,0.49,1.24,0.74,1.89,0.74c0.67,0,1.2-0.18,1.57-0.55c0.37-0.37,0.56-0.89,0.56-1.55
				c0-0.42-0.16-0.8-0.47-1.12c-0.31-0.32-0.98-0.72-2.02-1.2c-1.36-0.62-2.26-1.21-2.69-1.75c-0.44-0.55-0.65-1.21-0.65-1.97
				c0-0.94,0.41-1.76,1.23-2.44c0.82-0.68,1.79-1.02,2.9-1.02c0.47,0,1.12,0.08,1.97,0.24c0.47,0.09,0.77,0.14,0.92,0.14
				c0.03,1.06,0.09,1.97,0.18,2.71c0,0.14-0.13,0.2-0.39,0.2c-0.22,0-0.35-0.07-0.38-0.22c-0.1-0.66-0.35-1.19-0.74-1.6
				c-0.39-0.41-0.87-0.61-1.41-0.61c-1.4,0-2.1,0.61-2.1,1.84c0,0.41,0.17,0.8,0.5,1.15c0.33,0.35,1.05,0.81,2.16,1.36
				c1.33,0.67,2.2,1.24,2.62,1.73C336.74,96.11,336.95,96.66,336.95,97.27z"/>
			<path class="st1" d="M349.29,93.09c0,0.25-0.16,0.38-0.49,0.38h-7.4c-0.05,0.49-0.08,0.99-0.08,1.51c0,1.45,0.34,2.56,1.03,3.34
				c0.69,0.78,1.67,1.17,2.94,1.17c0.64,0,1.28-0.17,1.93-0.51s1.17-0.78,1.57-1.31l0.07-0.03c0.08,0,0.16,0.05,0.24,0.15
				s0.11,0.22,0.11,0.35c0,0.19-0.29,0.58-0.86,1.18c-0.58,0.6-1.2,1.06-1.88,1.37c-0.68,0.31-1.38,0.47-2.12,0.47
				c-1.62,0-2.98-0.59-4.09-1.78c-1.11-1.19-1.66-2.65-1.66-4.37c0-1.76,0.54-3.26,1.63-4.48c1.08-1.22,2.46-1.84,4.12-1.84
				c1.39,0,2.57,0.46,3.52,1.37C348.82,90.97,349.29,91.98,349.29,93.09z M346.84,91.9c0-0.68-0.23-1.24-0.7-1.68
				c-0.46-0.45-1.06-0.67-1.79-0.67c-0.69,0-1.29,0.29-1.8,0.87c-0.51,0.58-0.85,1.34-1.03,2.29l3.75-0.11
				c0.57-0.01,0.97-0.06,1.21-0.16C346.72,92.34,346.84,92.16,346.84,91.9z"/>
		</g>
	</g>
	<path class="st1" d="M69.11,31.36l1.9-6.75H56.13l5.64-20.02h-7.01l-5.64,20.02H35.13l5.64-20.02h-7.01l-5.64,20.02H13.23
		l-1.9,6.75h14.88l-4.69,16.65H6.64l-1.9,6.75h14.88l-5.64,20.02H21l5.64-20.02h13.99l-5.64,20.02H42l5.64-20.02h14.88l1.9-6.75
		H49.54l4.69-16.65H69.11z M42.53,48.01H28.54l4.69-16.65h13.99L42.53,48.01z"/>
</g>
</svg>
