<?xml version="1.0" encoding="utf-8"?>
<!-- Generator: Adobe Illustrator 24.1.0, SVG Export Plug-In . SVG Version: 6.00 Build 0)  -->
<svg version="1.1" id="Layer_1" xmlns="http://www.w3.org/2000/svg" xmlns:xlink="http://www.w3.org/1999/xlink" x="0px" y="0px"
	 viewBox="0 0 250 75" style="enable-background:new 0 0 250 75;" xml:space="preserve">
<style type="text/css">
	.st0{fill:#656571;}
	.st1{fill:#57AFDA;}
</style>
<g>
	<g>
		<path class="st0" d="M65.15,16.46c0,1.37-0.25,2.06-0.75,2.06l-8.57-0.3V36.5c0,4.77,1.28,7.16,3.85,7.16
			c1.59,0,3.04-0.5,4.34-1.49c0.15,0,0.29,0.13,0.42,0.4c0.12,0.27,0.19,0.55,0.19,0.86c0,0.64-0.71,1.49-2.14,2.57
			c-1.43,1.08-3.03,1.62-4.81,1.62c-2.18,0-3.92-0.88-5.22-2.65c-1.3-1.76-1.95-4.09-1.95-6.99v-0.34l0.11-18.51
			c0-0.71-0.23-1.07-0.69-1.07h-2.19c-0.42,0-0.63-0.32-0.63-0.97c0-0.5,0.17-0.87,0.52-1.12c2.66-2.09,4.97-5.04,6.94-8.83
			c0.21-0.41,0.48-0.61,0.8-0.61c0.53,0,0.8,0.2,0.8,0.61l-0.23,7.28h8.46C64.9,14.41,65.15,15.09,65.15,16.46z"/>
		<path class="st0" d="M87.26,23.84c0,0.77-0.24,1.42-0.7,1.96c-0.47,0.54-1.04,0.81-1.71,0.81c-0.84,0-1.68-0.28-2.5-0.83
			c-0.65-0.44-1.22-0.66-1.7-0.66c-1.25,0-2.53,0.73-3.85,2.19v12.94c0,1.67,0.29,2.83,0.86,3.49c0.58,0.66,1.8,1.12,3.68,1.37
			c0.31,0.04,0.46,0.3,0.46,0.78c0,0.54-0.15,0.81-0.46,0.81c-0.79,0-1.9-0.06-3.34-0.17c-1.59-0.11-2.85-0.17-3.78-0.17
			c-0.95,0-2.11,0.06-3.47,0.17c-1.23,0.12-2.23,0.17-3.02,0.17c-0.31,0-0.46-0.27-0.46-0.81c0-0.48,0.15-0.74,0.46-0.78
			c1.67-0.21,2.74-0.6,3.21-1.18c0.47-0.57,0.7-1.8,0.7-3.68V29.61c0-1.53-0.2-2.54-0.59-3.02c-0.39-0.48-1.27-0.79-2.63-0.95
			c-0.31,0-0.46-0.25-0.46-0.76c0-0.47,0.15-0.7,0.46-0.7c1.9-0.48,3.46-1.01,4.69-1.6c1.23-0.58,2.04-1.09,2.42-1.51
			c0.23-0.23,0.46-0.35,0.69-0.35c0.53,0,0.8,0.15,0.8,0.46l-0.23,3.62c1.53-1.42,2.85-2.42,3.95-2.99c1.1-0.58,2.2-0.86,3.29-0.86
			c0.88,0,1.64,0.29,2.27,0.86C86.94,22.4,87.26,23.07,87.26,23.84z"/>
		<path class="st0" d="M110.77,30.34c0,0.54-0.35,0.81-1.04,0.81H93.97c-0.11,1.04-0.17,2.11-0.17,3.22c0,3.09,0.73,5.46,2.2,7.12
			c1.47,1.66,3.55,2.49,6.26,2.49c1.36,0,2.73-0.36,4.11-1.09c1.38-0.73,2.49-1.66,3.34-2.79l0.14-0.06c0.17,0,0.34,0.11,0.5,0.32
			c0.16,0.21,0.24,0.46,0.24,0.75c0,0.4-0.61,1.24-1.84,2.52c-1.23,1.28-2.56,2.25-4,2.92c-1.44,0.67-2.94,1.01-4.52,1.01
			c-3.45,0-6.36-1.27-8.72-3.8c-2.36-2.53-3.54-5.64-3.54-9.32c0-3.76,1.16-6.94,3.47-9.55c2.31-2.61,5.24-3.91,8.79-3.91
			c2.97,0,5.47,0.97,7.49,2.92C109.76,25.83,110.77,27.98,110.77,30.34z M105.54,27.81c0-1.44-0.49-2.63-1.48-3.58
			c-0.99-0.95-2.26-1.42-3.81-1.42c-1.48,0-2.76,0.62-3.84,1.86c-1.08,1.24-1.82,2.86-2.2,4.88l8-0.23
			c1.21-0.02,2.07-0.13,2.57-0.34C105.28,28.75,105.54,28.36,105.54,27.81z"/>
		<path class="st0" d="M142.39,45.87c0,0.54-0.15,0.81-0.46,0.81c-0.77,0-1.71-0.06-2.82-0.17c-1.23-0.11-2.31-0.17-3.24-0.17
			c-0.96,0-2.05,0.06-3.3,0.17c-1.13,0.12-2.07,0.17-2.84,0.17c-0.31,0-0.46-0.27-0.46-0.81c0-0.48,0.15-0.74,0.46-0.78
			c1.32-0.15,2.19-0.53,2.6-1.12c0.41-0.59,0.62-1.84,0.62-3.74v-9.61c0-2.15-0.42-3.72-1.27-4.72c-0.84-1-2.15-1.5-3.91-1.5
			c-1.11,0-2.1,0.21-2.95,0.63c-0.85,0.42-1.77,1.17-2.75,2.24v12.94c0,1.9,0.21,3.14,0.62,3.74c0.41,0.59,1.28,0.97,2.6,1.12
			c0.31,0.04,0.46,0.3,0.46,0.78c0,0.54-0.15,0.81-0.46,0.81c-0.79,0-1.74-0.06-2.88-0.17c-1.25-0.11-2.34-0.17-3.28-0.17
			c-0.92,0-1.99,0.06-3.22,0.17c-1.13,0.12-2.09,0.17-2.88,0.17c-0.31,0-0.46-0.27-0.46-0.81c0-0.48,0.15-0.74,0.46-0.78
			c1.65-0.21,2.71-0.61,3.19-1.19c0.48-0.58,0.72-1.8,0.72-3.66V29.61c0-1.53-0.2-2.54-0.59-3.02c-0.39-0.48-1.27-0.79-2.63-0.95
			c-0.31,0-0.46-0.25-0.46-0.76c0-0.47,0.15-0.7,0.46-0.7c1.9-0.48,3.48-1.02,4.75-1.63c1.27-0.6,2.06-1.1,2.39-1.48
			c0.19-0.23,0.4-0.35,0.63-0.35c0.54,0,0.81,0.15,0.81,0.46l-0.23,3.62c2.76-2.57,5.32-3.85,7.69-3.85c2.6,0,4.64,0.75,6.1,2.24
			c1.46,1.5,2.2,3.51,2.2,6.04v10.99c0,1.88,0.23,3.11,0.7,3.68c0.47,0.58,1.52,0.97,3.15,1.18
			C142.23,45.13,142.39,45.39,142.39,45.87z"/>
		<path class="st0" d="M171.65,44.76c0,0.41-0.15,0.64-0.46,0.68c-1.09,0.13-2.36,0.4-3.8,0.81c-1.44,0.4-2.57,0.81-3.38,1.21
			c-0.42,0.21-0.73,0.32-0.93,0.32c-0.31,0-0.46-0.15-0.46-0.46l0.23-3.11c-2.03,2.22-4.62,3.34-7.77,3.34
			c-3.32,0-6.14-1.28-8.47-3.83c-2.33-2.55-3.49-5.61-3.49-9.18c0-4.05,1.29-7.32,3.87-9.82c2.58-2.5,5.81-3.75,9.71-3.75
			c2.22,0,4.28,0.69,6.16,2.07v-9.56c0-1.55-0.19-2.56-0.58-3.04c-0.38-0.48-1.27-0.79-2.65-0.95c-0.31-0.04-0.46-0.28-0.46-0.73
			c0-0.51,0.15-0.76,0.46-0.76c1.81-0.42,3.38-0.93,4.7-1.52c1.33-0.59,2.22-1.12,2.68-1.58c0.19-0.19,0.39-0.29,0.61-0.29
			c0.54,0,0.81,0.15,0.81,0.46c-0.31,4.18-0.46,7.51-0.46,10v25.32c0,1.32,0.19,2.21,0.58,2.66c0.38,0.45,1.27,0.77,2.65,0.96
			C171.5,44,171.65,44.25,171.65,44.76z M162.85,41.69V26.94c0-1-0.58-1.94-1.74-2.82c-1.16-0.88-2.42-1.32-3.78-1.32
			c-5.6,0-8.4,3.94-8.4,11.81c0,3.11,0.67,5.69,2.01,7.75c1.34,2.05,3.11,3.08,5.29,3.08c1.25,0,2.38-0.28,3.39-0.85
			C160.64,44.02,161.72,43.06,162.85,41.69z"/>
		<path class="st0" d="M187.54,45.87c0,0.54-0.15,0.81-0.46,0.81c-0.79,0-1.79-0.06-3.02-0.17c-1.38-0.11-2.53-0.17-3.47-0.17
			c-0.95,0-2.1,0.06-3.44,0.17c-1.21,0.12-2.21,0.17-2.99,0.17c-0.31,0-0.46-0.27-0.46-0.81c0-0.48,0.15-0.74,0.46-0.78
			c1.63-0.21,2.68-0.6,3.15-1.18c0.47-0.57,0.7-1.8,0.7-3.68V29.61c0-1.53-0.2-2.54-0.59-3.02c-0.39-0.48-1.25-0.79-2.57-0.95
			c-0.31,0-0.46-0.25-0.46-0.76c0-0.47,0.15-0.7,0.46-0.7c2.01-0.52,3.65-1.07,4.93-1.65c1.28-0.58,2.08-1.07,2.41-1.45
			c0.19-0.23,0.4-0.35,0.63-0.35c0.53,0,0.8,0.15,0.8,0.46c-0.31,4.3-0.46,7.63-0.46,10.01v9.03c0,1.88,0.23,3.11,0.7,3.68
			c0.47,0.58,1.54,0.97,3.21,1.18C187.38,45.13,187.54,45.39,187.54,45.87z M183.51,11.09c0,0.81-0.29,1.51-0.88,2.1
			c-0.59,0.59-1.29,0.89-2.11,0.89c-0.82,0-1.53-0.3-2.11-0.89c-0.59-0.59-0.88-1.29-0.88-2.1c0-0.84,0.29-1.55,0.86-2.13
			c0.58-0.58,1.28-0.86,2.13-0.86c0.82,0,1.53,0.29,2.11,0.86C183.22,9.54,183.51,10.25,183.51,11.09z"/>
		<path class="st0" d="M219.54,45.87c0,0.54-0.15,0.81-0.46,0.81c-0.77,0-1.71-0.06-2.82-0.17c-1.23-0.11-2.31-0.17-3.24-0.17
			c-0.96,0-2.06,0.06-3.3,0.17c-1.13,0.12-2.07,0.17-2.84,0.17c-0.31,0-0.46-0.27-0.46-0.81c0-0.48,0.15-0.74,0.46-0.78
			c1.32-0.15,2.19-0.53,2.6-1.12c0.41-0.59,0.62-1.84,0.62-3.74v-9.61c0-2.15-0.42-3.72-1.27-4.72c-0.84-1-2.15-1.5-3.91-1.5
			c-1.11,0-2.1,0.21-2.95,0.63c-0.85,0.42-1.77,1.17-2.75,2.24v12.94c0,1.9,0.21,3.14,0.62,3.74c0.41,0.59,1.28,0.97,2.6,1.12
			c0.31,0.04,0.46,0.3,0.46,0.78c0,0.54-0.15,0.81-0.46,0.81c-0.79,0-1.75-0.06-2.88-0.17c-1.25-0.11-2.34-0.17-3.28-0.17
			c-0.92,0-1.99,0.06-3.22,0.17c-1.13,0.12-2.09,0.17-2.88,0.17c-0.31,0-0.46-0.27-0.46-0.81c0-0.48,0.15-0.74,0.46-0.78
			c1.65-0.21,2.71-0.61,3.19-1.19c0.48-0.58,0.72-1.8,0.72-3.66V29.61c0-1.53-0.2-2.54-0.59-3.02c-0.39-0.48-1.27-0.79-2.63-0.95
			c-0.31,0-0.46-0.25-0.46-0.76c0-0.47,0.15-0.7,0.46-0.7c1.9-0.48,3.48-1.02,4.75-1.63c1.27-0.6,2.06-1.1,2.39-1.48
			c0.19-0.23,0.4-0.35,0.63-0.35c0.54,0,0.81,0.15,0.81,0.46l-0.23,3.62c2.76-2.57,5.32-3.85,7.69-3.85c2.6,0,4.64,0.75,6.1,2.24
			c1.46,1.5,2.2,3.51,2.2,6.04v10.99c0,1.88,0.23,3.11,0.7,3.68c0.47,0.58,1.52,0.97,3.15,1.18
			C219.38,45.13,219.54,45.39,219.54,45.87z"/>
		<path class="st0" d="M247.02,25.22c0,1.04-0.25,1.55-0.75,1.55l-3.65-0.11c0.42,1.09,0.63,2.21,0.63,3.34
			c0,2.76-1.01,5.06-3.02,6.9c-2.02,1.84-4.49,2.76-7.41,2.76h-1.15c-1.53,0-2.74,0.2-3.64,0.6c-0.9,0.4-1.35,0.87-1.35,1.41
			c0,0.67,0.37,1.22,1.12,1.65c0.75,0.43,1.79,0.66,3.13,0.68l6.65,0.09c2.87,0.06,5.1,0.66,6.7,1.81c1.6,1.15,2.39,2.75,2.39,4.8
			c0,3.11-1.69,5.82-5.06,8.14c-3.37,2.32-7.37,3.48-11.98,3.48c-3.03,0-5.57-0.74-7.64-2.21c-2.07-1.47-3.1-3.27-3.1-5.37
			c0-1.42,0.66-2.8,1.97-4.15c1.31-1.35,2.86-2.34,4.65-2.97c-1.19-0.54-2.16-1.3-2.91-2.29c-0.75-0.99-1.12-1.97-1.12-2.95
			c0-0.69,0.7-1.43,2.11-2.22c1.41-0.79,2.87-1.32,4.39-1.59c-1.65-0.81-2.93-1.88-3.85-3.22c-0.92-1.34-1.38-2.84-1.38-4.49
			c0-2.65,1.02-4.96,3.06-6.93c2.04-1.97,4.47-2.96,7.28-2.96c1.49,0,2.96,0.26,4.41,0.78c1.45,0.52,2.64,1.22,3.58,2.1l5.2-0.17
			C246.77,23.66,247.02,24.18,247.02,25.22z M243.08,52.85c0-1.32-0.44-2.27-1.31-2.84c-0.87-0.57-2.33-0.88-4.39-0.92l-6.67-0.14
			c-1.32,0-2.49-0.19-3.51-0.58c-2.34,1.28-3.51,2.97-3.51,5.05c0,1.89,0.8,3.43,2.39,4.61c1.59,1.18,3.61,1.76,6.07,1.76
			c2.95,0,5.51-0.67,7.68-2.01C242,56.44,243.08,54.8,243.08,52.85z M237.88,29.93c0-2.45-0.38-4.26-1.13-5.41
			c-0.76-1.15-1.96-1.73-3.63-1.73c-3.17,0-4.76,2.68-4.76,8.05c0,2.44,0.37,4.2,1.1,5.31c0.74,1.1,1.96,1.65,3.66,1.65
			C236.29,37.82,237.88,35.19,237.88,29.93z"/>
	</g>
	<g>
		<g>
			<path class="st1" d="M55.6,58.75c0,0.3-0.07,0.45-0.21,0.45l-2.46-0.07v3.96c0,1.03,0.37,1.55,1.11,1.55
				c0.46,0,0.87-0.11,1.25-0.32c0.04,0,0.08,0.03,0.12,0.09c0.04,0.06,0.05,0.12,0.05,0.19c0,0.14-0.2,0.32-0.61,0.56
				c-0.41,0.23-0.87,0.35-1.38,0.35c-0.63,0-1.13-0.19-1.5-0.57c-0.37-0.38-0.56-0.89-0.56-1.51v-0.07l0.03-4.01
				c0-0.15-0.07-0.23-0.2-0.23h-0.63c-0.12,0-0.18-0.07-0.18-0.21c0-0.11,0.05-0.19,0.15-0.24c0.76-0.45,1.43-1.09,1.99-1.91
				c0.06-0.09,0.14-0.13,0.23-0.13c0.15,0,0.23,0.04,0.23,0.13l-0.07,1.58h2.43C55.53,58.3,55.6,58.45,55.6,58.75z"/>
			<path class="st1" d="M65.16,65.09c0,0.15-0.04,0.23-0.13,0.23c-0.22,0-0.49-0.02-0.82-0.05c-0.35-0.03-0.66-0.05-0.93-0.05
				c-0.28,0-0.59,0.02-0.95,0.05c-0.33,0.03-0.6,0.05-0.82,0.05c-0.09,0-0.13-0.08-0.13-0.23c0-0.14,0.04-0.21,0.13-0.22
				c0.38-0.04,0.63-0.15,0.75-0.32c0.12-0.17,0.18-0.53,0.18-1.07v-2.76c0-1.19-0.54-1.78-1.62-1.78c-0.68,0-1.27,0.28-1.77,0.83
				v3.71c0,0.5,0.07,0.84,0.22,1.03c0.14,0.19,0.42,0.31,0.84,0.36c0.09,0.01,0.13,0.09,0.13,0.22c0,0.15-0.04,0.23-0.13,0.23
				c-0.23,0-0.52-0.02-0.88-0.05c-0.41-0.03-0.74-0.05-1.01-0.05c-0.27,0-0.59,0.02-0.94,0.05c-0.31,0.03-0.58,0.05-0.81,0.05
				c-0.09,0-0.13-0.08-0.13-0.23c0-0.14,0.04-0.21,0.13-0.22c0.46-0.05,0.76-0.16,0.9-0.33c0.14-0.17,0.21-0.52,0.21-1.07v-7.66
				c0-0.45-0.05-0.74-0.16-0.87c-0.11-0.14-0.36-0.23-0.75-0.27c-0.09-0.01-0.13-0.08-0.13-0.21c0-0.15,0.04-0.22,0.13-0.22
				c0.94-0.22,1.63-0.51,2.08-0.88c0.08-0.07,0.15-0.1,0.21-0.1c0.15,0,0.23,0.04,0.23,0.13c-0.09,0.9-0.13,1.86-0.13,2.87v2.8
				c0.79-0.75,1.57-1.12,2.34-1.12c0.78,0,1.4,0.21,1.85,0.64c0.45,0.43,0.68,1.01,0.68,1.73v3.15c0,0.54,0.07,0.89,0.21,1.06
				c0.14,0.17,0.44,0.28,0.91,0.33C65.12,64.88,65.16,64.95,65.16,65.09z"/>
			<path class="st1" d="M72.07,60.63c0,0.15-0.1,0.23-0.3,0.23h-4.52c-0.03,0.3-0.05,0.61-0.05,0.92c0,0.89,0.21,1.57,0.63,2.04
				c0.42,0.48,1.02,0.71,1.8,0.71c0.39,0,0.78-0.1,1.18-0.31c0.4-0.21,0.72-0.48,0.96-0.8l0.04-0.02c0.05,0,0.1,0.03,0.14,0.09
				c0.05,0.06,0.07,0.13,0.07,0.21c0,0.12-0.18,0.36-0.53,0.72c-0.35,0.37-0.73,0.65-1.15,0.84s-0.84,0.29-1.3,0.29
				c-0.99,0-1.82-0.36-2.5-1.09c-0.68-0.73-1.02-1.62-1.02-2.67c0-1.08,0.33-1.99,0.99-2.74c0.66-0.75,1.5-1.12,2.52-1.12
				c0.85,0,1.57,0.28,2.15,0.84C71.78,59.34,72.07,59.95,72.07,60.63z M70.57,59.9c0-0.41-0.14-0.76-0.43-1.03
				c-0.28-0.27-0.65-0.41-1.09-0.41c-0.42,0-0.79,0.18-1.1,0.53c-0.31,0.35-0.52,0.82-0.63,1.4l2.29-0.07
				c0.35-0.01,0.59-0.04,0.74-0.1C70.49,60.17,70.57,60.06,70.57,59.9z"/>
			<path class="st1" d="M85.18,61.8c0,1.08-0.37,1.98-1.1,2.69c-0.73,0.71-1.67,1.07-2.81,1.07c-0.65,0-1.22-0.13-1.68-0.38v2.55
				c0,0.53,0.07,0.89,0.21,1.06c0.14,0.17,0.44,0.29,0.92,0.35c0.09,0,0.13,0.08,0.13,0.23c0,0.15-0.04,0.23-0.13,0.23
				c-0.23,0-0.52-0.02-0.87-0.05c-0.39-0.03-0.71-0.05-0.97-0.05c-0.28,0-0.61,0.02-1,0.05c-0.35,0.03-0.64,0.05-0.87,0.05
				c-0.09,0-0.13-0.08-0.13-0.23c0-0.15,0.04-0.23,0.13-0.23c0.47-0.06,0.77-0.18,0.91-0.35c0.14-0.17,0.21-0.52,0.21-1.06v-7.31
				c0-0.44-0.06-0.73-0.17-0.87c-0.11-0.14-0.36-0.23-0.76-0.27c-0.09,0-0.13-0.07-0.13-0.22c0-0.13,0.04-0.2,0.13-0.2
				c0.53-0.13,0.98-0.28,1.34-0.45c0.36-0.17,0.6-0.32,0.71-0.44c0.06-0.07,0.12-0.1,0.17-0.1c0.15,0,0.23,0.04,0.23,0.13
				l-0.07,1.04c0.3-0.31,0.65-0.58,1.05-0.79c0.4-0.21,0.73-0.32,1.02-0.32c1.08,0,1.94,0.35,2.58,1.06
				C84.87,59.71,85.18,60.64,85.18,61.8z M83.51,61.79c0-0.92-0.2-1.64-0.6-2.15c-0.4-0.51-0.96-0.77-1.68-0.77
				c-0.3,0-0.58,0.06-0.82,0.19c-0.24,0.13-0.52,0.36-0.83,0.7v4.04c0,0.35,0.16,0.65,0.47,0.88c0.31,0.24,0.69,0.35,1.14,0.35
				c0.75,0,1.32-0.28,1.71-0.85C83.32,63.63,83.51,62.83,83.51,61.79z"/>
			<path class="st1" d="M91.66,58.77c0,0.22-0.07,0.41-0.2,0.56c-0.13,0.15-0.3,0.23-0.49,0.23c-0.24,0-0.48-0.08-0.72-0.24
				c-0.19-0.13-0.35-0.19-0.49-0.19c-0.36,0-0.73,0.21-1.11,0.63v3.71c0,0.48,0.08,0.81,0.25,1c0.17,0.19,0.52,0.32,1.06,0.39
				c0.09,0.01,0.13,0.09,0.13,0.22c0,0.15-0.04,0.23-0.13,0.23c-0.23,0-0.54-0.02-0.96-0.05c-0.46-0.03-0.82-0.05-1.09-0.05
				c-0.27,0-0.61,0.02-0.99,0.05c-0.35,0.03-0.64,0.05-0.87,0.05c-0.09,0-0.13-0.08-0.13-0.23c0-0.14,0.04-0.21,0.13-0.22
				c0.48-0.06,0.79-0.17,0.92-0.34c0.13-0.16,0.2-0.52,0.2-1.05v-3.05c0-0.44-0.06-0.73-0.17-0.87c-0.11-0.14-0.36-0.23-0.76-0.27
				c-0.09,0-0.13-0.07-0.13-0.22c0-0.13,0.04-0.2,0.13-0.2c0.54-0.14,0.99-0.29,1.35-0.46c0.35-0.17,0.58-0.31,0.69-0.43
				c0.07-0.07,0.13-0.1,0.2-0.1c0.15,0,0.23,0.04,0.23,0.13l-0.07,1.04c0.44-0.41,0.82-0.69,1.13-0.86
				c0.32-0.16,0.63-0.25,0.94-0.25c0.25,0,0.47,0.08,0.65,0.25C91.57,58.35,91.66,58.55,91.66,58.77z"/>
			<path class="st1" d="M99.75,61.8c0,1.1-0.36,2-1.07,2.7c-0.71,0.71-1.64,1.06-2.77,1.06c-1.13,0-2.06-0.35-2.78-1.06
				c-0.72-0.71-1.07-1.61-1.07-2.7c0-1.11,0.36-2.03,1.08-2.76c0.72-0.73,1.64-1.1,2.77-1.1c1.13,0,2.05,0.37,2.77,1.1
				C99.4,59.77,99.75,60.69,99.75,61.8z M98.09,61.79c0-1.01-0.19-1.81-0.58-2.41c-0.39-0.6-0.92-0.9-1.6-0.9
				c-0.67,0-1.2,0.3-1.59,0.91c-0.39,0.61-0.59,1.41-0.59,2.41c0,1,0.19,1.79,0.58,2.37c0.39,0.59,0.92,0.88,1.6,0.88
				c0.68,0,1.22-0.29,1.6-0.87C97.89,63.59,98.09,62.79,98.09,61.79z"/>
			<path class="st1" d="M109.07,64.77c0,0.12-0.04,0.18-0.13,0.19c-0.31,0.04-0.68,0.12-1.09,0.23c-0.41,0.12-0.74,0.23-0.97,0.35
				c-0.12,0.06-0.21,0.09-0.27,0.09c-0.09,0-0.13-0.04-0.13-0.13l0.07-0.89c-0.58,0.64-1.33,0.96-2.23,0.96
				c-0.95,0-1.76-0.37-2.43-1.1c-0.67-0.73-1-1.61-1-2.63c0-1.16,0.37-2.1,1.11-2.82c0.74-0.72,1.67-1.08,2.79-1.08
				c0.64,0,1.23,0.2,1.77,0.59v-2.74c0-0.44-0.06-0.74-0.17-0.87c-0.11-0.14-0.36-0.23-0.76-0.27c-0.09-0.01-0.13-0.08-0.13-0.21
				c0-0.15,0.04-0.22,0.13-0.22c0.52-0.12,0.97-0.27,1.35-0.44c0.38-0.17,0.64-0.32,0.77-0.45c0.06-0.06,0.11-0.08,0.17-0.08
				c0.15,0,0.23,0.04,0.23,0.13c-0.09,1.2-0.13,2.16-0.13,2.87v7.27c0,0.38,0.06,0.63,0.17,0.76c0.11,0.13,0.36,0.22,0.76,0.28
				C109.02,64.55,109.07,64.62,109.07,64.77z M106.54,63.89v-4.23c0-0.29-0.17-0.56-0.5-0.81c-0.33-0.25-0.69-0.38-1.09-0.38
				c-1.61,0-2.41,1.13-2.41,3.39c0,0.89,0.19,1.63,0.58,2.22c0.39,0.59,0.89,0.88,1.52,0.88c0.36,0,0.68-0.08,0.97-0.24
				C105.91,64.56,106.22,64.28,106.54,63.89z"/>
			<path class="st1" d="M117.54,64.78c0,0.12-0.04,0.18-0.13,0.19c-1,0.11-1.69,0.3-2.06,0.57c-0.08,0.06-0.15,0.09-0.23,0.09
				c-0.11,0-0.17-0.04-0.17-0.13l0.07-1.04c-0.81,0.74-1.55,1.11-2.21,1.11c-0.75,0-1.34-0.21-1.76-0.64
				c-0.42-0.43-0.63-1.01-0.63-1.74V60.1c0-0.49-0.06-0.82-0.19-0.98c-0.13-0.16-0.38-0.24-0.75-0.24c-0.07,0-0.15,0-0.24,0.01
				c-0.08,0-0.12-0.07-0.12-0.21c0-0.17,0.04-0.26,0.13-0.26c0.64,0,1.47-0.12,2.5-0.37c0.1,0,0.15,0.07,0.15,0.21v4.54
				c0,0.62,0.12,1.07,0.36,1.36c0.24,0.28,0.61,0.43,1.12,0.43c0.33,0,0.61-0.06,0.86-0.18c0.25-0.12,0.51-0.34,0.79-0.64V60.1
				c0-0.49-0.06-0.81-0.19-0.97c-0.13-0.16-0.39-0.24-0.77-0.24c-0.07,0-0.14,0-0.23,0.01c-0.08,0-0.12-0.07-0.12-0.21
				c0-0.17,0.04-0.26,0.13-0.26c0.64,0,1.47-0.12,2.51-0.37c0.1,0,0.15,0.07,0.15,0.21v5.27c0,0.38,0.05,0.63,0.16,0.76
				c0.11,0.13,0.36,0.22,0.76,0.28C117.49,64.56,117.54,64.63,117.54,64.78z"/>
			<path class="st1" d="M124.49,59.24c0,0.45-0.23,0.68-0.68,0.68c-0.19,0-0.35-0.04-0.47-0.12c-0.12-0.08-0.25-0.26-0.38-0.54
				c-0.15-0.32-0.31-0.54-0.47-0.64c-0.17-0.1-0.39-0.15-0.66-0.15c-0.67,0-1.17,0.28-1.52,0.83c-0.35,0.55-0.52,1.36-0.52,2.42
				c0,0.89,0.22,1.6,0.66,2.14c0.44,0.54,1.03,0.81,1.77,0.81c0.84,0,1.5-0.26,1.99-0.78l0.04-0.02c0.05,0,0.1,0.03,0.14,0.09
				c0.05,0.06,0.07,0.13,0.07,0.21c0,0.11-0.16,0.3-0.48,0.57c-0.32,0.27-0.67,0.47-1.06,0.61c-0.38,0.14-0.79,0.21-1.22,0.21
				c-0.99,0-1.83-0.36-2.53-1.09c-0.7-0.72-1.05-1.64-1.05-2.74c0-1.09,0.37-2,1.1-2.72c0.73-0.72,1.61-1.08,2.61-1.08
				c0.74,0,1.37,0.13,1.89,0.38C124.23,58.58,124.49,58.89,124.49,59.24z"/>
			<path class="st1" d="M130.77,58.75c0,0.3-0.07,0.45-0.21,0.45l-2.46-0.07v3.96c0,1.03,0.37,1.55,1.11,1.55
				c0.46,0,0.87-0.11,1.25-0.32c0.04,0,0.08,0.03,0.12,0.09s0.05,0.12,0.05,0.19c0,0.14-0.2,0.32-0.61,0.56
				c-0.41,0.23-0.87,0.35-1.38,0.35c-0.63,0-1.13-0.19-1.5-0.57c-0.37-0.38-0.56-0.89-0.56-1.51v-0.07l0.03-4.01
				c0-0.15-0.07-0.23-0.2-0.23h-0.63c-0.12,0-0.18-0.07-0.18-0.21c0-0.11,0.05-0.19,0.15-0.24c0.76-0.45,1.43-1.09,1.99-1.91
				c0.06-0.09,0.14-0.13,0.23-0.13c0.15,0,0.23,0.04,0.23,0.13l-0.07,1.58h2.43C130.7,58.3,130.77,58.45,130.77,58.75z"/>
			<path class="st1" d="M136.75,63.19c0,0.67-0.26,1.24-0.79,1.69c-0.53,0.46-1.16,0.69-1.91,0.69c-0.26,0-0.67-0.06-1.22-0.17
				c-0.41-0.08-0.69-0.12-0.84-0.12c-0.04-0.39-0.15-0.97-0.3-1.76c0-0.08,0.08-0.12,0.24-0.12c0.13,0,0.21,0.04,0.24,0.13
				c0.13,0.41,0.38,0.76,0.75,1.06c0.37,0.3,0.76,0.45,1.16,0.45c0.41,0,0.73-0.11,0.96-0.34c0.23-0.23,0.34-0.54,0.34-0.95
				c0-0.26-0.1-0.49-0.28-0.69c-0.19-0.2-0.6-0.44-1.23-0.73c-0.83-0.38-1.38-0.74-1.65-1.07c-0.27-0.34-0.4-0.74-0.4-1.21
				c0-0.58,0.25-1.07,0.75-1.49c0.5-0.42,1.09-0.62,1.77-0.62c0.29,0,0.69,0.05,1.2,0.15c0.29,0.06,0.47,0.08,0.56,0.08
				c0.02,0.65,0.05,1.2,0.11,1.66c0,0.08-0.08,0.12-0.24,0.12c-0.14,0-0.21-0.04-0.23-0.13c-0.06-0.4-0.21-0.73-0.45-0.98
				c-0.24-0.25-0.53-0.38-0.86-0.38c-0.86,0-1.28,0.37-1.28,1.12c0,0.25,0.1,0.49,0.3,0.7c0.2,0.21,0.64,0.49,1.32,0.83
				c0.81,0.41,1.34,0.76,1.6,1.06C136.62,62.48,136.75,62.82,136.75,63.19z"/>
			<path class="st1" d="M149.78,61.8c0,1.08-0.37,1.98-1.1,2.69c-0.73,0.71-1.67,1.07-2.81,1.07c-0.65,0-1.22-0.13-1.68-0.38v2.55
				c0,0.53,0.07,0.89,0.21,1.06c0.14,0.17,0.44,0.29,0.92,0.35c0.09,0,0.13,0.08,0.13,0.23c0,0.15-0.04,0.23-0.13,0.23
				c-0.23,0-0.52-0.02-0.87-0.05c-0.39-0.03-0.71-0.05-0.97-0.05c-0.28,0-0.61,0.02-1,0.05c-0.35,0.03-0.64,0.05-0.87,0.05
				c-0.09,0-0.13-0.08-0.13-0.23c0-0.15,0.04-0.23,0.13-0.23c0.47-0.06,0.77-0.18,0.91-0.35c0.14-0.17,0.21-0.52,0.21-1.06v-7.31
				c0-0.44-0.06-0.73-0.17-0.87c-0.11-0.14-0.36-0.23-0.76-0.27c-0.09,0-0.13-0.07-0.13-0.22c0-0.13,0.04-0.2,0.13-0.2
				c0.53-0.13,0.98-0.28,1.34-0.45c0.36-0.17,0.6-0.32,0.71-0.44c0.06-0.07,0.12-0.1,0.17-0.1c0.15,0,0.23,0.04,0.23,0.13
				l-0.07,1.04c0.3-0.31,0.65-0.58,1.05-0.79c0.4-0.21,0.73-0.32,1.02-0.32c1.08,0,1.94,0.35,2.58,1.06
				C149.46,59.71,149.78,60.64,149.78,61.8z M148.11,61.79c0-0.92-0.2-1.64-0.6-2.15c-0.4-0.51-0.96-0.77-1.68-0.77
				c-0.3,0-0.58,0.06-0.82,0.19c-0.24,0.13-0.52,0.36-0.83,0.7v4.04c0,0.35,0.16,0.65,0.47,0.88c0.31,0.24,0.69,0.35,1.14,0.35
				c0.75,0,1.32-0.28,1.71-0.85C147.91,63.63,148.11,62.83,148.11,61.79z"/>
			<path class="st1" d="M157.47,60.63c0,0.15-0.1,0.23-0.3,0.23h-4.52c-0.03,0.3-0.05,0.61-0.05,0.92c0,0.89,0.21,1.57,0.63,2.04
				c0.42,0.48,1.02,0.71,1.8,0.71c0.39,0,0.78-0.1,1.18-0.31c0.4-0.21,0.72-0.48,0.96-0.8l0.04-0.02c0.05,0,0.1,0.03,0.14,0.09
				c0.05,0.06,0.07,0.13,0.07,0.21c0,0.12-0.18,0.36-0.53,0.72c-0.35,0.37-0.73,0.65-1.15,0.84s-0.84,0.29-1.3,0.29
				c-0.99,0-1.82-0.36-2.5-1.09c-0.68-0.73-1.02-1.62-1.02-2.67c0-1.08,0.33-1.99,0.99-2.74c0.66-0.75,1.5-1.12,2.52-1.12
				c0.85,0,1.57,0.28,2.15,0.84C157.18,59.34,157.47,59.95,157.47,60.63z M155.97,59.9c0-0.41-0.14-0.76-0.43-1.03
				c-0.28-0.27-0.65-0.41-1.09-0.41c-0.42,0-0.79,0.18-1.1,0.53c-0.31,0.35-0.52,0.82-0.63,1.4l2.29-0.07
				c0.35-0.01,0.59-0.04,0.74-0.1C155.9,60.17,155.97,60.06,155.97,59.9z"/>
			<path class="st1" d="M166.22,61.8c0,1.1-0.36,2-1.07,2.7c-0.71,0.71-1.64,1.06-2.77,1.06s-2.06-0.35-2.78-1.06
				c-0.72-0.71-1.07-1.61-1.07-2.7c0-1.11,0.36-2.03,1.08-2.76c0.72-0.73,1.64-1.1,2.77-1.1c1.13,0,2.05,0.37,2.77,1.1
				C165.86,59.77,166.22,60.69,166.22,61.8z M164.56,61.79c0-1.01-0.19-1.81-0.58-2.41c-0.39-0.6-0.92-0.9-1.6-0.9
				c-0.67,0-1.2,0.3-1.59,0.91c-0.39,0.61-0.59,1.41-0.59,2.41c0,1,0.19,1.79,0.58,2.37c0.39,0.59,0.92,0.88,1.6,0.88
				c0.68,0,1.22-0.29,1.6-0.87C164.36,63.59,164.56,62.79,164.56,61.79z"/>
			<path class="st1" d="M174.96,61.8c0,1.08-0.37,1.98-1.1,2.69c-0.73,0.71-1.67,1.07-2.81,1.07c-0.65,0-1.22-0.13-1.68-0.38v2.55
				c0,0.53,0.07,0.89,0.21,1.06c0.14,0.17,0.44,0.29,0.92,0.35c0.09,0,0.13,0.08,0.13,0.23c0,0.15-0.04,0.23-0.13,0.23
				c-0.23,0-0.52-0.02-0.87-0.05c-0.39-0.03-0.71-0.05-0.97-0.05c-0.28,0-0.61,0.02-1,0.05c-0.35,0.03-0.64,0.05-0.87,0.05
				c-0.09,0-0.13-0.08-0.13-0.23c0-0.15,0.04-0.23,0.13-0.23c0.47-0.06,0.77-0.18,0.91-0.35c0.14-0.17,0.21-0.52,0.21-1.06v-7.31
				c0-0.44-0.06-0.73-0.17-0.87c-0.11-0.14-0.36-0.23-0.76-0.27c-0.09,0-0.13-0.07-0.13-0.22c0-0.13,0.04-0.2,0.13-0.2
				c0.53-0.13,0.98-0.28,1.34-0.45c0.36-0.17,0.6-0.32,0.71-0.44c0.06-0.07,0.12-0.1,0.17-0.1c0.15,0,0.23,0.04,0.23,0.13
				l-0.07,1.04c0.3-0.31,0.65-0.58,1.05-0.79c0.4-0.21,0.73-0.32,1.02-0.32c1.08,0,1.94,0.35,2.58,1.06
				C174.65,59.71,174.96,60.64,174.96,61.8z M173.3,61.79c0-0.92-0.2-1.64-0.6-2.15c-0.4-0.51-0.96-0.77-1.68-0.77
				c-0.3,0-0.58,0.06-0.82,0.19c-0.24,0.13-0.52,0.36-0.83,0.7v4.04c0,0.35,0.16,0.65,0.47,0.88c0.31,0.24,0.69,0.35,1.14,0.35
				c0.75,0,1.32-0.28,1.71-0.85C173.1,63.63,173.3,62.83,173.3,61.79z"/>
			<path class="st1" d="M179.49,65.07c0,0.15-0.04,0.23-0.13,0.23c-0.23,0-0.51-0.01-0.87-0.04c-0.4-0.03-0.73-0.04-1-0.04
				c-0.26,0-0.59,0.01-0.98,0.04c-0.35,0.03-0.64,0.04-0.87,0.04c-0.09,0-0.13-0.08-0.13-0.23c0-0.14,0.04-0.21,0.13-0.22
				c0.47-0.05,0.77-0.17,0.91-0.33c0.14-0.17,0.21-0.52,0.21-1.06v-7.66c0-0.45-0.06-0.74-0.16-0.87c-0.11-0.14-0.36-0.23-0.76-0.27
				c-0.09-0.01-0.13-0.08-0.13-0.21c0-0.13,0.04-0.2,0.13-0.2c0.58-0.15,1.05-0.31,1.42-0.47c0.37-0.17,0.6-0.31,0.69-0.43
				c0.06-0.06,0.12-0.09,0.18-0.09c0.15,0,0.23,0.04,0.23,0.13c-0.09,1.23-0.13,2.19-0.13,2.87v7.21c0,0.54,0.07,0.89,0.21,1.06
				c0.14,0.17,0.44,0.28,0.92,0.33C179.45,64.86,179.49,64.93,179.49,65.07z"/>
			<path class="st1" d="M186.46,60.63c0,0.15-0.1,0.23-0.3,0.23h-4.52c-0.03,0.3-0.05,0.61-0.05,0.92c0,0.89,0.21,1.57,0.63,2.04
				c0.42,0.48,1.02,0.71,1.8,0.71c0.39,0,0.78-0.1,1.18-0.31s0.72-0.48,0.96-0.8l0.04-0.02c0.05,0,0.1,0.03,0.14,0.09
				c0.05,0.06,0.07,0.13,0.07,0.21c0,0.12-0.18,0.36-0.53,0.72c-0.35,0.37-0.73,0.65-1.15,0.84c-0.41,0.19-0.84,0.29-1.3,0.29
				c-0.99,0-1.82-0.36-2.5-1.09c-0.68-0.73-1.02-1.62-1.02-2.67c0-1.08,0.33-1.99,0.99-2.74c0.66-0.75,1.5-1.12,2.52-1.12
				c0.85,0,1.57,0.28,2.15,0.84C186.17,59.34,186.46,59.95,186.46,60.63z M184.95,59.9c0-0.41-0.14-0.76-0.43-1.03
				c-0.28-0.27-0.65-0.41-1.09-0.41c-0.42,0-0.79,0.18-1.1,0.53c-0.31,0.35-0.52,0.82-0.63,1.4l2.29-0.07
				c0.35-0.01,0.59-0.04,0.74-0.1C184.88,60.17,184.95,60.06,184.95,59.9z"/>
			<path class="st1" d="M199.65,64.78c0,0.12-0.04,0.18-0.13,0.19c-1,0.11-1.69,0.3-2.06,0.57c-0.08,0.06-0.15,0.09-0.23,0.09
				c-0.11,0-0.17-0.04-0.17-0.13l0.07-1.04c-0.81,0.74-1.55,1.11-2.21,1.11c-0.75,0-1.34-0.21-1.76-0.64
				c-0.42-0.43-0.63-1.01-0.63-1.74V60.1c0-0.49-0.06-0.82-0.19-0.98c-0.13-0.16-0.38-0.24-0.75-0.24c-0.07,0-0.15,0-0.24,0.01
				c-0.08,0-0.12-0.07-0.12-0.21c0-0.17,0.04-0.26,0.13-0.26c0.64,0,1.47-0.12,2.5-0.37c0.1,0,0.15,0.07,0.15,0.21v4.54
				c0,0.62,0.12,1.07,0.36,1.36c0.24,0.28,0.61,0.43,1.12,0.43c0.33,0,0.61-0.06,0.86-0.18c0.25-0.12,0.51-0.34,0.79-0.64V60.1
				c0-0.49-0.06-0.81-0.19-0.97c-0.13-0.16-0.39-0.24-0.77-0.24c-0.07,0-0.14,0-0.23,0.01c-0.08,0-0.12-0.07-0.12-0.21
				c0-0.17,0.04-0.26,0.13-0.26c0.64,0,1.47-0.12,2.51-0.37c0.1,0,0.15,0.07,0.15,0.21v5.27c0,0.38,0.05,0.63,0.16,0.76
				c0.11,0.13,0.36,0.22,0.76,0.28C199.6,64.56,199.65,64.63,199.65,64.78z"/>
			<path class="st1" d="M205.58,63.19c0,0.67-0.26,1.24-0.79,1.69c-0.53,0.46-1.16,0.69-1.91,0.69c-0.26,0-0.67-0.06-1.22-0.17
				c-0.41-0.08-0.69-0.12-0.84-0.12c-0.04-0.39-0.15-0.97-0.3-1.76c0-0.08,0.08-0.12,0.24-0.12c0.13,0,0.21,0.04,0.24,0.13
				c0.13,0.41,0.38,0.76,0.75,1.06c0.37,0.3,0.76,0.45,1.16,0.45c0.41,0,0.73-0.11,0.96-0.34c0.23-0.23,0.34-0.54,0.34-0.95
				c0-0.26-0.1-0.49-0.28-0.69c-0.19-0.2-0.6-0.44-1.23-0.73c-0.83-0.38-1.38-0.74-1.65-1.07c-0.27-0.34-0.4-0.74-0.4-1.21
				c0-0.58,0.25-1.07,0.75-1.49c0.5-0.42,1.09-0.62,1.77-0.62c0.29,0,0.69,0.05,1.2,0.15c0.29,0.06,0.47,0.08,0.56,0.08
				c0.02,0.65,0.05,1.2,0.11,1.66c0,0.08-0.08,0.12-0.24,0.12c-0.14,0-0.21-0.04-0.23-0.13c-0.06-0.4-0.21-0.73-0.45-0.98
				c-0.24-0.25-0.53-0.38-0.86-0.38c-0.86,0-1.28,0.37-1.28,1.12c0,0.25,0.1,0.49,0.3,0.7c0.2,0.21,0.64,0.49,1.32,0.83
				c0.81,0.41,1.34,0.76,1.6,1.06C205.45,62.48,205.58,62.82,205.58,63.19z"/>
			<path class="st1" d="M213.12,60.63c0,0.15-0.1,0.23-0.3,0.23h-4.52c-0.03,0.3-0.05,0.61-0.05,0.92c0,0.89,0.21,1.57,0.63,2.04
				c0.42,0.48,1.02,0.71,1.8,0.71c0.39,0,0.78-0.1,1.18-0.31s0.72-0.48,0.96-0.8l0.04-0.02c0.05,0,0.1,0.03,0.14,0.09
				c0.05,0.06,0.07,0.13,0.07,0.21c0,0.12-0.18,0.36-0.53,0.72c-0.35,0.37-0.73,0.65-1.15,0.84s-0.84,0.29-1.3,0.29
				c-0.99,0-1.82-0.36-2.5-1.09c-0.68-0.73-1.01-1.62-1.01-2.67c0-1.08,0.33-1.99,0.99-2.74c0.66-0.75,1.5-1.12,2.52-1.12
				c0.85,0,1.57,0.28,2.15,0.84C212.83,59.34,213.12,59.95,213.12,60.63z M211.62,59.9c0-0.41-0.14-0.76-0.43-1.03
				s-0.65-0.41-1.09-0.41c-0.42,0-0.79,0.18-1.1,0.53c-0.31,0.35-0.52,0.82-0.63,1.4l2.29-0.07c0.35-0.01,0.59-0.04,0.74-0.1
				C211.55,60.17,211.62,60.06,211.62,59.9z"/>
		</g>
	</g>
	<path class="st1" d="M41.82,21.25l1.16-4.13h-9.1l3.45-12.24h-4.29l-3.45,12.24h-8.55l3.45-12.24H20.2l-3.45,12.24h-9.1l-1.16,4.13
		h9.1l-2.87,10.18h-9.1l-1.16,4.13h9.1L8.11,47.8h4.29l3.45-12.24h8.55L20.95,47.8h4.29l3.45-12.24h9.1l1.16-4.13h-9.1l2.87-10.18
		H41.82z M25.56,31.43h-8.55l2.87-10.18h8.55L25.56,31.43z"/>
</g>
</svg>
